<svg xmlns="http://www.w3.org/2000/svg" xmlns:xlink="http://www.w3.org/1999/xlink" width="50" zoomAndPan="magnify" viewBox="0 0 37.5 37.499999" height="50" preserveAspectRatio="xMidYMid meet" version="1.0"><defs><clipPath id="d11f4f0723"><path d="M 2.234375 1.261719 L 34.796875 1.261719 L 34.796875 36 L 2.234375 36 Z M 2.234375 1.261719 " clip-rule="nonzero"/></clipPath></defs><g clip-path="url(#d11f4f0723)"><path fill="#183d79" d="M 25.1875 15.015625 C 25.339844 15.042969 25.484375 15.089844 25.617188 15.160156 C 25.75 15.230469 25.875 15.320312 25.980469 15.429688 L 26.820312 14.667969 L 26.09375 14.585938 L 26.089844 14.582031 L 26.066406 14.582031 L 26.066406 14.578125 L 26.046875 14.578125 L 26.042969 14.574219 C 26.027344 14.574219 26.015625 14.570312 26.003906 14.566406 L 26.003906 14.5625 C 25.988281 14.558594 25.976562 14.554688 25.964844 14.546875 C 25.933594 14.535156 25.90625 14.519531 25.878906 14.496094 C 25.871094 14.492188 25.863281 14.484375 25.855469 14.476562 L 25.851562 14.472656 L 25.847656 14.472656 L 25.847656 14.46875 L 25.839844 14.464844 L 25.839844 14.460938 L 25.835938 14.460938 L 25.828125 14.453125 L 25.828125 14.449219 L 25.824219 14.449219 L 25.824219 14.445312 L 25.820312 14.441406 L 25.816406 14.441406 L 25.335938 13.890625 Z M 12.328125 9.347656 C 12.5 9.511719 12.503906 9.785156 12.339844 9.953125 C 12.171875 10.121094 11.902344 10.125 11.734375 9.960938 C 11.636719 9.867188 11.507812 9.792969 11.363281 9.734375 C 11.226562 9.683594 11.078125 9.648438 10.929688 9.644531 L 10.90625 9.644531 C 10.894531 9.644531 10.882812 9.644531 10.871094 9.644531 C 10.835938 9.644531 10.800781 9.644531 10.761719 9.648438 C 10.59375 9.667969 10.4375 9.726562 10.328125 9.839844 C 10.277344 9.894531 10.230469 9.960938 10.199219 10.042969 L 10.195312 10.058594 C 10.15625 10.167969 10.160156 10.273438 10.203125 10.367188 C 10.257812 10.480469 10.371094 10.585938 10.546875 10.675781 C 10.726562 10.765625 10.964844 10.828125 11.203125 10.890625 C 11.417969 10.945312 11.632812 11.003906 11.828125 11.082031 C 12.402344 11.3125 12.660156 11.730469 12.675781 12.175781 C 12.683594 12.449219 12.59375 12.722656 12.429688 12.960938 C 12.273438 13.183594 12.050781 13.382812 11.777344 13.515625 C 11.640625 13.582031 11.492188 13.632812 11.335938 13.667969 L 11.335938 14.28125 C 11.335938 14.519531 11.144531 14.710938 10.90625 14.710938 C 10.671875 14.710938 10.476562 14.519531 10.476562 14.28125 L 10.476562 13.664062 C 10.109375 13.589844 9.714844 13.417969 9.308594 13.113281 C 9.121094 12.972656 9.082031 12.707031 9.226562 12.515625 C 9.367188 12.328125 9.632812 12.289062 9.824219 12.429688 C 10.460938 12.910156 11.027344 12.925781 11.402344 12.746094 C 11.542969 12.675781 11.652344 12.582031 11.726562 12.476562 C 11.789062 12.386719 11.824219 12.289062 11.820312 12.203125 C 11.816406 12.082031 11.722656 11.960938 11.507812 11.875 C 11.359375 11.8125 11.171875 11.765625 10.988281 11.71875 C 10.703125 11.644531 10.417969 11.566406 10.164062 11.4375 C 9.804688 11.257812 9.5625 11.011719 9.429688 10.730469 C 9.285156 10.425781 9.273438 10.09375 9.394531 9.761719 L 9.402344 9.734375 C 9.480469 9.539062 9.585938 9.378906 9.714844 9.242188 C 9.925781 9.027344 10.191406 8.890625 10.476562 8.832031 L 10.476562 8.214844 C 10.476562 7.976562 10.671875 7.785156 10.90625 7.785156 C 11.144531 7.785156 11.335938 7.976562 11.335938 8.214844 L 11.335938 8.839844 C 11.449219 8.863281 11.5625 8.898438 11.671875 8.9375 C 11.921875 9.035156 12.152344 9.175781 12.328125 9.347656 Z M 15.390625 11.25 C 15.390625 10.011719 14.890625 8.890625 14.078125 8.078125 C 13.265625 7.265625 12.144531 6.765625 10.90625 6.765625 C 9.667969 6.765625 8.546875 7.265625 7.738281 8.078125 C 6.925781 8.890625 6.421875 10.011719 6.421875 11.25 C 6.421875 12.488281 6.925781 13.605469 7.738281 14.417969 C 8.546875 15.230469 9.667969 15.730469 10.90625 15.730469 C 12.144531 15.730469 13.265625 15.230469 14.078125 14.417969 C 14.886719 13.609375 15.390625 12.488281 15.390625 11.25 Z M 14.683594 7.472656 C 13.71875 6.503906 12.382812 5.90625 10.90625 5.90625 C 9.433594 5.90625 8.097656 6.503906 7.128906 7.472656 C 6.164062 8.4375 5.566406 9.773438 5.566406 11.25 C 5.566406 12.722656 6.164062 14.058594 7.128906 15.023438 C 8.097656 15.992188 9.433594 16.589844 10.90625 16.589844 C 12.382812 16.589844 13.71875 15.992188 14.683594 15.023438 C 15.648438 14.058594 16.25 12.722656 16.25 11.25 C 16.25 9.773438 15.648438 8.4375 14.683594 7.472656 Z M 23.390625 28.957031 L 24.183594 28.957031 C 24.464844 28.957031 24.714844 29.070312 24.898438 29.253906 C 24.910156 29.265625 24.917969 29.273438 24.929688 29.285156 C 25.09375 29.46875 25.195312 29.707031 25.195312 29.96875 C 25.195312 30.246094 25.082031 30.5 24.898438 30.683594 C 24.714844 30.867188 24.464844 30.980469 24.183594 30.980469 L 23.390625 30.980469 C 23.113281 30.980469 22.859375 30.867188 22.675781 30.683594 C 22.492188 30.5 22.378906 30.246094 22.378906 29.96875 C 22.378906 29.691406 22.492188 29.4375 22.675781 29.253906 C 22.859375 29.070312 23.113281 28.957031 23.390625 28.957031 Z M 24.183594 29.816406 L 23.390625 29.816406 C 23.347656 29.816406 23.308594 29.832031 23.28125 29.859375 C 23.253906 29.886719 23.234375 29.925781 23.234375 29.96875 C 23.234375 30.011719 23.253906 30.050781 23.28125 30.078125 C 23.308594 30.105469 23.347656 30.121094 23.390625 30.121094 L 24.183594 30.121094 C 24.226562 30.121094 24.265625 30.105469 24.292969 30.078125 C 24.320312 30.050781 24.339844 30.011719 24.339844 29.96875 C 24.339844 29.929688 24.328125 29.898438 24.304688 29.871094 L 24.292969 29.859375 C 24.265625 29.832031 24.226562 29.816406 24.183594 29.816406 Z M 23.390625 25.972656 L 24.183594 25.972656 C 24.464844 25.972656 24.714844 26.085938 24.898438 26.269531 C 25.082031 26.453125 25.195312 26.707031 25.195312 26.984375 C 25.195312 27.265625 25.082031 27.515625 24.898438 27.699219 C 24.714844 27.882812 24.464844 27.996094 24.183594 27.996094 L 23.390625 27.996094 C 23.113281 27.996094 22.859375 27.882812 22.675781 27.699219 C 22.492188 27.515625 22.378906 27.265625 22.378906 26.984375 C 22.378906 26.707031 22.492188 26.453125 22.675781 26.269531 C 22.859375 26.085938 23.113281 25.972656 23.390625 25.972656 Z M 24.183594 26.832031 L 23.390625 26.832031 C 23.347656 26.832031 23.308594 26.847656 23.28125 26.875 C 23.253906 26.90625 23.234375 26.941406 23.234375 26.984375 C 23.234375 27.027344 23.253906 27.066406 23.28125 27.09375 C 23.308594 27.121094 23.347656 27.140625 23.390625 27.140625 L 24.183594 27.140625 C 24.226562 27.140625 24.265625 27.121094 24.292969 27.09375 C 24.320312 27.066406 24.339844 27.027344 24.339844 26.984375 C 24.339844 26.941406 24.320312 26.90625 24.292969 26.875 C 24.265625 26.847656 24.226562 26.832031 24.183594 26.832031 Z M 23.390625 31.941406 L 24.183594 31.941406 C 24.464844 31.941406 24.714844 32.054688 24.898438 32.238281 C 25.082031 32.421875 25.195312 32.671875 25.195312 32.953125 C 25.195312 33.230469 25.082031 33.480469 24.898438 33.664062 L 24.898438 33.667969 C 24.714844 33.851562 24.464844 33.964844 24.183594 33.964844 L 23.390625 33.964844 C 23.113281 33.964844 22.859375 33.851562 22.675781 33.667969 C 22.492188 33.484375 22.378906 33.230469 22.378906 32.953125 C 22.378906 32.671875 22.492188 32.421875 22.675781 32.238281 C 22.859375 32.054688 23.113281 31.941406 23.390625 31.941406 Z M 24.183594 32.796875 L 23.390625 32.796875 C 23.347656 32.796875 23.308594 32.816406 23.28125 32.84375 C 23.253906 32.871094 23.234375 32.910156 23.234375 32.953125 C 23.234375 32.992188 23.253906 33.03125 23.28125 33.058594 C 23.308594 33.089844 23.347656 33.105469 23.390625 33.105469 L 24.183594 33.105469 C 24.226562 33.105469 24.265625 33.089844 24.292969 33.058594 L 24.292969 33.0625 L 24.292969 33.058594 C 24.320312 33.035156 24.339844 32.996094 24.339844 32.953125 C 24.339844 32.910156 24.320312 32.871094 24.292969 32.84375 C 24.265625 32.816406 24.226562 32.796875 24.183594 32.796875 Z M 30.902344 25.972656 L 31.699219 25.972656 C 31.976562 25.972656 32.230469 26.085938 32.414062 26.269531 C 32.597656 26.453125 32.710938 26.707031 32.710938 26.984375 C 32.710938 27.265625 32.597656 27.515625 32.414062 27.699219 C 32.230469 27.882812 31.976562 27.996094 31.699219 27.996094 L 30.902344 27.996094 C 30.625 27.996094 30.371094 27.882812 30.1875 27.699219 C 30.003906 27.515625 29.890625 27.265625 29.890625 26.984375 C 29.890625 26.707031 30.003906 26.453125 30.1875 26.269531 C 30.371094 26.085938 30.625 25.972656 30.902344 25.972656 Z M 31.699219 26.832031 L 30.902344 26.832031 C 30.863281 26.832031 30.824219 26.847656 30.796875 26.875 C 30.765625 26.90625 30.75 26.941406 30.75 26.984375 C 30.75 27.027344 30.765625 27.066406 30.796875 27.09375 C 30.824219 27.121094 30.863281 27.140625 30.902344 27.140625 L 31.699219 27.140625 C 31.738281 27.140625 31.777344 27.121094 31.804688 27.09375 C 31.835938 27.066406 31.851562 27.027344 31.851562 26.984375 C 31.851562 26.941406 31.835938 26.90625 31.804688 26.875 C 31.777344 26.847656 31.738281 26.832031 31.699219 26.832031 Z M 27.148438 28.957031 L 27.941406 28.957031 C 28.21875 28.957031 28.472656 29.070312 28.65625 29.253906 C 28.667969 29.265625 28.675781 29.273438 28.683594 29.285156 C 28.851562 29.46875 28.953125 29.707031 28.953125 29.96875 C 28.953125 30.246094 28.839844 30.5 28.65625 30.683594 C 28.472656 30.867188 28.21875 30.980469 27.941406 30.980469 L 27.148438 30.980469 C 26.867188 30.980469 26.613281 30.867188 26.433594 30.683594 C 26.25 30.5 26.136719 30.246094 26.136719 29.96875 C 26.136719 29.691406 26.25 29.4375 26.433594 29.253906 C 26.613281 29.070312 26.867188 28.957031 27.148438 28.957031 Z M 27.941406 29.816406 L 27.148438 29.816406 C 27.105469 29.816406 27.066406 29.832031 27.039062 29.859375 C 27.011719 29.886719 26.992188 29.925781 26.992188 29.96875 C 26.992188 30.011719 27.011719 30.050781 27.039062 30.078125 C 27.066406 30.105469 27.105469 30.121094 27.148438 30.121094 L 27.941406 30.121094 C 27.984375 30.121094 28.023438 30.105469 28.050781 30.078125 C 28.078125 30.050781 28.09375 30.011719 28.09375 29.96875 C 28.09375 29.929688 28.082031 29.898438 28.0625 29.871094 L 28.050781 29.859375 C 28.023438 29.832031 27.984375 29.816406 27.941406 29.816406 Z M 27.148438 25.972656 L 27.941406 25.972656 C 28.21875 25.972656 28.472656 26.085938 28.65625 26.269531 C 28.839844 26.453125 28.953125 26.707031 28.953125 26.984375 C 28.953125 27.265625 28.839844 27.515625 28.65625 27.699219 C 28.472656 27.882812 28.21875 27.996094 27.941406 27.996094 L 27.148438 27.996094 C 26.867188 27.996094 26.613281 27.882812 26.433594 27.699219 C 26.25 27.515625 26.136719 27.265625 26.136719 26.984375 C 26.136719 26.707031 26.25 26.453125 26.433594 26.269531 C 26.613281 26.085938 26.867188 25.972656 27.148438 25.972656 Z M 27.941406 26.832031 L 27.148438 26.832031 C 27.105469 26.832031 27.066406 26.847656 27.039062 26.875 C 27.011719 26.90625 26.992188 26.941406 26.992188 26.984375 C 26.992188 27.027344 27.011719 27.066406 27.039062 27.09375 C 27.066406 27.121094 27.105469 27.140625 27.148438 27.140625 L 27.941406 27.140625 C 27.984375 27.140625 28.023438 27.121094 28.050781 27.09375 C 28.078125 27.066406 28.09375 27.027344 28.09375 26.984375 C 28.09375 26.941406 28.078125 26.90625 28.050781 26.875 C 28.023438 26.847656 27.984375 26.832031 27.941406 26.832031 Z M 27.148438 31.941406 L 27.941406 31.941406 C 28.21875 31.941406 28.472656 32.054688 28.65625 32.238281 C 28.839844 32.421875 28.953125 32.671875 28.953125 32.953125 C 28.953125 33.230469 28.839844 33.480469 28.65625 33.664062 L 28.65625 33.667969 C 28.472656 33.851562 28.21875 33.964844 27.941406 33.964844 L 27.148438 33.964844 C 26.867188 33.964844 26.613281 33.851562 26.433594 33.667969 C 26.25 33.484375 26.136719 33.230469 26.136719 32.953125 C 26.136719 32.671875 26.25 32.421875 26.433594 32.238281 C 26.613281 32.054688 26.867188 31.941406 27.148438 31.941406 Z M 27.941406 32.796875 L 27.148438 32.796875 C 27.105469 32.796875 27.066406 32.816406 27.039062 32.84375 C 27.011719 32.871094 26.992188 32.910156 26.992188 32.953125 C 26.992188 32.992188 27.011719 33.03125 27.039062 33.058594 C 27.066406 33.089844 27.105469 33.105469 27.148438 33.105469 L 27.941406 33.105469 C 27.984375 33.105469 28.023438 33.089844 28.050781 33.058594 L 28.050781 33.0625 L 28.050781 33.058594 C 28.078125 33.035156 28.09375 32.996094 28.09375 32.953125 C 28.09375 32.910156 28.078125 32.871094 28.050781 32.84375 C 28.023438 32.816406 27.984375 32.796875 27.941406 32.796875 Z M 31.300781 28.957031 C 31.6875 28.957031 32.039062 29.117188 32.296875 29.371094 C 32.550781 29.625 32.710938 29.976562 32.710938 30.367188 L 32.710938 32.554688 C 32.710938 32.941406 32.550781 33.292969 32.296875 33.546875 L 32.296875 33.550781 L 32.292969 33.550781 C 32.039062 33.804688 31.6875 33.964844 31.300781 33.964844 C 30.914062 33.964844 30.558594 33.804688 30.304688 33.550781 C 30.296875 33.539062 30.289062 33.53125 30.28125 33.519531 C 30.039062 33.269531 29.890625 32.929688 29.890625 32.554688 L 29.890625 30.367188 C 29.890625 29.976562 30.050781 29.625 30.304688 29.371094 C 30.558594 29.117188 30.914062 28.957031 31.300781 28.957031 Z M 31.691406 29.976562 C 31.589844 29.875 31.453125 29.816406 31.300781 29.816406 C 31.148438 29.816406 31.011719 29.875 30.910156 29.976562 C 30.8125 30.078125 30.75 30.214844 30.75 30.367188 L 30.75 32.554688 C 30.75 32.699219 30.804688 32.828125 30.894531 32.929688 L 30.910156 32.945312 C 31.011719 33.042969 31.148438 33.105469 31.300781 33.105469 C 31.453125 33.105469 31.589844 33.042969 31.691406 32.945312 C 31.789062 32.84375 31.851562 32.707031 31.851562 32.554688 L 31.851562 30.367188 C 31.851562 30.214844 31.789062 30.078125 31.691406 29.976562 Z M 21.585938 18.117188 L 25.148438 18.117188 L 25.148438 17.285156 C 25.097656 17.308594 25.046875 17.324219 24.996094 17.335938 L 24.992188 17.335938 C 24.832031 17.367188 24.667969 17.347656 24.515625 17.269531 C 24.367188 17.191406 24.253906 17.066406 24.191406 16.914062 L 24.191406 16.910156 C 24.132812 16.78125 24.113281 16.628906 24.132812 16.46875 L 24.5625 13.234375 L 24.5625 13.21875 C 24.574219 13.167969 24.589844 13.121094 24.613281 13.078125 L 24.617188 13.074219 L 24.746094 12.828125 C 24.75 12.816406 24.757812 12.804688 24.761719 12.792969 L 25.148438 12.054688 L 25.148438 9.515625 L 21.578125 9.515625 C 20.988281 9.515625 20.449219 9.273438 20.058594 8.882812 C 19.667969 8.492188 19.425781 7.957031 19.425781 7.363281 L 19.425781 3.675781 L 4.410156 3.675781 C 4.054688 3.675781 3.730469 3.824219 3.496094 4.054688 L 3.496094 4.058594 C 3.261719 4.292969 3.117188 4.613281 3.117188 4.972656 L 3.117188 31.839844 C 3.117188 32.199219 3.261719 32.519531 3.496094 32.753906 L 3.496094 32.757812 C 3.730469 32.988281 4.054688 33.136719 4.410156 33.136719 L 20.359375 33.136719 L 20.359375 29.726562 L 11.417969 29.726562 C 11.179688 29.726562 10.988281 29.535156 10.988281 29.300781 C 10.988281 29.0625 11.179688 28.871094 11.417969 28.871094 L 20.359375 28.871094 L 20.359375 27.160156 L 11.417969 27.160156 C 11.179688 27.160156 10.988281 26.96875 10.988281 26.730469 C 10.988281 26.492188 11.179688 26.300781 11.417969 26.300781 L 20.359375 26.300781 L 20.359375 24.589844 L 11.417969 24.589844 C 11.179688 24.589844 10.988281 24.398438 10.988281 24.160156 C 10.988281 23.925781 11.179688 23.734375 11.417969 23.734375 L 20.359375 23.734375 L 20.359375 22.019531 L 11.417969 22.019531 C 11.179688 22.019531 10.988281 21.828125 10.988281 21.59375 C 10.988281 21.355469 11.179688 21.164062 11.417969 21.164062 L 20.359375 21.164062 L 20.359375 19.453125 L 11.417969 19.453125 C 11.179688 19.453125 10.988281 19.261719 10.988281 19.023438 C 10.988281 18.785156 11.179688 18.59375 11.417969 18.59375 L 20.617188 18.59375 C 20.648438 18.554688 20.683594 18.515625 20.71875 18.476562 C 20.941406 18.253906 21.246094 18.117188 21.585938 18.117188 Z M 26.007812 18.117188 L 33.503906 18.117188 C 33.839844 18.117188 34.148438 18.253906 34.371094 18.476562 C 34.378906 18.488281 34.386719 18.496094 34.398438 18.507812 C 34.601562 18.726562 34.730469 19.023438 34.730469 19.34375 L 34.730469 34.511719 C 34.730469 34.847656 34.59375 35.15625 34.371094 35.375 C 34.148438 35.597656 33.839844 35.738281 33.503906 35.738281 L 21.585938 35.738281 C 21.246094 35.738281 20.941406 35.597656 20.71875 35.375 C 20.496094 35.15625 20.359375 34.847656 20.359375 34.511719 L 20.359375 33.992188 L 4.410156 33.992188 C 3.820312 33.992188 3.28125 33.75 2.890625 33.359375 C 2.5 32.96875 2.257812 32.429688 2.257812 31.839844 L 2.257812 4.972656 C 2.257812 4.382812 2.5 3.84375 2.890625 3.453125 L 2.894531 3.449219 C 3.285156 3.0625 3.820312 2.820312 4.410156 2.820312 L 19.855469 2.820312 C 19.988281 2.820312 20.105469 2.878906 20.183594 2.972656 L 25.882812 8.789062 L 25.910156 8.816406 L 25.910156 8.820312 L 25.914062 8.820312 L 25.914062 8.824219 L 25.929688 8.839844 L 25.929688 8.847656 L 25.941406 8.859375 L 25.941406 8.863281 L 25.949219 8.871094 L 25.949219 8.875 L 25.953125 8.882812 L 25.957031 8.886719 L 25.957031 8.890625 L 25.960938 8.894531 L 25.960938 8.898438 L 25.964844 8.902344 L 25.96875 8.910156 L 25.96875 8.914062 L 25.972656 8.917969 L 25.972656 8.921875 L 25.976562 8.929688 L 25.976562 8.933594 L 25.980469 8.9375 L 25.980469 8.949219 L 25.984375 8.949219 L 25.984375 8.960938 L 25.988281 8.960938 L 25.988281 8.972656 L 25.992188 8.976562 L 25.992188 8.988281 L 25.996094 8.988281 L 25.996094 9 L 26 9.007812 L 26 9.027344 L 26.003906 9.03125 L 26.003906 9.085938 L 26.007812 9.085938 L 26.007812 10.410156 L 30.273438 2.246094 C 30.582031 1.652344 30.984375 1.367188 31.433594 1.285156 C 31.863281 1.207031 32.300781 1.332031 32.726562 1.554688 C 33.152344 1.777344 33.503906 2.066406 33.683594 2.460938 C 33.875 2.878906 33.867188 3.371094 33.558594 3.960938 L 33.328125 4.410156 L 33.320312 4.417969 L 33.316406 4.425781 L 28.054688 14.503906 C 28.046875 14.519531 28.035156 14.539062 28.027344 14.554688 L 27.90625 14.785156 C 27.882812 14.839844 27.847656 14.886719 27.800781 14.929688 L 26.007812 16.566406 Z M 33.503906 18.976562 L 21.585938 18.976562 C 21.484375 18.976562 21.390625 19.015625 21.324219 19.082031 C 21.257812 19.148438 21.214844 19.242188 21.214844 19.34375 L 21.214844 34.511719 C 21.214844 34.609375 21.257812 34.703125 21.324219 34.769531 C 21.390625 34.835938 21.484375 34.878906 21.585938 34.878906 L 33.503906 34.878906 C 33.605469 34.878906 33.695312 34.835938 33.765625 34.769531 C 33.832031 34.703125 33.871094 34.609375 33.871094 34.511719 L 33.871094 19.34375 C 33.871094 19.25 33.835938 19.164062 33.78125 19.097656 L 33.765625 19.082031 C 33.695312 19.015625 33.605469 18.976562 33.503906 18.976562 Z M 22.953125 20.476562 L 32.132812 20.476562 C 32.328125 20.476562 32.503906 20.554688 32.636719 20.683594 C 32.765625 20.8125 32.84375 20.988281 32.84375 21.183594 L 32.84375 23.832031 C 32.84375 24.027344 32.765625 24.203125 32.636719 24.332031 L 32.636719 24.335938 C 32.507812 24.460938 32.328125 24.542969 32.132812 24.542969 L 22.953125 24.542969 C 22.761719 24.542969 22.582031 24.460938 22.453125 24.335938 L 22.453125 24.332031 L 22.453125 24.335938 C 22.324219 24.207031 22.242188 24.027344 22.242188 23.832031 L 22.242188 21.183594 C 22.242188 20.988281 22.324219 20.8125 22.453125 20.683594 C 22.582031 20.554688 22.757812 20.476562 22.953125 20.476562 Z M 31.988281 21.332031 L 31.988281 23.683594 L 23.101562 23.683594 L 23.101562 21.332031 Z M 5.996094 29.726562 C 5.757812 29.726562 5.566406 29.535156 5.566406 29.300781 C 5.566406 29.0625 5.757812 28.871094 5.996094 28.871094 L 8.679688 28.871094 C 8.917969 28.871094 9.109375 29.0625 9.109375 29.300781 C 9.109375 29.535156 8.917969 29.726562 8.679688 29.726562 Z M 5.996094 27.160156 C 5.757812 27.160156 5.566406 26.96875 5.566406 26.730469 C 5.566406 26.492188 5.757812 26.300781 5.996094 26.300781 L 8.679688 26.300781 C 8.917969 26.300781 9.109375 26.492188 9.109375 26.730469 C 9.109375 26.96875 8.917969 27.160156 8.679688 27.160156 Z M 25.976562 12.316406 C 25.964844 12.339844 25.953125 12.367188 25.9375 12.386719 L 25.644531 12.945312 L 26.050781 13.410156 L 30.425781 5.035156 L 29.917969 4.769531 Z M 25.269531 16.078125 L 25.015625 16.308594 L 25.078125 15.863281 C 25.128906 15.875 25.175781 15.894531 25.222656 15.917969 C 25.269531 15.941406 25.308594 15.972656 25.347656 16.007812 L 25.308594 16.042969 C 25.296875 16.054688 25.28125 16.066406 25.269531 16.078125 Z M 24.558594 8.660156 L 21.578125 8.660156 C 21.222656 8.660156 20.898438 8.511719 20.664062 8.277344 C 20.429688 8.042969 20.285156 7.71875 20.285156 7.363281 L 20.285156 4.296875 L 21.753906 5.796875 Z M 5.996094 24.589844 C 5.757812 24.589844 5.566406 24.398438 5.566406 24.160156 C 5.566406 23.925781 5.757812 23.734375 5.996094 23.734375 L 8.679688 23.734375 C 8.917969 23.734375 9.109375 23.925781 9.109375 24.160156 C 9.109375 24.398438 8.917969 24.589844 8.679688 24.589844 Z M 5.996094 22.019531 C 5.757812 22.019531 5.566406 21.828125 5.566406 21.59375 C 5.566406 21.355469 5.757812 21.164062 5.996094 21.164062 L 8.679688 21.164062 C 8.917969 21.164062 9.109375 21.355469 9.109375 21.59375 C 9.109375 21.828125 8.917969 22.019531 8.679688 22.019531 Z M 5.996094 19.453125 C 5.757812 19.453125 5.566406 19.261719 5.566406 19.023438 C 5.566406 18.785156 5.757812 18.59375 5.996094 18.59375 L 8.679688 18.59375 C 8.917969 18.59375 9.109375 18.785156 9.109375 19.023438 C 9.109375 19.261719 8.917969 19.453125 8.679688 19.453125 Z M 30.3125 4.011719 L 31.1875 4.472656 L 31.199219 4.476562 L 31.207031 4.480469 L 32.085938 4.941406 L 32.367188 4.402344 L 30.59375 3.472656 Z M 31.691406 5.699219 L 31.183594 5.433594 L 26.808594 13.804688 L 27.417969 13.875 Z M 32.761719 3.644531 L 32.800781 3.566406 C 32.972656 3.242188 32.988281 3 32.90625 2.816406 C 32.816406 2.617188 32.601562 2.453125 32.332031 2.3125 C 32.0625 2.167969 31.800781 2.085938 31.585938 2.125 C 31.390625 2.160156 31.199219 2.3125 31.03125 2.640625 L 30.992188 2.714844 Z M 32.761719 3.644531 " fill-opacity="1" fill-rule="evenodd"/></g></svg>