<svg xmlns="http://www.w3.org/2000/svg" xmlns:xlink="http://www.w3.org/1999/xlink" width="50" zoomAndPan="magnify" viewBox="0 0 37.5 37.499999" height="50" preserveAspectRatio="xMidYMid meet" version="1.0"><defs><clipPath id="d9e4e3cc23"><path d="M 1.046875 19 L 15 19 L 15 36.773438 L 1.046875 36.773438 Z M 1.046875 19 " clip-rule="nonzero"/></clipPath><clipPath id="b4fd420791"><path d="M 22 0.507812 L 35.835938 0.507812 L 35.835938 15 L 22 15 Z M 22 0.507812 " clip-rule="nonzero"/></clipPath></defs><g clip-path="url(#d9e4e3cc23)"><path fill="#183d79" d="M 12.867188 19.886719 L 2.585938 19.886719 C 1.738281 19.886719 1.050781 20.574219 1.050781 21.421875 L 1.050781 34.960938 C 1.050781 35.808594 1.738281 36.496094 2.585938 36.496094 L 12.867188 36.496094 C 13.714844 36.496094 14.402344 35.808594 14.402344 34.960938 L 14.402344 21.421875 C 14.402344 20.574219 13.714844 19.886719 12.867188 19.886719 Z M 6.316406 34.210938 L 5.71875 34.210938 L 5.71875 34.808594 C 5.71875 35.203125 5.398438 35.527344 4.996094 35.527344 C 4.597656 35.527344 4.277344 35.207031 4.277344 34.808594 L 4.277344 34.210938 L 3.679688 34.210938 C 3.285156 34.210938 2.960938 33.890625 2.960938 33.492188 C 2.960938 33.089844 3.28125 32.769531 3.679688 32.769531 L 4.277344 32.769531 L 4.277344 32.171875 C 4.277344 31.777344 4.597656 31.453125 4.996094 31.453125 C 5.398438 31.453125 5.71875 31.773438 5.71875 32.171875 L 5.71875 32.769531 L 6.316406 32.769531 C 6.710938 32.769531 7.035156 33.089844 7.035156 33.492188 C 7.035156 33.890625 6.710938 34.210938 6.316406 34.210938 Z M 3.558594 27.769531 C 3.28125 27.488281 3.28125 27.03125 3.558594 26.753906 C 3.839844 26.472656 4.296875 26.472656 4.578125 26.753906 L 5 27.175781 L 5.421875 26.753906 C 5.703125 26.472656 6.160156 26.472656 6.441406 26.753906 C 6.722656 27.03125 6.722656 27.488281 6.441406 27.769531 L 6.015625 28.191406 L 6.441406 28.617188 C 6.722656 28.894531 6.722656 29.351562 6.441406 29.632812 C 6.300781 29.773438 6.113281 29.84375 5.933594 29.84375 C 5.75 29.84375 5.5625 29.773438 5.421875 29.632812 L 5 29.210938 L 4.578125 29.632812 C 4.4375 29.773438 4.25 29.84375 4.070312 29.84375 C 3.886719 29.84375 3.699219 29.773438 3.558594 29.632812 C 3.28125 29.351562 3.28125 28.894531 3.558594 28.617188 L 3.984375 28.191406 Z M 11.832031 34.210938 L 9.199219 34.210938 C 8.804688 34.210938 8.480469 33.890625 8.480469 33.492188 C 8.480469 33.089844 8.800781 32.769531 9.199219 32.769531 L 11.832031 32.769531 C 12.226562 32.769531 12.550781 33.089844 12.550781 33.492188 C 12.550781 33.890625 12.230469 34.210938 11.832031 34.210938 Z M 11.832031 29.882812 L 9.199219 29.882812 C 8.804688 29.882812 8.480469 29.5625 8.480469 29.164062 C 8.480469 28.761719 8.800781 28.441406 9.199219 28.441406 L 11.832031 28.441406 C 12.226562 28.441406 12.550781 28.761719 12.550781 29.164062 C 12.550781 29.5625 12.230469 29.882812 11.832031 29.882812 Z M 11.832031 27.867188 L 9.199219 27.867188 C 8.804688 27.867188 8.480469 27.546875 8.480469 27.148438 C 8.480469 26.746094 8.800781 26.425781 9.199219 26.425781 L 11.832031 26.425781 C 12.226562 26.425781 12.550781 26.746094 12.550781 27.148438 C 12.550781 27.546875 12.230469 27.867188 11.832031 27.867188 Z M 12.867188 24.464844 L 2.585938 24.464844 L 2.585938 21.453125 L 12.867188 21.453125 Z M 12.867188 24.464844 " fill-opacity="1" fill-rule="nonzero"/></g><g clip-path="url(#b4fd420791)"><path fill="#183d79" d="M 28.972656 14.449219 C 27.109375 14.449219 25.363281 13.726562 24.046875 12.410156 C 22.726562 11.09375 22.003906 9.339844 22.003906 7.480469 C 22.003906 5.617188 22.726562 3.867188 24.046875 2.550781 C 25.363281 1.234375 27.113281 0.507812 28.972656 0.507812 C 30.839844 0.507812 32.585938 1.234375 33.902344 2.550781 C 35.222656 3.867188 35.945312 5.617188 35.945312 7.480469 C 35.945312 9.339844 35.222656 11.09375 33.902344 12.410156 C 32.589844 13.726562 30.839844 14.449219 28.972656 14.449219 Z M 28.972656 1.917969 C 25.910156 1.917969 23.414062 4.414062 23.414062 7.480469 C 23.414062 10.546875 25.910156 13.039062 28.972656 13.039062 C 32.039062 13.039062 34.535156 10.546875 34.535156 7.480469 C 34.535156 4.414062 32.042969 1.917969 28.972656 1.917969 Z M 28.972656 1.917969 " fill-opacity="1" fill-rule="nonzero"/></g><path fill="#183d79" d="M 28.6875 12.011719 L 28.6875 10.957031 C 28.003906 10.933594 27.316406 10.738281 26.925781 10.480469 L 27.21875 9.457031 C 27.640625 9.707031 28.25 9.933594 28.914062 9.933594 C 29.597656 9.933594 30.066406 9.597656 30.066406 9.078125 C 30.066406 8.585938 29.683594 8.273438 28.882812 7.976562 C 27.742188 7.566406 27 7.042969 27 6.035156 C 27 5.101562 27.652344 4.382812 28.75 4.1875 L 28.75 3.121094 L 29.640625 3.121094 L 29.640625 4.132812 C 30.328125 4.152344 30.796875 4.316406 31.140625 4.492188 L 30.851562 5.492188 C 30.589844 5.375 30.109375 5.125 29.371094 5.125 C 28.609375 5.125 28.339844 5.515625 28.339844 5.882812 C 28.339844 6.328125 28.730469 6.582031 29.65625 6.949219 C 30.871094 7.40625 31.414062 7.992188 31.414062 8.960938 C 31.414062 9.882812 30.773438 10.699219 29.578125 10.894531 L 29.578125 12.015625 L 28.6875 12.015625 Z M 28.6875 12.011719 " fill-opacity="1" fill-rule="nonzero"/><path fill="#183d79" d="M 9.144531 11.820312 C 8.839844 11.820312 8.597656 12.066406 8.597656 12.367188 L 8.597656 15.847656 L 9.695312 15.847656 L 9.695312 12.367188 C 9.695312 12.066406 9.449219 11.820312 9.144531 11.820312 Z M 9.144531 11.820312 " fill-opacity="1" fill-rule="nonzero"/><path fill="#183d79" d="M 12.089844 10.5625 C 11.785156 10.5625 11.542969 10.808594 11.542969 11.109375 L 11.542969 15.847656 L 12.640625 15.847656 L 12.640625 11.113281 C 12.640625 10.808594 12.394531 10.5625 12.089844 10.5625 Z M 12.089844 10.5625 " fill-opacity="1" fill-rule="nonzero"/><path fill="#183d79" d="M 15.039062 9.148438 C 14.734375 9.148438 14.488281 9.398438 14.488281 9.699219 L 14.488281 15.847656 L 15.589844 15.847656 L 15.589844 9.699219 C 15.585938 9.398438 15.339844 9.148438 15.039062 9.148438 Z M 15.039062 9.148438 " fill-opacity="1" fill-rule="nonzero"/><path fill="#183d79" d="M 17.980469 7.363281 C 17.679688 7.363281 17.433594 7.613281 17.433594 7.914062 L 17.433594 15.847656 L 18.535156 15.847656 L 18.535156 7.917969 C 18.53125 7.613281 18.285156 7.363281 17.980469 7.363281 Z M 17.980469 7.363281 " fill-opacity="1" fill-rule="nonzero"/><path fill="#183d79" d="M 27.03125 34.898438 L 16.21875 34.898438 L 16.21875 32.953125 L 27.03125 32.953125 C 27.894531 32.953125 28.597656 32.253906 28.597656 31.386719 L 28.597656 15.9375 L 30.542969 15.9375 L 30.542969 31.386719 C 30.539062 33.324219 28.96875 34.898438 27.03125 34.898438 Z M 27.03125 34.898438 " fill-opacity="1" fill-rule="nonzero"/><path fill="#183d79" d="M 5.035156 18.320312 L 3.085938 18.320312 L 3.085938 5.253906 C 3.085938 3.316406 4.664062 1.746094 6.597656 1.746094 L 21.296875 1.746094 L 21.296875 3.691406 L 6.601562 3.691406 C 5.738281 3.691406 5.035156 4.390625 5.035156 5.257812 Z M 5.035156 18.320312 " fill-opacity="1" fill-rule="nonzero"/><path fill="#183d79" d="M 25.605469 21.425781 L 17.433594 21.425781 C 17.175781 21.425781 16.96875 21.21875 16.96875 20.960938 C 16.96875 20.707031 17.175781 20.5 17.433594 20.5 L 25.605469 20.5 C 25.859375 20.5 26.066406 20.707031 26.066406 20.960938 C 26.066406 21.21875 25.859375 21.425781 25.605469 21.425781 Z M 25.605469 21.425781 " fill-opacity="1" fill-rule="nonzero"/><path fill="#183d79" d="M 25.605469 23.898438 L 17.433594 23.898438 C 17.175781 23.898438 16.96875 23.695312 16.96875 23.4375 C 16.96875 23.179688 17.175781 22.972656 17.433594 22.972656 L 25.605469 22.972656 C 25.859375 22.972656 26.066406 23.179688 26.066406 23.4375 C 26.066406 23.695312 25.859375 23.898438 25.605469 23.898438 Z M 25.605469 23.898438 " fill-opacity="1" fill-rule="nonzero"/><path fill="#183d79" d="M 25.605469 26.375 L 17.433594 26.375 C 17.175781 26.375 16.96875 26.171875 16.96875 25.914062 C 16.96875 25.65625 17.175781 25.449219 17.433594 25.449219 L 25.605469 25.449219 C 25.859375 25.449219 26.066406 25.65625 26.066406 25.914062 C 26.066406 26.171875 25.859375 26.375 25.605469 26.375 Z M 25.605469 26.375 " fill-opacity="1" fill-rule="nonzero"/><path fill="#183d79" d="M 25.605469 28.851562 L 17.433594 28.851562 C 17.175781 28.851562 16.96875 28.644531 16.96875 28.386719 C 16.96875 28.132812 17.175781 27.925781 17.433594 27.925781 L 25.605469 27.925781 C 25.859375 27.925781 26.066406 28.132812 26.066406 28.386719 C 26.066406 28.644531 25.859375 28.851562 25.605469 28.851562 Z M 25.605469 28.851562 " fill-opacity="1" fill-rule="nonzero"/></svg>