<svg xmlns="http://www.w3.org/2000/svg" xmlns:xlink="http://www.w3.org/1999/xlink" width="50" zoomAndPan="magnify" viewBox="0 0 37.5 37.499999" height="50" preserveAspectRatio="xMidYMid meet" version="1.0"><defs><clipPath id="54fddb2400"><path d="M 0.757812 0.757812 L 36.285156 0.757812 L 36.285156 36.285156 L 0.757812 36.285156 Z M 0.757812 0.757812 " clip-rule="nonzero"/></clipPath></defs><g clip-path="url(#54fddb2400)"><path fill="#ffffff" d="M 0.757812 8.109375 L 0.757812 28.890625 C 0.757812 32.933594 4.066406 36.242188 8.109375 36.242188 L 28.890625 36.242188 C 32.933594 36.242188 36.242188 32.933594 36.242188 28.890625 L 36.242188 8.109375 C 36.242188 4.066406 32.933594 0.757812 28.890625 0.757812 L 8.109375 0.757812 C 4.066406 0.757812 0.757812 4.066406 0.757812 8.109375 Z M 15.03125 6.976562 C 15.03125 5.59375 16.160156 4.464844 17.542969 4.464844 L 18.710938 4.464844 C 20.09375 4.464844 21.222656 5.59375 21.222656 6.976562 L 21.222656 14.035156 C 21.222656 14.589844 21.675781 15.042969 22.230469 15.042969 L 29.289062 15.042969 C 30.671875 15.042969 31.796875 16.171875 31.796875 17.550781 L 31.796875 18.722656 C 31.796875 20.105469 30.671875 21.230469 29.289062 21.230469 L 22.230469 21.230469 C 21.675781 21.230469 21.222656 21.6875 21.222656 22.242188 L 21.222656 29.300781 C 21.222656 30.683594 20.09375 31.808594 18.710938 31.808594 L 17.542969 31.808594 C 16.160156 31.808594 15.03125 30.683594 15.03125 29.300781 L 15.03125 22.242188 C 15.03125 21.6875 14.578125 21.230469 14.023438 21.230469 L 6.964844 21.230469 C 5.582031 21.230469 4.457031 20.105469 4.457031 18.722656 L 4.457031 17.550781 C 4.457031 16.171875 5.582031 15.042969 6.964844 15.042969 L 14.023438 15.042969 C 14.578125 15.042969 15.03125 14.589844 15.03125 14.035156 Z M 15.03125 6.976562 " fill-opacity="1" fill-rule="evenodd"/></g></svg>