<svg xmlns="http://www.w3.org/2000/svg" xmlns:xlink="http://www.w3.org/1999/xlink" width="50" zoomAndPan="magnify" viewBox="0 0 37.5 37.499999" height="50" preserveAspectRatio="xMidYMid meet" version="1.0"><defs><clipPath id="ba87570318"><path d="M 0.574219 1.113281 L 36.101562 1.113281 L 36.101562 35.898438 L 0.574219 35.898438 Z M 0.574219 1.113281 " clip-rule="nonzero"/></clipPath></defs><g clip-path="url(#ba87570318)"><path fill="#183d79" d="M 31.945312 12.035156 L 31.804688 12.035156 C 30.769531 9.570312 29.195312 7.476562 27.242188 5.886719 C 27.53125 5.109375 27.257812 4.199219 26.550781 3.742188 C 21.113281 0.21875 14.128906 0.21875 8.6875 3.742188 C 7.972656 4.207031 7.703125 5.136719 8.015625 5.925781 C 5.949219 7.601562 4.292969 9.820312 3.28125 12.40625 C 1.800781 13.070312 0.761719 14.554688 0.761719 16.277344 L 0.761719 20.070312 C 0.761719 22.410156 2.667969 24.316406 5.011719 24.316406 L 6.101562 24.316406 C 6.351562 24.316406 6.5625 24.03125 6.488281 23.792969 C 6.289062 23.140625 6.308594 22.652344 6.292969 22.449219 L 6.292969 14.753906 C 6.292969 12.082031 8.480469 9.917969 11.128906 9.917969 C 12.902344 9.917969 20.550781 9.917969 24.109375 9.917969 C 26.257812 9.917969 28.324219 11.367188 28.839844 13.746094 C 29.007812 14.535156 28.9375 14.421875 28.949219 22.449219 C 28.949219 25.09375 26.777344 27.285156 24.109375 27.285156 L 11.128906 27.285156 C 9.992188 27.285156 8.882812 26.878906 8.011719 26.148438 C 7.839844 26.003906 7.582031 26.023438 7.4375 26.195312 C 7.292969 26.367188 7.316406 26.625 7.488281 26.769531 C 8.507812 27.625 9.800781 28.097656 11.128906 28.097656 C 11.976562 28.097656 22.136719 28.097656 25.824219 28.097656 C 28.222656 28.097656 30.375 26.554688 31.160156 24.316406 L 31.945312 24.316406 C 31.992188 24.316406 32.039062 24.308594 32.085938 24.308594 C 30.53125 29.1875 26.867188 32.152344 21.335938 33.035156 C 21.046875 32.207031 20.265625 31.609375 19.34375 31.609375 L 16.898438 31.609375 C 15.730469 31.609375 14.777344 32.5625 14.777344 33.730469 C 14.777344 34.898438 15.730469 35.847656 16.898438 35.847656 L 19.34375 35.847656 C 20.472656 35.847656 21.390625 34.957031 21.449219 33.84375 C 27.460938 32.898438 31.40625 29.617188 32.980469 24.183594 C 34.820312 23.71875 36.1875 22.054688 36.1875 20.070312 L 36.1875 16.277344 C 36.1875 13.9375 34.285156 12.035156 31.945312 12.035156 Z M 29.429688 12.84375 L 30.230469 12.84375 C 32.125 12.84375 33.664062 14.386719 33.664062 16.277344 L 33.664062 20.070312 C 33.664062 21.964844 32.125 23.503906 30.230469 23.503906 L 29.660156 23.503906 C 29.84375 22.535156 29.730469 22.230469 29.761719 14.753906 C 29.761719 13.90625 29.589844 13.363281 29.429688 12.84375 Z M 5.011719 23.503906 C 3.117188 23.503906 1.574219 21.964844 1.574219 20.070312 L 1.574219 16.277344 C 1.574219 14.847656 2.457031 13.617188 3.710938 13.101562 C 4.597656 12.738281 5.25 12.875 5.816406 12.84375 C 5.359375 14.378906 5.507812 13.570312 5.484375 22.449219 C 5.488281 22.527344 5.484375 22.863281 5.558594 23.347656 C 5.570312 23.398438 5.574219 23.453125 5.582031 23.503906 Z M 6.183594 12.035156 C 5.148438 12.050781 4.90625 11.992188 4.289062 12.101562 C 5.253906 9.921875 6.703125 8.046875 8.476562 6.589844 C 9.066406 7.125 9.886719 7.167969 10.515625 6.761719 C 14.835938 3.960938 20.402344 3.960938 24.726562 6.761719 C 25.367188 7.179688 26.210938 7.117188 26.792969 6.570312 C 28.535156 8 29.957031 9.859375 30.925781 12.035156 L 30.773438 12.035156 C 29.78125 10.21875 27.90625 9.101562 25.824219 9.101562 C 24.320312 9.101562 31.269531 9.101562 11.128906 9.109375 C 9.003906 9.109375 7.148438 10.292969 6.183594 12.035156 Z M 6.183594 12.035156 " fill-opacity="1" fill-rule="nonzero"/></g><path fill="#183d79" d="M 23.648438 16.996094 L 23.648438 16.011719 C 23.648438 15.082031 22.890625 14.324219 21.960938 14.324219 C 21.027344 14.324219 20.269531 15.082031 20.269531 16.011719 L 20.269531 16.996094 C 20.269531 17.925781 21.027344 18.683594 21.960938 18.683594 C 22.890625 18.683594 23.648438 17.925781 23.648438 16.996094 Z M 23.648438 16.996094 " fill-opacity="1" fill-rule="nonzero"/><path fill="#183d79" d="M 13.28125 14.324219 C 12.351562 14.324219 11.59375 15.082031 11.59375 16.011719 L 11.59375 16.996094 C 11.59375 17.925781 12.351562 18.683594 13.28125 18.683594 C 14.210938 18.683594 14.972656 17.925781 14.972656 16.996094 L 14.972656 16.011719 C 14.972656 15.082031 14.210938 14.324219 13.28125 14.324219 Z M 13.28125 14.324219 " fill-opacity="1" fill-rule="nonzero"/><path fill="#183d79" d="M 12.371094 22.738281 C 12.371094 23.410156 12.917969 23.960938 13.59375 23.960938 L 21.648438 23.960938 C 22.324219 23.960938 22.871094 23.410156 22.871094 22.738281 C 22.871094 22.0625 22.324219 21.511719 21.648438 21.511719 L 13.59375 21.511719 C 12.917969 21.511719 12.371094 22.0625 12.371094 22.738281 Z M 12.371094 22.738281 " fill-opacity="1" fill-rule="nonzero"/><path fill="#183d79" d="M 3.527344 16.15625 C 3.304688 16.15625 3.125 16.339844 3.125 16.5625 L 3.125 19.785156 C 3.125 20.011719 3.304688 20.191406 3.527344 20.191406 C 3.753906 20.191406 3.933594 20.011719 3.933594 19.785156 L 3.933594 16.5625 C 3.933594 16.339844 3.753906 16.15625 3.527344 16.15625 Z M 3.527344 16.15625 " fill-opacity="1" fill-rule="nonzero"/><path fill="#183d79" d="M 31.710938 20.191406 C 31.9375 20.191406 32.117188 20.011719 32.117188 19.785156 L 32.117188 16.5625 C 32.117188 16.339844 31.9375 16.15625 31.710938 16.15625 C 31.488281 16.15625 31.308594 16.339844 31.308594 16.5625 L 31.308594 19.785156 C 31.308594 20.011719 31.488281 20.191406 31.710938 20.191406 Z M 31.710938 20.191406 " fill-opacity="1" fill-rule="nonzero"/></svg>