<svg xmlns="http://www.w3.org/2000/svg" xmlns:xlink="http://www.w3.org/1999/xlink" width="50" zoomAndPan="magnify" viewBox="0 0 37.5 37.499999" height="50" preserveAspectRatio="xMidYMid meet" version="1.0"><defs><clipPath id="2e9a293979"><path d="M 0 2.8125 L 37.007812 2.8125 L 37.007812 32.417969 L 0 32.417969 Z M 0 2.8125 " clip-rule="nonzero"/></clipPath></defs><g clip-path="url(#2e9a293979)"><path fill="#183d79" d="M 11.941406 2.816406 C 11.746094 2.816406 11.566406 2.867188 11.398438 2.960938 C 11.226562 3.054688 11.089844 3.179688 10.984375 3.34375 C 10.878906 3.507812 10.820312 3.683594 10.804688 3.878906 C 10.789062 4.070312 10.820312 4.253906 10.894531 4.433594 L 12.332031 7.851562 C 7.992188 8.972656 4.585938 12.390625 3.476562 16.738281 C 1.527344 16.929688 0 18.554688 0 20.554688 C 0 22.683594 1.726562 24.410156 3.855469 24.410156 L 3.992188 24.410156 C 5.820312 28.925781 10.246094 32.117188 15.417969 32.117188 L 21.585938 32.117188 C 26.761719 32.117188 31.183594 28.925781 33.015625 24.410156 L 33.152344 24.410156 C 35.28125 24.410156 37.007812 22.683594 37.007812 20.554688 C 37.007812 18.554688 35.476562 16.929688 33.527344 16.738281 C 32.421875 12.398438 29.027344 8.984375 24.695312 7.855469 L 26.117188 4.429688 C 26.195312 4.25 26.222656 4.058594 26.207031 3.863281 C 26.1875 3.667969 26.125 3.488281 26.015625 3.324219 C 25.902344 3.164062 25.761719 3.035156 25.585938 2.945312 C 25.410156 2.855469 25.226562 2.8125 25.03125 2.816406 C 24.796875 2.820312 24.585938 2.886719 24.394531 3.019531 C 24.203125 3.152344 24.066406 3.324219 23.976562 3.542969 L 22.34375 7.484375 C 22.09375 7.472656 21.84375 7.445312 21.585938 7.445312 L 15.417969 7.445312 C 15.171875 7.445312 14.929688 7.46875 14.6875 7.484375 L 13.027344 3.539062 C 12.9375 3.316406 12.792969 3.140625 12.597656 3.007812 C 12.398438 2.875 12.179688 2.8125 11.941406 2.816406 Z M 15.417969 9.761719 L 21.585938 9.761719 C 27.113281 9.761719 31.609375 14.257812 31.609375 19.78125 C 31.609375 25.308594 27.113281 29.804688 21.585938 29.804688 L 15.417969 29.804688 C 9.894531 29.804688 5.398438 25.308594 5.398438 19.78125 C 5.398438 14.257812 9.894531 9.761719 15.417969 9.761719 Z M 15.417969 13.613281 C 12.019531 13.613281 9.25 16.382812 9.25 19.78125 C 9.25 23.183594 12.019531 25.949219 15.417969 25.949219 L 21.585938 25.949219 C 24.988281 25.949219 27.753906 23.183594 27.753906 19.78125 C 27.753906 16.382812 24.988281 13.613281 21.585938 13.613281 Z M 13.878906 18.242188 C 14.730469 18.242188 15.417969 18.929688 15.417969 19.78125 C 15.417969 20.632812 14.730469 21.324219 13.878906 21.324219 C 13.027344 21.324219 12.335938 20.632812 12.335938 19.78125 C 12.335938 18.929688 13.027344 18.242188 13.878906 18.242188 Z M 23.128906 18.242188 C 23.980469 18.242188 24.671875 18.929688 24.671875 19.78125 C 24.671875 20.632812 23.980469 21.324219 23.128906 21.324219 C 22.277344 21.324219 21.585938 20.632812 21.585938 19.78125 C 21.585938 18.929688 22.277344 18.242188 23.128906 18.242188 Z M 23.128906 18.242188 " fill-opacity="1" fill-rule="nonzero"/></g></svg>