<svg xmlns="http://www.w3.org/2000/svg" xmlns:xlink="http://www.w3.org/1999/xlink" width="250" zoomAndPan="magnify" viewBox="0 0 187.92 196.08" height="250" preserveAspectRatio="xMidYMid meet" version="1.0"><defs><clipPath id="320291493d"><path d="M 0.398438 0 L 187.023438 0 L 187.023438 186.625 L 0.398438 186.625 Z M 0.398438 0 " clip-rule="nonzero"/></clipPath><clipPath id="c391d787f8"><path d="M 30.679688 44.304688 L 156.839844 44.304688 L 156.839844 142.097656 L 30.679688 142.097656 Z M 30.679688 44.304688 " clip-rule="nonzero"/></clipPath></defs><g clip-path="url(#320291493d)"><path fill="#ffffff" d="M 0.398438 0 L 187.023438 0 L 187.023438 186.625 L 0.398438 186.625 Z M 0.398438 0 " fill-opacity="1" fill-rule="nonzero"/><path fill="#ffffff" d="M 0.398438 0 L 187.023438 0 L 187.023438 186.625 L 0.398438 186.625 Z M 0.398438 0 " fill-opacity="1" fill-rule="nonzero"/></g><g clip-path="url(#c391d787f8)"><path fill="#005b9f" d="M 148.3125 87.710938 L 148.3125 63.5 C 148.6875 63.390625 149.050781 63.257812 149.40625 63.105469 C 149.765625 62.949219 150.109375 62.773438 150.445312 62.578125 C 150.78125 62.382812 151.105469 62.167969 151.414062 61.933594 C 151.726562 61.699219 152.019531 61.449219 152.300781 61.179688 C 152.582031 60.910156 152.84375 60.625 153.089844 60.324219 C 153.339844 60.023438 153.566406 59.710938 153.773438 59.382812 C 153.984375 59.054688 154.171875 58.714844 154.34375 58.367188 C 154.511719 58.015625 154.65625 57.65625 154.785156 57.289062 C 154.910156 56.921875 155.015625 56.546875 155.097656 56.167969 C 155.175781 55.789062 155.234375 55.402344 155.273438 55.015625 C 155.308594 54.628906 155.320312 54.242188 155.3125 53.855469 C 155.300781 53.464844 155.269531 53.078125 155.210938 52.695312 C 155.15625 52.308594 155.078125 51.929688 154.976562 51.554688 C 154.875 51.179688 154.75 50.8125 154.605469 50.449219 C 154.460938 50.089844 154.296875 49.738281 154.109375 49.398438 C 153.921875 49.058594 153.714844 48.730469 153.488281 48.414062 C 153.261719 48.097656 153.019531 47.792969 152.757812 47.507812 C 152.496094 47.21875 152.21875 46.949219 151.925781 46.695312 C 151.628906 46.441406 151.320312 46.203125 151 45.988281 C 150.679688 45.769531 150.34375 45.570312 150 45.394531 C 149.652344 45.214844 149.296875 45.058594 148.933594 44.925781 C 148.570312 44.789062 148.199219 44.675781 147.820312 44.582031 C 147.441406 44.492188 147.0625 44.421875 146.675781 44.378906 C 146.289062 44.332031 145.902344 44.308594 145.511719 44.308594 C 145.125 44.308594 144.738281 44.332031 144.351562 44.378906 C 143.964844 44.421875 143.582031 44.492188 143.207031 44.582031 C 142.828125 44.675781 142.457031 44.789062 142.09375 44.925781 C 141.730469 45.058594 141.375 45.214844 141.027344 45.394531 C 140.683594 45.570312 140.347656 45.769531 140.027344 45.988281 C 139.703125 46.203125 139.394531 46.441406 139.101562 46.695312 C 138.808594 46.949219 138.53125 47.21875 138.269531 47.507812 C 138.007812 47.792969 137.761719 48.097656 137.539062 48.414062 C 137.3125 48.730469 137.105469 49.058594 136.917969 49.398438 C 136.730469 49.738281 136.566406 50.089844 136.421875 50.449219 C 136.273438 50.8125 136.152344 51.179688 136.050781 51.554688 C 135.949219 51.929688 135.871094 52.308594 135.816406 52.695312 C 135.757812 53.078125 135.726562 53.464844 135.714844 53.855469 C 135.707031 54.242188 135.71875 54.628906 135.753906 55.015625 C 135.789062 55.402344 135.847656 55.789062 135.929688 56.167969 C 136.011719 56.546875 136.117188 56.921875 136.242188 57.289062 C 136.367188 57.65625 136.515625 58.015625 136.683594 58.367188 C 136.851562 58.714844 137.042969 59.054688 137.25 59.382812 C 137.460938 59.710938 137.6875 60.023438 137.933594 60.324219 C 138.179688 60.625 138.445312 60.910156 138.726562 61.179688 C 139.003906 61.449219 139.300781 61.699219 139.609375 61.933594 C 139.921875 62.167969 140.246094 62.382812 140.582031 62.578125 C 140.917969 62.773438 141.261719 62.949219 141.617188 63.105469 C 141.976562 63.257812 142.339844 63.390625 142.710938 63.5 L 142.710938 87.710938 C 142.667969 86.914062 142.585938 86.125 142.46875 85.335938 C 142.347656 84.546875 142.191406 83.765625 141.996094 82.992188 C 141.804688 82.21875 141.574219 81.457031 141.308594 80.707031 C 141.042969 79.957031 140.742188 79.21875 140.40625 78.496094 C 140.070312 77.773438 139.703125 77.066406 139.300781 76.378906 C 138.898438 75.691406 138.460938 75.023438 137.996094 74.378906 C 137.53125 73.730469 137.035156 73.109375 136.511719 72.507812 C 135.984375 71.910156 135.433594 71.335938 134.855469 70.789062 C 134.273438 70.242188 133.671875 69.722656 133.042969 69.230469 C 132.414062 68.742188 131.761719 68.285156 131.089844 67.855469 C 130.417969 67.425781 129.726562 67.03125 129.015625 66.667969 C 128.308594 66.304688 127.582031 65.976562 126.839844 65.683594 C 126.101562 65.390625 125.347656 65.132812 124.582031 64.910156 C 123.816406 64.6875 123.042969 64.5 122.261719 64.351562 C 121.476562 64.203125 120.6875 64.089844 119.894531 64.015625 C 119.101562 63.941406 118.304688 63.90625 117.507812 63.90625 L 69.902344 63.90625 C 69.109375 63.910156 68.3125 63.949219 67.523438 64.023438 C 66.730469 64.101562 65.945312 64.214844 65.164062 64.363281 C 64.382812 64.515625 63.609375 64.703125 62.847656 64.925781 C 62.082031 65.148438 61.332031 65.410156 60.59375 65.703125 C 59.851562 66 59.128906 66.328125 58.421875 66.691406 C 57.714844 67.054688 57.027344 67.449219 56.355469 67.878906 C 55.683594 68.308594 55.035156 68.765625 54.410156 69.257812 C 53.785156 69.746094 53.179688 70.265625 52.605469 70.8125 C 52.027344 71.359375 51.476562 71.933594 50.953125 72.53125 C 50.429688 73.128906 49.933594 73.753906 49.472656 74.398438 C 49.007812 75.046875 48.574219 75.710938 48.171875 76.398438 C 47.769531 77.085938 47.402344 77.789062 47.070312 78.511719 C 46.734375 79.234375 46.433594 79.96875 46.167969 80.71875 C 45.90625 81.46875 45.675781 82.230469 45.484375 83.003906 C 45.289062 83.773438 45.132812 84.554688 45.015625 85.339844 C 44.894531 86.125 44.8125 86.917969 44.769531 87.710938 L 44.699219 87.710938 L 44.699219 63.5 C 45.074219 63.390625 45.4375 63.257812 45.792969 63.105469 C 46.152344 62.949219 46.496094 62.773438 46.832031 62.578125 C 47.167969 62.382812 47.492188 62.167969 47.800781 61.933594 C 48.113281 61.699219 48.40625 61.449219 48.6875 61.179688 C 48.96875 60.910156 49.230469 60.625 49.476562 60.324219 C 49.722656 60.023438 49.953125 59.710938 50.160156 59.382812 C 50.371094 59.054688 50.558594 58.714844 50.726562 58.367188 C 50.898438 58.015625 51.042969 57.65625 51.171875 57.289062 C 51.296875 56.921875 51.402344 56.546875 51.480469 56.167969 C 51.5625 55.789062 51.621094 55.402344 51.660156 55.015625 C 51.695312 54.628906 51.707031 54.242188 51.699219 53.855469 C 51.6875 53.464844 51.65625 53.078125 51.597656 52.695312 C 51.542969 52.308594 51.464844 51.929688 51.363281 51.554688 C 51.261719 51.179688 51.136719 50.8125 50.992188 50.449219 C 50.847656 50.089844 50.679688 49.738281 50.496094 49.398438 C 50.308594 49.058594 50.101562 48.730469 49.875 48.414062 C 49.648438 48.097656 49.40625 47.792969 49.144531 47.507812 C 48.882812 47.21875 48.605469 46.949219 48.308594 46.695312 C 48.015625 46.441406 47.707031 46.203125 47.386719 45.988281 C 47.0625 45.769531 46.730469 45.570312 46.386719 45.394531 C 46.039062 45.214844 45.683594 45.058594 45.320312 44.925781 C 44.957031 44.789062 44.585938 44.675781 44.207031 44.582031 C 43.828125 44.492188 43.449219 44.421875 43.0625 44.378906 C 42.675781 44.332031 42.289062 44.308594 41.898438 44.308594 C 41.511719 44.308594 41.125 44.332031 40.738281 44.378906 C 40.351562 44.421875 39.96875 44.492188 39.59375 44.582031 C 39.214844 44.675781 38.84375 44.789062 38.480469 44.925781 C 38.113281 45.058594 37.761719 45.214844 37.414062 45.394531 C 37.070312 45.570312 36.734375 45.769531 36.414062 45.988281 C 36.089844 46.207031 35.78125 46.441406 35.488281 46.695312 C 35.195312 46.949219 34.917969 47.21875 34.65625 47.507812 C 34.394531 47.792969 34.148438 48.097656 33.921875 48.414062 C 33.699219 48.730469 33.492188 49.058594 33.304688 49.398438 C 33.117188 49.738281 32.953125 50.089844 32.808594 50.449219 C 32.660156 50.8125 32.539062 51.179688 32.4375 51.554688 C 32.335938 51.929688 32.257812 52.308594 32.199219 52.695312 C 32.144531 53.078125 32.113281 53.464844 32.101562 53.855469 C 32.089844 54.242188 32.105469 54.628906 32.140625 55.015625 C 32.175781 55.402344 32.234375 55.789062 32.316406 56.167969 C 32.398438 56.546875 32.503906 56.921875 32.628906 57.289062 C 32.753906 57.65625 32.902344 58.015625 33.070312 58.367188 C 33.238281 58.714844 33.429688 59.054688 33.636719 59.382812 C 33.847656 59.710938 34.074219 60.023438 34.320312 60.324219 C 34.566406 60.625 34.832031 60.910156 35.113281 61.179688 C 35.390625 61.449219 35.6875 61.699219 35.996094 61.933594 C 36.308594 62.167969 36.632812 62.382812 36.964844 62.578125 C 37.300781 62.773438 37.648438 62.949219 38.003906 63.105469 C 38.363281 63.257812 38.726562 63.390625 39.097656 63.5 L 39.097656 87.710938 C 38.546875 87.710938 38 87.765625 37.460938 87.871094 C 36.917969 87.980469 36.394531 88.140625 35.882812 88.351562 C 35.375 88.5625 34.890625 88.820312 34.433594 89.125 C 33.972656 89.433594 33.550781 89.78125 33.160156 90.171875 C 32.769531 90.5625 32.421875 90.984375 32.113281 91.445312 C 31.808594 91.902344 31.550781 92.386719 31.335938 92.898438 C 31.125 93.40625 30.96875 93.933594 30.859375 94.472656 C 30.753906 95.015625 30.699219 95.558594 30.699219 96.113281 L 30.699219 110.113281 C 30.699219 110.664062 30.753906 111.210938 30.859375 111.753906 C 30.96875 112.292969 31.125 112.820312 31.335938 113.328125 C 31.550781 113.839844 31.808594 114.324219 32.113281 114.78125 C 32.421875 115.238281 32.769531 115.664062 33.160156 116.054688 C 33.550781 116.445312 33.972656 116.792969 34.433594 117.097656 C 34.890625 117.40625 35.375 117.664062 35.882812 117.875 C 36.394531 118.085938 36.917969 118.246094 37.460938 118.355469 C 38 118.460938 38.546875 118.515625 39.097656 118.515625 L 44.769531 118.515625 C 44.8125 119.308594 44.894531 120.101562 45.015625 120.886719 C 45.132812 121.671875 45.289062 122.453125 45.484375 123.222656 C 45.675781 123.996094 45.90625 124.757812 46.167969 125.507812 C 46.433594 126.257812 46.734375 126.992188 47.070312 127.714844 C 47.402344 128.4375 47.769531 129.140625 48.171875 129.828125 C 48.574219 130.515625 49.007812 131.179688 49.472656 131.828125 C 49.933594 132.472656 50.429688 133.09375 50.953125 133.695312 C 51.476562 134.292969 52.027344 134.867188 52.605469 135.414062 C 53.179688 135.960938 53.785156 136.480469 54.410156 136.96875 C 55.035156 137.460938 55.683594 137.917969 56.355469 138.347656 C 57.027344 138.777344 57.714844 139.171875 58.421875 139.535156 C 59.128906 139.898438 59.851562 140.226562 60.59375 140.523438 C 61.332031 140.816406 62.082031 141.078125 62.847656 141.300781 C 63.609375 141.523438 64.382812 141.710938 65.164062 141.863281 C 65.945312 142.011719 66.730469 142.125 67.523438 142.203125 C 68.3125 142.277344 69.109375 142.316406 69.902344 142.316406 L 117.507812 142.316406 C 118.304688 142.320312 119.101562 142.28125 119.894531 142.207031 C 120.6875 142.132812 121.476562 142.023438 122.261719 141.875 C 123.042969 141.726562 123.816406 141.539062 124.582031 141.316406 C 125.347656 141.09375 126.101562 140.835938 126.839844 140.542969 C 127.582031 140.25 128.308594 139.921875 129.015625 139.558594 C 129.726562 139.195312 130.417969 138.800781 131.089844 138.371094 C 131.761719 137.941406 132.414062 137.484375 133.042969 136.992188 C 133.671875 136.503906 134.273438 135.984375 134.855469 135.4375 C 135.433594 134.890625 135.984375 134.316406 136.511719 133.71875 C 137.035156 133.117188 137.53125 132.496094 137.996094 131.847656 C 138.460938 131.203125 138.898438 130.535156 139.300781 129.847656 C 139.703125 129.160156 140.070312 128.453125 140.40625 127.730469 C 140.742188 127.007812 141.042969 126.269531 141.308594 125.519531 C 141.574219 124.769531 141.804688 124.003906 141.996094 123.234375 C 142.191406 122.460938 142.347656 121.679688 142.46875 120.890625 C 142.585938 120.101562 142.667969 119.3125 142.710938 118.515625 L 148.3125 118.515625 C 148.863281 118.515625 149.410156 118.460938 149.953125 118.355469 C 150.492188 118.246094 151.019531 118.085938 151.527344 117.875 C 152.039062 117.664062 152.523438 117.40625 152.980469 117.097656 C 153.441406 116.792969 153.863281 116.445312 154.253906 116.054688 C 154.644531 115.664062 154.992188 115.238281 155.296875 114.78125 C 155.605469 114.324219 155.863281 113.839844 156.074219 113.328125 C 156.285156 112.820312 156.445312 112.292969 156.554688 111.753906 C 156.660156 111.210938 156.714844 110.664062 156.714844 110.113281 L 156.714844 96.113281 C 156.714844 95.558594 156.660156 95.015625 156.554688 94.472656 C 156.445312 93.933594 156.285156 93.40625 156.074219 92.898438 C 155.863281 92.386719 155.605469 91.902344 155.296875 91.445312 C 154.992188 90.984375 154.644531 90.5625 154.253906 90.171875 C 153.863281 89.78125 153.441406 89.433594 152.980469 89.125 C 152.523438 88.820312 152.039062 88.5625 151.527344 88.351562 C 151.019531 88.140625 150.492188 87.980469 149.953125 87.871094 C 149.410156 87.765625 148.863281 87.710938 148.3125 87.710938 Z M 141.3125 54.105469 C 141.3125 53.832031 141.339844 53.558594 141.394531 53.289062 C 141.445312 53.015625 141.527344 52.753906 141.632812 52.5 C 141.738281 52.246094 141.867188 52.003906 142.019531 51.773438 C 142.171875 51.542969 142.347656 51.332031 142.542969 51.136719 C 142.738281 50.941406 142.949219 50.765625 143.179688 50.613281 C 143.410156 50.460938 143.652344 50.332031 143.90625 50.226562 C 144.160156 50.121094 144.421875 50.039062 144.695312 49.988281 C 144.964844 49.933594 145.238281 49.90625 145.511719 49.90625 C 145.789062 49.90625 146.0625 49.933594 146.332031 49.988281 C 146.601562 50.039062 146.867188 50.121094 147.121094 50.226562 C 147.375 50.332031 147.617188 50.460938 147.847656 50.613281 C 148.078125 50.765625 148.289062 50.941406 148.484375 51.136719 C 148.679688 51.332031 148.851562 51.542969 149.003906 51.773438 C 149.160156 52.003906 149.289062 52.246094 149.394531 52.5 C 149.5 52.753906 149.578125 53.015625 149.632812 53.289062 C 149.6875 53.558594 149.714844 53.832031 149.714844 54.105469 C 149.714844 54.382812 149.6875 54.65625 149.632812 54.925781 C 149.578125 55.195312 149.5 55.460938 149.394531 55.714844 C 149.289062 55.96875 149.160156 56.210938 149.003906 56.441406 C 148.851562 56.667969 148.679688 56.882812 148.484375 57.078125 C 148.289062 57.273438 148.078125 57.445312 147.847656 57.597656 C 147.617188 57.753906 147.375 57.882812 147.121094 57.988281 C 146.867188 58.09375 146.601562 58.171875 146.332031 58.226562 C 146.0625 58.28125 145.789062 58.308594 145.511719 58.308594 C 145.238281 58.308594 144.964844 58.28125 144.695312 58.226562 C 144.421875 58.171875 144.160156 58.09375 143.90625 57.988281 C 143.652344 57.882812 143.410156 57.753906 143.179688 57.597656 C 142.949219 57.445312 142.738281 57.273438 142.542969 57.078125 C 142.347656 56.882812 142.171875 56.667969 142.019531 56.441406 C 141.867188 56.210938 141.738281 55.96875 141.632812 55.714844 C 141.527344 55.460938 141.445312 55.195312 141.394531 54.925781 C 141.339844 54.65625 141.3125 54.382812 141.3125 54.105469 Z M 37.699219 54.105469 C 37.699219 53.832031 37.726562 53.558594 37.78125 53.289062 C 37.832031 53.015625 37.914062 52.753906 38.019531 52.5 C 38.125 52.246094 38.253906 52.003906 38.40625 51.773438 C 38.558594 51.542969 38.734375 51.332031 38.929688 51.136719 C 39.125 50.941406 39.335938 50.765625 39.566406 50.613281 C 39.796875 50.460938 40.039062 50.332031 40.292969 50.226562 C 40.546875 50.121094 40.808594 50.039062 41.082031 49.988281 C 41.351562 49.933594 41.625 49.90625 41.898438 49.90625 C 42.175781 49.90625 42.449219 49.933594 42.71875 49.988281 C 42.988281 50.039062 43.253906 50.121094 43.507812 50.226562 C 43.761719 50.332031 44.003906 50.460938 44.234375 50.613281 C 44.460938 50.765625 44.675781 50.941406 44.871094 51.136719 C 45.066406 51.332031 45.238281 51.542969 45.390625 51.773438 C 45.546875 52.003906 45.675781 52.246094 45.78125 52.5 C 45.886719 52.753906 45.964844 53.015625 46.019531 53.289062 C 46.074219 53.558594 46.101562 53.832031 46.101562 54.105469 C 46.101562 54.382812 46.074219 54.65625 46.019531 54.925781 C 45.964844 55.195312 45.886719 55.460938 45.78125 55.714844 C 45.675781 55.96875 45.546875 56.210938 45.390625 56.441406 C 45.238281 56.667969 45.066406 56.882812 44.871094 57.078125 C 44.675781 57.273438 44.460938 57.445312 44.234375 57.597656 C 44.003906 57.753906 43.761719 57.882812 43.507812 57.988281 C 43.253906 58.09375 42.988281 58.171875 42.71875 58.226562 C 42.449219 58.28125 42.175781 58.308594 41.898438 58.308594 C 41.625 58.308594 41.351562 58.28125 41.082031 58.226562 C 40.808594 58.171875 40.546875 58.09375 40.292969 57.988281 C 40.039062 57.882812 39.796875 57.753906 39.566406 57.597656 C 39.335938 57.445312 39.125 57.273438 38.929688 57.078125 C 38.734375 56.882812 38.558594 56.667969 38.40625 56.441406 C 38.253906 56.210938 38.125 55.96875 38.019531 55.714844 C 37.914062 55.460938 37.832031 55.195312 37.78125 54.925781 C 37.726562 54.65625 37.699219 54.382812 37.699219 54.105469 Z M 36.300781 110.113281 L 36.300781 96.113281 C 36.300781 95.742188 36.371094 95.382812 36.511719 95.039062 C 36.652344 94.699219 36.855469 94.394531 37.121094 94.132812 C 37.382812 93.871094 37.683594 93.667969 38.027344 93.523438 C 38.371094 93.382812 38.726562 93.3125 39.097656 93.3125 L 44.699219 93.3125 L 44.699219 112.914062 L 39.097656 112.914062 C 38.726562 112.914062 38.371094 112.84375 38.027344 112.699219 C 37.683594 112.558594 37.382812 112.355469 37.121094 112.09375 C 36.855469 111.832031 36.652344 111.527344 36.511719 111.1875 C 36.371094 110.84375 36.300781 110.484375 36.300781 110.113281 Z M 137.113281 117.113281 C 137.113281 117.757812 137.082031 118.398438 137.019531 119.035156 C 136.953125 119.675781 136.859375 120.308594 136.734375 120.9375 C 136.609375 121.570312 136.453125 122.191406 136.269531 122.804688 C 136.082031 123.417969 135.867188 124.023438 135.621094 124.617188 C 135.375 125.210938 135.101562 125.789062 134.796875 126.355469 C 134.496094 126.921875 134.164062 127.472656 133.808594 128.003906 C 133.453125 128.539062 133.070312 129.054688 132.664062 129.550781 C 132.253906 130.046875 131.824219 130.523438 131.371094 130.976562 C 130.917969 131.429688 130.441406 131.859375 129.945312 132.269531 C 129.449219 132.675781 128.933594 133.058594 128.398438 133.414062 C 127.867188 133.769531 127.316406 134.101562 126.75 134.402344 C 126.183594 134.707031 125.605469 134.980469 125.011719 135.226562 C 124.417969 135.472656 123.8125 135.6875 123.199219 135.875 C 122.585938 136.058594 121.964844 136.214844 121.332031 136.339844 C 120.703125 136.464844 120.070312 136.558594 119.429688 136.621094 C 118.792969 136.6875 118.152344 136.71875 117.507812 136.71875 L 69.902344 136.71875 C 69.261719 136.71875 68.621094 136.6875 67.980469 136.621094 C 67.34375 136.558594 66.707031 136.464844 66.078125 136.339844 C 65.449219 136.214844 64.828125 136.058594 64.214844 135.875 C 63.597656 135.6875 62.996094 135.472656 62.402344 135.226562 C 61.808594 134.980469 61.230469 134.707031 60.664062 134.402344 C 60.097656 134.101562 59.546875 133.769531 59.011719 133.414062 C 58.480469 133.058594 57.964844 132.675781 57.46875 132.269531 C 56.972656 131.859375 56.496094 131.429688 56.042969 130.976562 C 55.589844 130.523438 55.15625 130.046875 54.75 129.550781 C 54.34375 129.054688 53.960938 128.539062 53.605469 128.003906 C 53.246094 127.472656 52.917969 126.921875 52.617188 126.355469 C 52.3125 125.789062 52.039062 125.210938 51.792969 124.617188 C 51.546875 124.023438 51.332031 123.417969 51.144531 122.804688 C 50.957031 122.191406 50.800781 121.570312 50.675781 120.9375 C 50.550781 120.308594 50.457031 119.675781 50.394531 119.035156 C 50.332031 118.398438 50.300781 117.757812 50.300781 117.113281 L 50.300781 89.109375 C 50.300781 88.46875 50.332031 87.828125 50.394531 87.191406 C 50.457031 86.550781 50.550781 85.917969 50.675781 85.285156 C 50.800781 84.65625 50.957031 84.035156 51.144531 83.421875 C 51.332031 82.804688 51.546875 82.203125 51.792969 81.609375 C 52.039062 81.015625 52.3125 80.4375 52.617188 79.871094 C 52.917969 79.304688 53.246094 78.753906 53.605469 78.21875 C 53.960938 77.6875 54.34375 77.171875 54.75 76.675781 C 55.15625 76.179688 55.589844 75.703125 56.042969 75.25 C 56.496094 74.796875 56.972656 74.367188 57.46875 73.957031 C 57.964844 73.550781 58.480469 73.167969 59.011719 72.8125 C 59.546875 72.457031 60.097656 72.125 60.664062 71.824219 C 61.230469 71.519531 61.808594 71.246094 62.402344 71 C 62.996094 70.753906 63.597656 70.539062 64.214844 70.351562 C 64.828125 70.167969 65.449219 70.011719 66.078125 69.886719 C 66.707031 69.761719 67.34375 69.664062 67.980469 69.601562 C 68.621094 69.539062 69.261719 69.507812 69.902344 69.507812 L 117.507812 69.507812 C 118.152344 69.507812 118.792969 69.539062 119.429688 69.601562 C 120.070312 69.664062 120.703125 69.761719 121.332031 69.886719 C 121.964844 70.011719 122.585938 70.167969 123.199219 70.351562 C 123.8125 70.539062 124.417969 70.753906 125.011719 71 C 125.605469 71.246094 126.183594 71.519531 126.75 71.824219 C 127.316406 72.125 127.867188 72.457031 128.398438 72.8125 C 128.933594 73.167969 129.449219 73.550781 129.945312 73.957031 C 130.441406 74.367188 130.917969 74.796875 131.371094 75.25 C 131.824219 75.703125 132.253906 76.179688 132.664062 76.675781 C 133.070312 77.171875 133.453125 77.6875 133.808594 78.21875 C 134.164062 78.753906 134.496094 79.304688 134.796875 79.871094 C 135.101562 80.4375 135.375 81.015625 135.621094 81.609375 C 135.867188 82.203125 136.082031 82.804688 136.269531 83.421875 C 136.453125 84.035156 136.609375 84.65625 136.734375 85.285156 C 136.859375 85.917969 136.953125 86.550781 137.019531 87.191406 C 137.082031 87.828125 137.113281 88.46875 137.113281 89.109375 Z M 151.113281 110.113281 C 151.113281 110.484375 151.042969 110.84375 150.902344 111.1875 C 150.757812 111.527344 150.554688 111.832031 150.292969 112.09375 C 150.03125 112.355469 149.726562 112.558594 149.386719 112.699219 C 149.042969 112.84375 148.683594 112.914062 148.3125 112.914062 L 142.710938 112.914062 L 142.710938 93.3125 L 148.3125 93.3125 C 148.683594 93.3125 149.042969 93.382812 149.386719 93.523438 C 149.726562 93.667969 150.03125 93.871094 150.292969 94.132812 C 150.554688 94.394531 150.757812 94.699219 150.902344 95.039062 C 151.042969 95.382812 151.113281 95.742188 151.113281 96.113281 Z M 151.113281 110.113281 " fill-opacity="1" fill-rule="nonzero"/></g><path fill="#005b9f" d="M 110.507812 86.3125 C 109.863281 86.3125 109.226562 86.375 108.597656 86.5 C 107.964844 86.625 107.351562 86.8125 106.757812 87.058594 C 106.164062 87.304688 105.597656 87.605469 105.0625 87.960938 C 104.527344 88.320312 104.03125 88.726562 103.578125 89.179688 C 103.121094 89.636719 102.714844 90.132812 102.359375 90.667969 C 102 91.203125 101.699219 91.765625 101.453125 92.363281 C 101.207031 92.957031 101.019531 93.570312 100.894531 94.199219 C 100.769531 94.832031 100.707031 95.46875 100.707031 96.113281 C 100.707031 96.753906 100.769531 97.394531 100.894531 98.023438 C 101.019531 98.65625 101.207031 99.269531 101.453125 99.863281 C 101.699219 100.457031 102 101.023438 102.359375 101.558594 C 102.714844 102.09375 103.121094 102.585938 103.578125 103.042969 C 104.03125 103.496094 104.527344 103.902344 105.0625 104.261719 C 105.597656 104.617188 106.164062 104.921875 106.757812 105.167969 C 107.351562 105.414062 107.964844 105.597656 108.597656 105.726562 C 109.226562 105.851562 109.863281 105.914062 110.507812 105.914062 C 111.152344 105.914062 111.789062 105.851562 112.421875 105.726562 C 113.050781 105.597656 113.664062 105.414062 114.257812 105.167969 C 114.855469 104.921875 115.417969 104.617188 115.953125 104.261719 C 116.488281 103.902344 116.984375 103.496094 117.4375 103.042969 C 117.894531 102.585938 118.300781 102.09375 118.65625 101.558594 C 119.015625 101.023438 119.316406 100.457031 119.5625 99.863281 C 119.808594 99.269531 119.996094 98.65625 120.121094 98.023438 C 120.246094 97.394531 120.308594 96.753906 120.308594 96.113281 C 120.308594 95.46875 120.246094 94.832031 120.121094 94.199219 C 119.996094 93.570312 119.808594 92.957031 119.5625 92.363281 C 119.316406 91.765625 119.015625 91.203125 118.65625 90.667969 C 118.300781 90.132812 117.894531 89.636719 117.4375 89.179688 C 116.984375 88.726562 116.488281 88.320312 115.953125 87.960938 C 115.417969 87.605469 114.855469 87.304688 114.257812 87.058594 C 113.664062 86.8125 113.050781 86.625 112.421875 86.5 C 111.789062 86.375 111.152344 86.3125 110.507812 86.3125 Z M 110.507812 100.3125 C 110.234375 100.3125 109.960938 100.285156 109.6875 100.230469 C 109.417969 100.179688 109.15625 100.097656 108.902344 99.992188 C 108.644531 99.886719 108.402344 99.757812 108.175781 99.605469 C 107.945312 99.453125 107.734375 99.277344 107.539062 99.082031 C 107.34375 98.886719 107.167969 98.675781 107.015625 98.445312 C 106.863281 98.214844 106.734375 97.972656 106.628906 97.71875 C 106.523438 97.464844 106.441406 97.203125 106.390625 96.929688 C 106.335938 96.660156 106.308594 96.386719 106.308594 96.113281 C 106.308594 95.835938 106.335938 95.5625 106.390625 95.292969 C 106.441406 95.023438 106.523438 94.757812 106.628906 94.503906 C 106.734375 94.25 106.863281 94.007812 107.015625 93.777344 C 107.167969 93.550781 107.34375 93.335938 107.539062 93.140625 C 107.734375 92.945312 107.945312 92.773438 108.175781 92.621094 C 108.402344 92.464844 108.644531 92.335938 108.902344 92.230469 C 109.15625 92.125 109.417969 92.046875 109.6875 91.992188 C 109.960938 91.9375 110.234375 91.910156 110.507812 91.910156 C 110.785156 91.910156 111.058594 91.9375 111.328125 91.992188 C 111.597656 92.046875 111.859375 92.125 112.117188 92.230469 C 112.371094 92.335938 112.613281 92.464844 112.84375 92.621094 C 113.070312 92.773438 113.285156 92.945312 113.480469 93.140625 C 113.675781 93.335938 113.847656 93.550781 114 93.777344 C 114.15625 94.007812 114.285156 94.25 114.390625 94.503906 C 114.496094 94.757812 114.574219 95.023438 114.628906 95.292969 C 114.683594 95.5625 114.710938 95.835938 114.710938 96.113281 C 114.710938 96.386719 114.683594 96.660156 114.628906 96.929688 C 114.574219 97.203125 114.496094 97.464844 114.390625 97.71875 C 114.285156 97.972656 114.15625 98.214844 114 98.445312 C 113.847656 98.675781 113.675781 98.886719 113.480469 99.082031 C 113.285156 99.277344 113.070312 99.453125 112.84375 99.605469 C 112.613281 99.757812 112.371094 99.886719 112.117188 99.992188 C 111.859375 100.097656 111.597656 100.179688 111.328125 100.230469 C 111.058594 100.285156 110.785156 100.3125 110.507812 100.3125 Z M 110.507812 100.3125 " fill-opacity="1" fill-rule="nonzero"/><path fill="#005b9f" d="M 86.707031 96.113281 C 86.707031 95.46875 86.644531 94.832031 86.515625 94.199219 C 86.390625 93.570312 86.207031 92.957031 85.960938 92.363281 C 85.714844 91.765625 85.410156 91.203125 85.054688 90.667969 C 84.695312 90.132812 84.289062 89.636719 83.835938 89.179688 C 83.378906 88.726562 82.882812 88.320312 82.347656 87.960938 C 81.816406 87.605469 81.25 87.304688 80.65625 87.058594 C 80.058594 86.8125 79.449219 86.625 78.816406 86.5 C 78.183594 86.375 77.546875 86.3125 76.902344 86.3125 C 76.261719 86.3125 75.625 86.375 74.992188 86.5 C 74.359375 86.625 73.746094 86.8125 73.152344 87.058594 C 72.558594 87.304688 71.992188 87.605469 71.457031 87.960938 C 70.925781 88.320312 70.429688 88.726562 69.972656 89.179688 C 69.519531 89.636719 69.113281 90.132812 68.753906 90.667969 C 68.398438 91.203125 68.09375 91.765625 67.847656 92.363281 C 67.601562 92.957031 67.417969 93.570312 67.292969 94.199219 C 67.164062 94.832031 67.101562 95.46875 67.101562 96.113281 C 67.101562 96.753906 67.164062 97.394531 67.292969 98.023438 C 67.417969 98.65625 67.601562 99.269531 67.847656 99.863281 C 68.09375 100.457031 68.398438 101.023438 68.753906 101.558594 C 69.113281 102.09375 69.519531 102.585938 69.972656 103.042969 C 70.429688 103.496094 70.925781 103.902344 71.457031 104.261719 C 71.992188 104.617188 72.558594 104.921875 73.152344 105.167969 C 73.746094 105.414062 74.359375 105.597656 74.992188 105.726562 C 75.625 105.851562 76.261719 105.914062 76.902344 105.914062 C 77.546875 105.914062 78.183594 105.851562 78.816406 105.726562 C 79.449219 105.597656 80.058594 105.414062 80.65625 105.167969 C 81.25 104.921875 81.816406 104.617188 82.347656 104.261719 C 82.882812 103.902344 83.378906 103.496094 83.835938 103.042969 C 84.289062 102.585938 84.695312 102.09375 85.054688 101.558594 C 85.410156 101.023438 85.714844 100.457031 85.960938 99.863281 C 86.207031 99.269531 86.390625 98.65625 86.515625 98.023438 C 86.644531 97.394531 86.707031 96.753906 86.707031 96.113281 Z M 72.703125 96.113281 C 72.703125 95.835938 72.730469 95.5625 72.785156 95.292969 C 72.839844 95.023438 72.917969 94.757812 73.023438 94.503906 C 73.128906 94.25 73.257812 94.007812 73.410156 93.777344 C 73.566406 93.550781 73.738281 93.335938 73.933594 93.140625 C 74.128906 92.945312 74.339844 92.773438 74.570312 92.621094 C 74.800781 92.464844 75.042969 92.335938 75.296875 92.230469 C 75.550781 92.125 75.8125 92.046875 76.085938 91.992188 C 76.355469 91.9375 76.628906 91.910156 76.902344 91.910156 C 77.179688 91.910156 77.453125 91.9375 77.722656 91.992188 C 77.996094 92.046875 78.257812 92.125 78.511719 92.230469 C 78.765625 92.335938 79.007812 92.464844 79.238281 92.621094 C 79.46875 92.773438 79.679688 92.945312 79.875 93.140625 C 80.070312 93.335938 80.242188 93.550781 80.398438 93.777344 C 80.550781 94.007812 80.679688 94.25 80.785156 94.503906 C 80.890625 94.757812 80.96875 95.023438 81.023438 95.292969 C 81.078125 95.5625 81.105469 95.835938 81.105469 96.113281 C 81.105469 96.386719 81.078125 96.660156 81.023438 96.929688 C 80.96875 97.203125 80.890625 97.464844 80.785156 97.71875 C 80.679688 97.972656 80.550781 98.214844 80.398438 98.445312 C 80.242188 98.675781 80.070312 98.886719 79.875 99.082031 C 79.679688 99.277344 79.46875 99.453125 79.238281 99.605469 C 79.007812 99.757812 78.765625 99.886719 78.511719 99.992188 C 78.257812 100.097656 77.996094 100.179688 77.722656 100.230469 C 77.453125 100.285156 77.179688 100.3125 76.902344 100.3125 C 76.628906 100.3125 76.355469 100.285156 76.085938 100.230469 C 75.8125 100.179688 75.550781 100.097656 75.296875 99.992188 C 75.042969 99.886719 74.800781 99.757812 74.570312 99.605469 C 74.339844 99.453125 74.128906 99.277344 73.933594 99.082031 C 73.738281 98.886719 73.566406 98.675781 73.410156 98.445312 C 73.257812 98.214844 73.128906 97.972656 73.023438 97.71875 C 72.917969 97.464844 72.839844 97.203125 72.785156 96.929688 C 72.730469 96.660156 72.703125 96.386719 72.703125 96.113281 Z M 72.703125 96.113281 " fill-opacity="1" fill-rule="nonzero"/><path fill="#005b9f" d="M 111.753906 114.609375 C 111.421875 114.445312 111.070312 114.347656 110.699219 114.324219 C 110.332031 114.296875 109.96875 114.34375 109.617188 114.460938 C 109.265625 114.582031 108.949219 114.761719 108.671875 115.003906 C 108.390625 115.25 108.167969 115.535156 108.003906 115.867188 C 107.699219 116.476562 107.320312 117.035156 106.859375 117.535156 C 106.402344 118.039062 105.882812 118.46875 105.304688 118.828125 C 104.722656 119.183594 104.109375 119.457031 103.453125 119.640625 C 102.796875 119.824219 102.128906 119.917969 101.449219 119.914062 L 85.964844 119.914062 C 85.28125 119.917969 84.617188 119.824219 83.960938 119.640625 C 83.304688 119.457031 82.6875 119.183594 82.109375 118.828125 C 81.53125 118.46875 81.011719 118.039062 80.554688 117.535156 C 80.09375 117.035156 79.714844 116.476562 79.410156 115.867188 C 79.238281 115.546875 79.011719 115.269531 78.734375 115.039062 C 78.453125 114.804688 78.140625 114.632812 77.792969 114.523438 C 77.445312 114.414062 77.089844 114.371094 76.730469 114.398438 C 76.367188 114.425781 76.023438 114.523438 75.695312 114.683594 C 75.371094 114.847656 75.085938 115.0625 74.84375 115.335938 C 74.605469 115.609375 74.421875 115.917969 74.300781 116.261719 C 74.179688 116.601562 74.128906 116.957031 74.144531 117.320312 C 74.160156 117.683594 74.246094 118.03125 74.398438 118.359375 C 74.929688 119.4375 75.601562 120.421875 76.410156 121.308594 C 77.21875 122.199219 78.136719 122.957031 79.160156 123.589844 C 80.179688 124.222656 81.269531 124.703125 82.425781 125.03125 C 83.582031 125.355469 84.761719 125.519531 85.964844 125.515625 L 101.449219 125.515625 C 102.652344 125.519531 103.832031 125.355469 104.988281 125.03125 C 106.144531 124.703125 107.234375 124.222656 108.253906 123.589844 C 109.277344 122.957031 110.191406 122.199219 111 121.308594 C 111.808594 120.421875 112.480469 119.4375 113.015625 118.359375 C 113.179688 118.027344 113.273438 117.675781 113.300781 117.308594 C 113.324219 116.9375 113.28125 116.574219 113.160156 116.222656 C 113.042969 115.871094 112.863281 115.554688 112.617188 115.277344 C 112.375 114.996094 112.085938 114.773438 111.753906 114.609375 Z M 111.753906 114.609375 " fill-opacity="1" fill-rule="nonzero"/></svg>