<svg xmlns="http://www.w3.org/2000/svg" xmlns:xlink="http://www.w3.org/1999/xlink" width="250" zoomAndPan="magnify" viewBox="0 0 187.5 187.499992" height="250" preserveAspectRatio="xMidYMid meet" version="1.0"><defs><clipPath id="13ea691a10"><path d="M 7.890625 26.9375 L 179.183594 26.9375 L 179.183594 160.085938 L 7.890625 160.085938 Z M 7.890625 26.9375 " clip-rule="nonzero"/></clipPath></defs><g clip-path="url(#13ea691a10)"><path fill="#005b9f" d="M 167.664062 85.894531 L 167.664062 53.011719 C 168.171875 52.859375 168.664062 52.679688 169.148438 52.472656 C 169.632812 52.261719 170.105469 52.023438 170.5625 51.757812 C 171.015625 51.492188 171.457031 51.199219 171.878906 50.882812 C 172.300781 50.566406 172.699219 50.222656 173.082031 49.855469 C 173.460938 49.492188 173.820312 49.105469 174.152344 48.695312 C 174.488281 48.289062 174.796875 47.863281 175.082031 47.417969 C 175.367188 46.972656 175.621094 46.511719 175.851562 46.035156 C 176.082031 45.5625 176.28125 45.074219 176.453125 44.574219 C 176.625 44.074219 176.765625 43.566406 176.875 43.050781 C 176.988281 42.535156 177.066406 42.015625 177.117188 41.488281 C 177.164062 40.960938 177.183594 40.4375 177.167969 39.90625 C 177.15625 39.378906 177.109375 38.855469 177.035156 38.332031 C 176.957031 37.8125 176.851562 37.292969 176.714844 36.785156 C 176.574219 36.273438 176.40625 35.777344 176.210938 35.285156 C 176.015625 34.796875 175.789062 34.320312 175.535156 33.855469 C 175.28125 33.394531 175 32.949219 174.695312 32.519531 C 174.386719 32.089844 174.054688 31.679688 173.699219 31.289062 C 173.34375 30.898438 172.96875 30.53125 172.566406 30.183594 C 172.167969 29.839844 171.75 29.519531 171.3125 29.222656 C 170.875 28.929688 170.421875 28.660156 169.953125 28.417969 C 169.484375 28.175781 169 27.964844 168.507812 27.78125 C 168.011719 27.59375 167.507812 27.441406 166.996094 27.316406 C 166.480469 27.191406 165.964844 27.097656 165.4375 27.035156 C 164.914062 26.972656 164.390625 26.941406 163.859375 26.941406 C 163.332031 26.941406 162.808594 26.972656 162.28125 27.035156 C 161.757812 27.097656 161.238281 27.191406 160.726562 27.316406 C 160.214844 27.441406 159.710938 27.59375 159.214844 27.78125 C 158.71875 27.964844 158.238281 28.175781 157.769531 28.417969 C 157.300781 28.660156 156.847656 28.929688 156.410156 29.222656 C 155.972656 29.519531 155.554688 29.839844 155.152344 30.183594 C 154.753906 30.53125 154.378906 30.898438 154.023438 31.289062 C 153.664062 31.679688 153.335938 32.089844 153.027344 32.519531 C 152.722656 32.949219 152.441406 33.394531 152.1875 33.855469 C 151.933594 34.320312 151.707031 34.796875 151.511719 35.285156 C 151.3125 35.777344 151.148438 36.273438 151.007812 36.785156 C 150.871094 37.292969 150.765625 37.8125 150.6875 38.332031 C 150.613281 38.855469 150.566406 39.378906 150.554688 39.90625 C 150.539062 40.4375 150.558594 40.960938 150.605469 41.488281 C 150.65625 42.015625 150.734375 42.535156 150.847656 43.050781 C 150.957031 43.566406 151.097656 44.074219 151.269531 44.574219 C 151.441406 45.074219 151.640625 45.5625 151.871094 46.035156 C 152.097656 46.511719 152.355469 46.972656 152.640625 47.417969 C 152.921875 47.863281 153.234375 48.289062 153.566406 48.695312 C 153.902344 49.105469 154.261719 49.492188 154.640625 49.855469 C 155.023438 50.222656 155.421875 50.566406 155.84375 50.882812 C 156.265625 51.199219 156.703125 51.492188 157.160156 51.757812 C 157.617188 52.023438 158.085938 52.261719 158.570312 52.472656 C 159.054688 52.679688 159.550781 52.859375 160.058594 53.011719 L 160.058594 85.894531 C 159.996094 84.8125 159.886719 83.738281 159.722656 82.667969 C 159.5625 81.597656 159.347656 80.535156 159.085938 79.484375 C 158.824219 78.4375 158.511719 77.402344 158.152344 76.378906 C 157.789062 75.359375 157.382812 74.359375 156.925781 73.375 C 156.46875 72.394531 155.96875 71.4375 155.421875 70.503906 C 154.875 69.566406 154.285156 68.660156 153.652344 67.785156 C 153.019531 66.90625 152.347656 66.058594 151.632812 65.246094 C 150.921875 64.429688 150.171875 63.652344 149.382812 62.90625 C 148.597656 62.164062 147.777344 61.460938 146.921875 60.796875 C 146.066406 60.128906 145.183594 59.507812 144.273438 58.925781 C 143.359375 58.34375 142.421875 57.804688 141.457031 57.3125 C 140.492188 56.820312 139.507812 56.375 138.5 55.976562 C 137.496094 55.578125 136.472656 55.226562 135.433594 54.921875 C 134.394531 54.621094 133.34375 54.371094 132.277344 54.167969 C 131.214844 53.964844 130.144531 53.8125 129.066406 53.710938 C 127.988281 53.613281 126.910156 53.5625 125.828125 53.5625 L 61.167969 53.5625 C 60.085938 53.566406 59.007812 53.617188 57.933594 53.71875 C 56.859375 53.824219 55.789062 53.976562 54.726562 54.183594 C 53.667969 54.386719 52.617188 54.640625 51.582031 54.945312 C 50.542969 55.25 49.523438 55.601562 48.519531 56.003906 C 47.515625 56.402344 46.535156 56.847656 45.574219 57.34375 C 44.613281 57.835938 43.675781 58.375 42.765625 58.957031 C 41.855469 59.539062 40.976562 60.164062 40.125 60.828125 C 39.273438 61.492188 38.457031 62.199219 37.671875 62.941406 C 36.886719 63.683594 36.140625 64.460938 35.429688 65.277344 C 34.71875 66.089844 34.046875 66.933594 33.414062 67.8125 C 32.785156 68.691406 32.195312 69.59375 31.652344 70.527344 C 31.105469 71.460938 30.605469 72.417969 30.152344 73.398438 C 29.699219 74.378906 29.292969 75.378906 28.929688 76.398438 C 28.570312 77.414062 28.261719 78.449219 28 79.496094 C 27.738281 80.546875 27.523438 81.605469 27.363281 82.671875 C 27.203125 83.742188 27.089844 84.8125 27.03125 85.894531 L 26.9375 85.894531 L 26.9375 53.011719 C 27.441406 52.859375 27.9375 52.679688 28.421875 52.472656 C 28.90625 52.261719 29.375 52.023438 29.832031 51.757812 C 30.289062 51.492188 30.726562 51.199219 31.148438 50.882812 C 31.570312 50.566406 31.972656 50.222656 32.351562 49.855469 C 32.734375 49.492188 33.089844 49.105469 33.425781 48.695312 C 33.761719 48.289062 34.070312 47.863281 34.355469 47.417969 C 34.636719 46.972656 34.894531 46.511719 35.125 46.035156 C 35.351562 45.5625 35.554688 45.074219 35.722656 44.574219 C 35.894531 44.074219 36.035156 43.566406 36.148438 43.050781 C 36.257812 42.535156 36.339844 42.015625 36.386719 41.488281 C 36.4375 40.960938 36.453125 40.4375 36.441406 39.90625 C 36.425781 39.378906 36.382812 38.855469 36.304688 38.332031 C 36.230469 37.8125 36.121094 37.292969 35.984375 36.785156 C 35.847656 36.273438 35.679688 35.777344 35.484375 35.285156 C 35.285156 34.796875 35.058594 34.320312 34.804688 33.855469 C 34.550781 33.394531 34.273438 32.949219 33.964844 32.519531 C 33.660156 32.089844 33.328125 31.679688 32.972656 31.289062 C 32.617188 30.898438 32.238281 30.53125 31.839844 30.183594 C 31.441406 29.839844 31.023438 29.519531 30.585938 29.222656 C 30.148438 28.929688 29.695312 28.660156 29.222656 28.417969 C 28.753906 28.175781 28.273438 27.964844 27.777344 27.78125 C 27.285156 27.59375 26.78125 27.441406 26.265625 27.316406 C 25.753906 27.191406 25.234375 27.097656 24.710938 27.035156 C 24.1875 26.972656 23.660156 26.941406 23.132812 26.941406 C 22.605469 26.941406 22.078125 26.972656 21.554688 27.035156 C 21.03125 27.097656 20.511719 27.191406 20 27.316406 C 19.484375 27.441406 18.980469 27.59375 18.488281 27.78125 C 17.992188 27.964844 17.511719 28.175781 17.039062 28.417969 C 16.570312 28.660156 16.117188 28.929688 15.679688 29.222656 C 15.242188 29.519531 14.824219 29.839844 14.425781 30.183594 C 14.027344 30.53125 13.648438 30.898438 13.292969 31.289062 C 12.9375 31.679688 12.605469 32.089844 12.300781 32.519531 C 11.992188 32.949219 11.710938 33.394531 11.457031 33.855469 C 11.203125 34.320312 10.980469 34.796875 10.78125 35.285156 C 10.585938 35.777344 10.417969 36.273438 10.28125 36.785156 C 10.144531 37.292969 10.035156 37.8125 9.960938 38.332031 C 9.882812 38.855469 9.839844 39.378906 9.824219 39.90625 C 9.8125 40.4375 9.828125 40.960938 9.878906 41.488281 C 9.925781 42.015625 10.007812 42.535156 10.117188 43.050781 C 10.226562 43.566406 10.371094 44.074219 10.539062 44.574219 C 10.710938 45.074219 10.910156 45.5625 11.140625 46.035156 C 11.371094 46.511719 11.628906 46.972656 11.910156 47.417969 C 12.195312 47.863281 12.503906 48.289062 12.839844 48.695312 C 13.175781 49.105469 13.53125 49.492188 13.914062 49.855469 C 14.292969 50.222656 14.695312 50.566406 15.117188 50.882812 C 15.539062 51.199219 15.976562 51.492188 16.433594 51.757812 C 16.890625 52.023438 17.359375 52.261719 17.84375 52.472656 C 18.328125 52.679688 18.824219 52.859375 19.328125 53.011719 L 19.328125 85.894531 C 18.578125 85.894531 17.835938 85.964844 17.101562 86.113281 C 16.367188 86.257812 15.65625 86.476562 14.960938 86.761719 C 14.269531 87.046875 13.613281 87.398438 12.988281 87.816406 C 12.367188 88.230469 11.789062 88.707031 11.261719 89.234375 C 10.730469 89.765625 10.257812 90.339844 9.839844 90.964844 C 9.425781 91.585938 9.074219 92.246094 8.789062 92.9375 C 8.5 93.628906 8.285156 94.34375 8.136719 95.078125 C 7.992188 95.8125 7.917969 96.554688 7.917969 97.304688 L 7.917969 116.320312 C 7.917969 117.070312 7.992188 117.8125 8.136719 118.546875 C 8.285156 119.28125 8.5 119.996094 8.789062 120.6875 C 9.074219 121.378906 9.425781 122.039062 9.839844 122.660156 C 10.257812 123.28125 10.730469 123.859375 11.261719 124.390625 C 11.789062 124.917969 12.367188 125.390625 12.988281 125.808594 C 13.613281 126.222656 14.269531 126.574219 14.960938 126.863281 C 15.65625 127.148438 16.367188 127.367188 17.101562 127.511719 C 17.835938 127.65625 18.578125 127.730469 19.328125 127.730469 L 27.03125 127.730469 C 27.089844 128.808594 27.203125 129.882812 27.363281 130.953125 C 27.523438 132.019531 27.738281 133.078125 28 134.125 C 28.261719 135.175781 28.570312 136.207031 28.929688 137.226562 C 29.292969 138.246094 29.699219 139.246094 30.152344 140.226562 C 30.605469 141.207031 31.105469 142.164062 31.652344 143.097656 C 32.195312 144.027344 32.785156 144.933594 33.414062 145.8125 C 34.046875 146.6875 34.71875 147.535156 35.429688 148.347656 C 36.140625 149.160156 36.886719 149.941406 37.671875 150.683594 C 38.457031 151.425781 39.273438 152.128906 40.125 152.796875 C 40.976562 153.460938 41.855469 154.085938 42.765625 154.667969 C 43.675781 155.25 44.613281 155.789062 45.574219 156.28125 C 46.535156 156.773438 47.515625 157.222656 48.519531 157.621094 C 49.523438 158.023438 50.542969 158.375 51.582031 158.679688 C 52.617188 158.984375 53.667969 159.238281 54.726562 159.441406 C 55.789062 159.644531 56.859375 159.800781 57.933594 159.902344 C 59.007812 160.007812 60.085938 160.058594 61.167969 160.0625 L 125.828125 160.0625 C 126.910156 160.0625 127.988281 160.011719 129.066406 159.910156 C 130.144531 159.8125 131.214844 159.660156 132.277344 159.457031 C 133.34375 159.253906 134.394531 159.003906 135.433594 158.699219 C 136.472656 158.398438 137.496094 158.046875 138.5 157.648438 C 139.507812 157.25 140.492188 156.804688 141.457031 156.3125 C 142.421875 155.820312 143.359375 155.28125 144.273438 154.699219 C 145.183594 154.117188 146.066406 153.496094 146.921875 152.828125 C 147.777344 152.164062 148.597656 151.460938 149.382812 150.714844 C 150.171875 149.972656 150.921875 149.195312 151.632812 148.378906 C 152.347656 147.566406 153.019531 146.71875 153.652344 145.839844 C 154.285156 144.960938 154.875 144.054688 155.421875 143.121094 C 155.96875 142.1875 156.46875 141.230469 156.925781 140.246094 C 157.382812 139.265625 157.789062 138.265625 158.152344 137.246094 C 158.511719 136.222656 158.824219 135.1875 159.085938 134.136719 C 159.347656 133.089844 159.5625 132.027344 159.722656 130.957031 C 159.886719 129.886719 159.996094 128.8125 160.058594 127.730469 L 167.664062 127.730469 C 168.414062 127.730469 169.15625 127.65625 169.890625 127.511719 C 170.625 127.367188 171.339844 127.148438 172.03125 126.863281 C 172.722656 126.574219 173.378906 126.222656 174.003906 125.808594 C 174.625 125.390625 175.203125 124.917969 175.734375 124.390625 C 176.261719 123.859375 176.734375 123.28125 177.152344 122.660156 C 177.566406 122.039062 177.917969 121.378906 178.207031 120.6875 C 178.492188 119.996094 178.710938 119.28125 178.855469 118.546875 C 179 117.8125 179.074219 117.070312 179.074219 116.320312 L 179.074219 97.304688 C 179.074219 96.554688 179 95.8125 178.855469 95.078125 C 178.710938 94.34375 178.492188 93.628906 178.207031 92.9375 C 177.917969 92.246094 177.566406 91.585938 177.152344 90.964844 C 176.734375 90.339844 176.261719 89.765625 175.734375 89.234375 C 175.203125 88.707031 174.625 88.230469 174.003906 87.816406 C 173.378906 87.398438 172.722656 87.046875 172.03125 86.761719 C 171.339844 86.476562 170.625 86.257812 169.890625 86.113281 C 169.15625 85.964844 168.414062 85.894531 167.664062 85.894531 Z M 158.15625 40.25 C 158.15625 39.875 158.191406 39.503906 158.265625 39.136719 C 158.339844 38.769531 158.445312 38.414062 158.589844 38.066406 C 158.734375 37.722656 158.910156 37.394531 159.117188 37.082031 C 159.324219 36.769531 159.5625 36.480469 159.828125 36.21875 C 160.089844 35.953125 160.378906 35.714844 160.691406 35.507812 C 161.003906 35.300781 161.332031 35.125 161.679688 34.980469 C 162.023438 34.835938 162.378906 34.730469 162.746094 34.65625 C 163.117188 34.582031 163.488281 34.546875 163.859375 34.546875 C 164.234375 34.546875 164.605469 34.582031 164.972656 34.65625 C 165.339844 34.730469 165.699219 34.835938 166.042969 34.980469 C 166.390625 35.125 166.71875 35.300781 167.03125 35.507812 C 167.34375 35.714844 167.628906 35.953125 167.894531 36.21875 C 168.160156 36.480469 168.398438 36.769531 168.605469 37.082031 C 168.8125 37.394531 168.988281 37.722656 169.132812 38.066406 C 169.273438 38.414062 169.382812 38.769531 169.457031 39.136719 C 169.53125 39.503906 169.566406 39.875 169.566406 40.25 C 169.566406 40.625 169.53125 40.996094 169.457031 41.363281 C 169.382812 41.730469 169.273438 42.089844 169.132812 42.433594 C 168.988281 42.78125 168.8125 43.109375 168.605469 43.421875 C 168.398438 43.734375 168.160156 44.019531 167.894531 44.285156 C 167.628906 44.550781 167.34375 44.785156 167.03125 44.996094 C 166.71875 45.203125 166.390625 45.378906 166.042969 45.523438 C 165.699219 45.664062 165.339844 45.773438 164.972656 45.847656 C 164.605469 45.921875 164.234375 45.957031 163.859375 45.957031 C 163.488281 45.957031 163.117188 45.921875 162.746094 45.847656 C 162.378906 45.773438 162.023438 45.664062 161.679688 45.523438 C 161.332031 45.378906 161.003906 45.203125 160.691406 44.996094 C 160.378906 44.785156 160.089844 44.550781 159.828125 44.285156 C 159.5625 44.019531 159.324219 43.734375 159.117188 43.421875 C 158.910156 43.109375 158.734375 42.78125 158.589844 42.433594 C 158.445312 42.089844 158.339844 41.730469 158.265625 41.363281 C 158.191406 40.996094 158.15625 40.625 158.15625 40.25 Z M 17.425781 40.25 C 17.425781 39.875 17.464844 39.503906 17.535156 39.136719 C 17.609375 38.769531 17.71875 38.414062 17.863281 38.066406 C 18.003906 37.722656 18.179688 37.394531 18.390625 37.082031 C 18.597656 36.769531 18.832031 36.480469 19.097656 36.21875 C 19.363281 35.953125 19.652344 35.714844 19.964844 35.507812 C 20.273438 35.300781 20.601562 35.125 20.949219 34.980469 C 21.296875 34.835938 21.652344 34.730469 22.019531 34.65625 C 22.386719 34.582031 22.757812 34.546875 23.132812 34.546875 C 23.507812 34.546875 23.878906 34.582031 24.246094 34.65625 C 24.613281 34.730469 24.96875 34.835938 25.316406 34.980469 C 25.660156 35.125 25.992188 35.300781 26.300781 35.507812 C 26.613281 35.714844 26.902344 35.953125 27.167969 36.21875 C 27.429688 36.480469 27.667969 36.769531 27.875 37.082031 C 28.085938 37.394531 28.261719 37.722656 28.402344 38.066406 C 28.546875 38.414062 28.65625 38.769531 28.726562 39.136719 C 28.800781 39.503906 28.835938 39.875 28.835938 40.25 C 28.835938 40.625 28.800781 40.996094 28.726562 41.363281 C 28.65625 41.730469 28.546875 42.089844 28.402344 42.433594 C 28.261719 42.78125 28.085938 43.109375 27.875 43.421875 C 27.667969 43.734375 27.429688 44.019531 27.167969 44.285156 C 26.902344 44.550781 26.613281 44.785156 26.300781 44.996094 C 25.992188 45.203125 25.660156 45.378906 25.316406 45.523438 C 24.96875 45.664062 24.613281 45.773438 24.246094 45.847656 C 23.878906 45.921875 23.507812 45.957031 23.132812 45.957031 C 22.757812 45.957031 22.386719 45.921875 22.019531 45.847656 C 21.652344 45.773438 21.296875 45.664062 20.949219 45.523438 C 20.601562 45.378906 20.273438 45.203125 19.964844 44.996094 C 19.652344 44.785156 19.363281 44.550781 19.097656 44.285156 C 18.832031 44.019531 18.597656 43.734375 18.390625 43.421875 C 18.179688 43.109375 18.003906 42.78125 17.863281 42.433594 C 17.71875 42.089844 17.609375 41.730469 17.535156 41.363281 C 17.464844 40.996094 17.425781 40.625 17.425781 40.25 Z M 15.527344 116.320312 L 15.527344 97.304688 C 15.527344 96.800781 15.621094 96.3125 15.816406 95.847656 C 16.007812 95.382812 16.28125 94.96875 16.640625 94.613281 C 16.996094 94.257812 17.40625 93.984375 17.875 93.789062 C 18.339844 93.597656 18.824219 93.5 19.328125 93.5 L 26.9375 93.5 L 26.9375 120.125 L 19.328125 120.125 C 18.824219 120.125 18.339844 120.027344 17.875 119.835938 C 17.40625 119.640625 16.996094 119.367188 16.640625 119.011719 C 16.28125 118.652344 16.007812 118.242188 15.816406 117.777344 C 15.621094 117.308594 15.527344 116.824219 15.527344 116.320312 Z M 152.449219 125.828125 C 152.449219 126.703125 152.40625 127.570312 152.324219 128.4375 C 152.238281 129.308594 152.109375 130.167969 151.9375 131.023438 C 151.769531 131.878906 151.558594 132.722656 151.304688 133.558594 C 151.050781 134.390625 150.757812 135.210938 150.425781 136.019531 C 150.089844 136.824219 149.71875 137.609375 149.308594 138.378906 C 148.894531 139.148438 148.449219 139.894531 147.964844 140.621094 C 147.480469 141.347656 146.960938 142.046875 146.40625 142.71875 C 145.855469 143.394531 145.269531 144.039062 144.652344 144.65625 C 144.035156 145.273438 143.390625 145.855469 142.714844 146.410156 C 142.042969 146.964844 141.34375 147.480469 140.617188 147.96875 C 139.894531 148.453125 139.144531 148.898438 138.375 149.308594 C 137.609375 149.722656 136.820312 150.09375 136.015625 150.425781 C 135.210938 150.761719 134.390625 151.054688 133.554688 151.308594 C 132.71875 151.558594 131.875 151.773438 131.019531 151.941406 C 130.164062 152.113281 129.304688 152.238281 128.4375 152.324219 C 127.566406 152.410156 126.699219 152.453125 125.828125 152.453125 L 61.167969 152.453125 C 60.296875 152.453125 59.425781 152.410156 58.558594 152.324219 C 57.691406 152.238281 56.828125 152.113281 55.972656 151.941406 C 55.117188 151.773438 54.273438 151.558594 53.4375 151.308594 C 52.605469 151.054688 51.785156 150.761719 50.980469 150.425781 C 50.171875 150.09375 49.386719 149.722656 48.617188 149.308594 C 47.847656 148.898438 47.101562 148.453125 46.375 147.96875 C 45.652344 147.480469 44.949219 146.964844 44.277344 146.410156 C 43.601562 145.855469 42.957031 145.273438 42.339844 144.65625 C 41.722656 144.039062 41.140625 143.394531 40.585938 142.71875 C 40.035156 142.046875 39.515625 141.347656 39.03125 140.621094 C 38.546875 139.894531 38.097656 139.148438 37.6875 138.378906 C 37.277344 137.609375 36.902344 136.824219 36.570312 136.019531 C 36.234375 135.210938 35.941406 134.390625 35.6875 133.558594 C 35.4375 132.722656 35.226562 131.878906 35.054688 131.023438 C 34.882812 130.167969 34.757812 129.308594 34.671875 128.4375 C 34.585938 127.570312 34.542969 126.703125 34.542969 125.828125 L 34.542969 87.792969 C 34.542969 86.921875 34.585938 86.054688 34.671875 85.183594 C 34.757812 84.316406 34.882812 83.457031 35.054688 82.601562 C 35.226562 81.746094 35.4375 80.902344 35.6875 80.066406 C 35.941406 79.230469 36.234375 78.410156 36.570312 77.605469 C 36.902344 76.800781 37.277344 76.011719 37.6875 75.246094 C 38.097656 74.476562 38.546875 73.726562 39.03125 73.003906 C 39.515625 72.277344 40.035156 71.578125 40.585938 70.90625 C 41.140625 70.230469 41.722656 69.585938 42.339844 68.96875 C 42.957031 68.351562 43.601562 67.765625 44.277344 67.214844 C 44.949219 66.660156 45.652344 66.140625 46.375 65.65625 C 47.101562 65.171875 47.847656 64.726562 48.617188 64.3125 C 49.386719 63.902344 50.171875 63.53125 50.980469 63.195312 C 51.785156 62.863281 52.605469 62.570312 53.4375 62.316406 C 54.273438 62.0625 55.117188 61.851562 55.972656 61.683594 C 56.828125 61.511719 57.691406 61.382812 58.558594 61.296875 C 59.425781 61.214844 60.296875 61.171875 61.167969 61.171875 L 125.828125 61.171875 C 126.699219 61.171875 127.566406 61.214844 128.4375 61.296875 C 129.304688 61.382812 130.164062 61.511719 131.019531 61.683594 C 131.875 61.851562 132.71875 62.0625 133.554688 62.316406 C 134.390625 62.570312 135.210938 62.863281 136.015625 63.195312 C 136.820312 63.53125 137.609375 63.902344 138.375 64.3125 C 139.144531 64.726562 139.894531 65.171875 140.617188 65.65625 C 141.34375 66.140625 142.042969 66.660156 142.714844 67.214844 C 143.390625 67.765625 144.035156 68.351562 144.652344 68.96875 C 145.269531 69.585938 145.855469 70.230469 146.40625 70.90625 C 146.960938 71.578125 147.480469 72.277344 147.964844 73.003906 C 148.449219 73.726562 148.894531 74.476562 149.308594 75.246094 C 149.71875 76.011719 150.089844 76.800781 150.425781 77.605469 C 150.757812 78.410156 151.050781 79.230469 151.304688 80.066406 C 151.558594 80.902344 151.769531 81.746094 151.9375 82.601562 C 152.109375 83.457031 152.238281 84.316406 152.324219 85.183594 C 152.40625 86.054688 152.449219 86.921875 152.449219 87.792969 Z M 171.46875 116.320312 C 171.46875 116.824219 171.371094 117.308594 171.179688 117.777344 C 170.984375 118.242188 170.710938 118.652344 170.355469 119.011719 C 169.996094 119.367188 169.585938 119.640625 169.121094 119.835938 C 168.652344 120.027344 168.167969 120.125 167.664062 120.125 L 160.058594 120.125 L 160.058594 93.5 L 167.664062 93.5 C 168.167969 93.5 168.652344 93.597656 169.121094 93.789062 C 169.585938 93.984375 169.996094 94.257812 170.355469 94.613281 C 170.710938 94.96875 170.984375 95.382812 171.179688 95.847656 C 171.371094 96.3125 171.46875 96.800781 171.46875 97.304688 Z M 171.46875 116.320312 " fill-opacity="1" fill-rule="nonzero"/></g><path fill="#005b9f" d="M 116.316406 83.992188 C 115.445312 83.992188 114.578125 84.078125 113.71875 84.246094 C 112.863281 84.417969 112.03125 84.671875 111.222656 85.003906 C 110.414062 85.339844 109.648438 85.75 108.921875 86.234375 C 108.195312 86.71875 107.523438 87.273438 106.90625 87.890625 C 106.285156 88.507812 105.734375 89.179688 105.25 89.90625 C 104.761719 90.632812 104.351562 91.402344 104.019531 92.210938 C 103.683594 93.015625 103.433594 93.847656 103.261719 94.707031 C 103.089844 95.5625 103.003906 96.429688 103.003906 97.304688 C 103.003906 98.175781 103.089844 99.042969 103.261719 99.902344 C 103.433594 100.757812 103.683594 101.589844 104.019531 102.398438 C 104.351562 103.207031 104.761719 103.972656 105.25 104.699219 C 105.734375 105.425781 106.285156 106.097656 106.90625 106.714844 C 107.523438 107.335938 108.195312 107.886719 108.921875 108.371094 C 109.648438 108.859375 110.414062 109.269531 111.222656 109.601562 C 112.03125 109.9375 112.863281 110.1875 113.71875 110.359375 C 114.578125 110.53125 115.445312 110.617188 116.316406 110.617188 C 117.191406 110.617188 118.058594 110.53125 118.914062 110.359375 C 119.773438 110.1875 120.605469 109.9375 121.410156 109.601562 C 122.21875 109.269531 122.988281 108.859375 123.714844 108.371094 C 124.441406 107.886719 125.113281 107.335938 125.730469 106.714844 C 126.347656 106.097656 126.902344 105.425781 127.386719 104.699219 C 127.871094 103.972656 128.28125 103.207031 128.617188 102.398438 C 128.949219 101.589844 129.203125 100.757812 129.375 99.902344 C 129.542969 99.042969 129.628906 98.175781 129.628906 97.304688 C 129.628906 96.429688 129.542969 95.5625 129.375 94.707031 C 129.203125 93.847656 128.949219 93.015625 128.617188 92.210938 C 128.28125 91.402344 127.871094 90.632812 127.386719 89.90625 C 126.902344 89.179688 126.347656 88.507812 125.730469 87.890625 C 125.113281 87.273438 124.441406 86.71875 123.714844 86.234375 C 122.988281 85.75 122.21875 85.339844 121.410156 85.003906 C 120.605469 84.671875 119.773438 84.417969 118.914062 84.246094 C 118.058594 84.078125 117.191406 83.992188 116.316406 83.992188 Z M 116.316406 103.007812 C 115.941406 103.007812 115.570312 102.972656 115.203125 102.898438 C 114.835938 102.824219 114.480469 102.71875 114.132812 102.574219 C 113.789062 102.429688 113.460938 102.253906 113.148438 102.046875 C 112.835938 101.839844 112.546875 101.601562 112.285156 101.335938 C 112.019531 101.074219 111.78125 100.785156 111.574219 100.472656 C 111.367188 100.160156 111.191406 99.832031 111.046875 99.488281 C 110.902344 99.140625 110.796875 98.785156 110.722656 98.417969 C 110.648438 98.050781 110.613281 97.679688 110.613281 97.304688 C 110.613281 96.929688 110.648438 96.558594 110.722656 96.191406 C 110.796875 95.824219 110.902344 95.464844 111.046875 95.121094 C 111.191406 94.773438 111.367188 94.445312 111.574219 94.132812 C 111.78125 93.824219 112.019531 93.535156 112.285156 93.269531 C 112.546875 93.003906 112.835938 92.769531 113.148438 92.558594 C 113.460938 92.351562 113.789062 92.175781 114.132812 92.03125 C 114.480469 91.890625 114.835938 91.78125 115.203125 91.707031 C 115.570312 91.636719 115.941406 91.597656 116.316406 91.597656 C 116.691406 91.597656 117.0625 91.636719 117.429688 91.707031 C 117.796875 91.78125 118.15625 91.890625 118.5 92.03125 C 118.847656 92.175781 119.175781 92.351562 119.488281 92.558594 C 119.796875 92.769531 120.085938 93.003906 120.351562 93.269531 C 120.617188 93.535156 120.851562 93.824219 121.0625 94.132812 C 121.269531 94.445312 121.445312 94.773438 121.589844 95.121094 C 121.730469 95.464844 121.839844 95.824219 121.914062 96.191406 C 121.984375 96.558594 122.023438 96.929688 122.023438 97.304688 C 122.023438 97.679688 121.984375 98.050781 121.914062 98.417969 C 121.839844 98.785156 121.730469 99.140625 121.589844 99.488281 C 121.445312 99.832031 121.269531 100.160156 121.0625 100.472656 C 120.851562 100.785156 120.617188 101.074219 120.351562 101.335938 C 120.085938 101.601562 119.796875 101.839844 119.488281 102.046875 C 119.175781 102.253906 118.847656 102.429688 118.5 102.574219 C 118.15625 102.71875 117.796875 102.824219 117.429688 102.898438 C 117.0625 102.972656 116.691406 103.007812 116.316406 103.007812 Z M 116.316406 103.007812 " fill-opacity="1" fill-rule="nonzero"/><path fill="#005b9f" d="M 83.988281 97.304688 C 83.988281 96.429688 83.902344 95.5625 83.730469 94.707031 C 83.5625 93.847656 83.308594 93.015625 82.976562 92.210938 C 82.640625 91.402344 82.230469 90.632812 81.746094 89.90625 C 81.257812 89.179688 80.707031 88.507812 80.089844 87.890625 C 79.472656 87.273438 78.796875 86.71875 78.070312 86.234375 C 77.34375 85.75 76.578125 85.339844 75.769531 85.003906 C 74.960938 84.671875 74.128906 84.417969 73.273438 84.246094 C 72.414062 84.078125 71.550781 83.992188 70.675781 83.992188 C 69.800781 83.992188 68.9375 84.078125 68.078125 84.246094 C 67.222656 84.417969 66.390625 84.671875 65.582031 85.003906 C 64.773438 85.339844 64.007812 85.75 63.28125 86.234375 C 62.554688 86.71875 61.882812 87.273438 61.261719 87.890625 C 60.644531 88.507812 60.09375 89.179688 59.605469 89.90625 C 59.121094 90.632812 58.710938 91.402344 58.378906 92.210938 C 58.042969 93.015625 57.789062 93.847656 57.621094 94.707031 C 57.449219 95.5625 57.363281 96.429688 57.363281 97.304688 C 57.363281 98.175781 57.449219 99.042969 57.621094 99.902344 C 57.789062 100.757812 58.042969 101.589844 58.378906 102.398438 C 58.710938 103.207031 59.121094 103.972656 59.605469 104.699219 C 60.09375 105.425781 60.644531 106.097656 61.261719 106.714844 C 61.882812 107.335938 62.554688 107.886719 63.28125 108.371094 C 64.007812 108.859375 64.773438 109.269531 65.582031 109.601562 C 66.390625 109.9375 67.222656 110.1875 68.078125 110.359375 C 68.9375 110.53125 69.800781 110.617188 70.675781 110.617188 C 71.550781 110.617188 72.414062 110.53125 73.273438 110.359375 C 74.128906 110.1875 74.960938 109.9375 75.769531 109.601562 C 76.578125 109.269531 77.34375 108.859375 78.070312 108.371094 C 78.796875 107.886719 79.472656 107.335938 80.089844 106.714844 C 80.707031 106.097656 81.257812 105.425781 81.746094 104.699219 C 82.230469 103.972656 82.640625 103.207031 82.976562 102.398438 C 83.308594 101.589844 83.5625 100.757812 83.730469 99.902344 C 83.902344 99.042969 83.988281 98.175781 83.988281 97.304688 Z M 64.972656 97.304688 C 64.972656 96.929688 65.007812 96.558594 65.082031 96.191406 C 65.152344 95.824219 65.261719 95.464844 65.40625 95.121094 C 65.546875 94.773438 65.722656 94.445312 65.933594 94.132812 C 66.140625 93.824219 66.375 93.535156 66.640625 93.269531 C 66.90625 93.003906 67.195312 92.769531 67.507812 92.558594 C 67.816406 92.351562 68.148438 92.175781 68.492188 92.03125 C 68.839844 91.890625 69.195312 91.78125 69.5625 91.707031 C 69.929688 91.636719 70.300781 91.597656 70.675781 91.597656 C 71.050781 91.597656 71.421875 91.636719 71.789062 91.707031 C 72.15625 91.78125 72.511719 91.890625 72.859375 92.03125 C 73.207031 92.175781 73.535156 92.351562 73.84375 92.558594 C 74.15625 92.769531 74.445312 93.003906 74.710938 93.269531 C 74.976562 93.535156 75.210938 93.824219 75.417969 94.132812 C 75.628906 94.445312 75.804688 94.773438 75.945312 95.121094 C 76.089844 95.464844 76.199219 95.824219 76.273438 96.191406 C 76.34375 96.558594 76.382812 96.929688 76.382812 97.304688 C 76.382812 97.679688 76.34375 98.050781 76.273438 98.417969 C 76.199219 98.785156 76.089844 99.140625 75.945312 99.488281 C 75.804688 99.832031 75.628906 100.160156 75.417969 100.472656 C 75.210938 100.785156 74.976562 101.074219 74.710938 101.335938 C 74.445312 101.601562 74.15625 101.839844 73.84375 102.046875 C 73.535156 102.253906 73.207031 102.429688 72.859375 102.574219 C 72.511719 102.71875 72.15625 102.824219 71.789062 102.898438 C 71.421875 102.972656 71.050781 103.007812 70.675781 103.007812 C 70.300781 103.007812 69.929688 102.972656 69.5625 102.898438 C 69.195312 102.824219 68.839844 102.71875 68.492188 102.574219 C 68.148438 102.429688 67.816406 102.253906 67.507812 102.046875 C 67.195312 101.839844 66.90625 101.601562 66.640625 101.335938 C 66.375 101.074219 66.140625 100.785156 65.933594 100.472656 C 65.722656 100.160156 65.546875 99.832031 65.40625 99.488281 C 65.261719 99.140625 65.152344 98.785156 65.082031 98.417969 C 65.007812 98.050781 64.972656 97.679688 64.972656 97.304688 Z M 64.972656 97.304688 " fill-opacity="1" fill-rule="nonzero"/><path fill="#005b9f" d="M 118.011719 122.425781 C 117.558594 122.203125 117.082031 122.070312 116.578125 122.039062 C 116.074219 122.003906 115.585938 122.066406 115.109375 122.226562 C 114.628906 122.386719 114.199219 122.632812 113.820312 122.964844 C 113.441406 123.292969 113.136719 123.6875 112.914062 124.136719 C 112.5 124.964844 111.984375 125.71875 111.363281 126.402344 C 110.738281 127.085938 110.035156 127.667969 109.246094 128.15625 C 108.460938 128.640625 107.625 129.007812 106.734375 129.261719 C 105.84375 129.511719 104.9375 129.636719 104.011719 129.632812 L 82.980469 129.632812 C 82.054688 129.636719 81.148438 129.511719 80.257812 129.261719 C 79.371094 129.007812 78.53125 128.640625 77.746094 128.15625 C 76.960938 127.667969 76.253906 127.085938 75.632812 126.402344 C 75.007812 125.71875 74.492188 124.964844 74.078125 124.136719 C 73.847656 123.703125 73.539062 123.324219 73.160156 123.007812 C 72.78125 122.695312 72.355469 122.460938 71.882812 122.3125 C 71.414062 122.160156 70.929688 122.105469 70.4375 122.140625 C 69.945312 122.179688 69.476562 122.308594 69.035156 122.527344 C 68.59375 122.75 68.207031 123.042969 67.878906 123.414062 C 67.550781 123.785156 67.304688 124.203125 67.140625 124.667969 C 66.976562 125.132812 66.90625 125.613281 66.929688 126.109375 C 66.949219 126.601562 67.066406 127.074219 67.273438 127.523438 C 67.996094 128.984375 68.910156 130.320312 70.007812 131.527344 C 71.105469 132.734375 72.347656 133.765625 73.738281 134.625 C 75.125 135.484375 76.605469 136.136719 78.175781 136.582031 C 79.746094 137.023438 81.347656 137.246094 82.980469 137.238281 L 104.011719 137.238281 C 105.644531 137.246094 107.246094 137.023438 108.816406 136.582031 C 110.390625 136.136719 111.867188 135.484375 113.257812 134.625 C 114.644531 133.765625 115.886719 132.734375 116.988281 131.527344 C 118.085938 130.320312 118.996094 128.984375 119.722656 127.523438 C 119.945312 127.070312 120.074219 126.59375 120.109375 126.089844 C 120.144531 125.585938 120.082031 125.097656 119.921875 124.621094 C 119.761719 124.140625 119.515625 123.710938 119.183594 123.332031 C 118.851562 122.953125 118.460938 122.648438 118.011719 122.425781 Z M 118.011719 122.425781 " fill-opacity="1" fill-rule="nonzero"/></svg>