<svg xmlns="http://www.w3.org/2000/svg" xmlns:xlink="http://www.w3.org/1999/xlink" width="50" zoomAndPan="magnify" viewBox="0 0 37.5 37.499999" height="50" preserveAspectRatio="xMidYMid meet" version="1.0"><defs><clipPath id="655bdc8267"><path d="M 3.097656 3.097656 L 34 3.097656 L 34 34 L 3.097656 34 Z M 3.097656 3.097656 " clip-rule="nonzero"/></clipPath></defs><g clip-path="url(#655bdc8267)"><path fill="#11497c" d="M 31.488281 5.511719 L 31.488281 5.210938 C 31.488281 4.042969 30.539062 3.097656 29.375 3.097656 C 28.207031 3.097656 27.257812 4.042969 27.257812 5.210938 L 27.257812 5.511719 L 26.050781 5.511719 L 26.050781 5.210938 C 26.050781 4.042969 25.101562 3.097656 23.9375 3.097656 C 22.769531 3.097656 21.824219 4.042969 21.824219 5.210938 L 21.824219 5.511719 L 20.613281 5.511719 L 20.613281 5.210938 C 20.613281 4.042969 19.664062 3.097656 18.5 3.097656 C 17.335938 3.097656 16.386719 4.042969 16.386719 5.210938 L 16.386719 5.511719 L 15.175781 5.511719 L 15.175781 5.210938 C 15.175781 4.042969 14.230469 3.097656 13.0625 3.097656 C 11.898438 3.097656 10.949219 4.042969 10.949219 5.210938 L 10.949219 5.511719 L 9.742188 5.511719 L 9.742188 5.210938 C 9.742188 4.042969 8.792969 3.097656 7.625 3.097656 C 6.460938 3.097656 5.511719 4.042969 5.511719 5.210938 L 5.511719 5.511719 C 4.179688 5.511719 3.097656 6.597656 3.097656 7.929688 L 3.097656 31.488281 C 3.097656 32.820312 4.179688 33.902344 5.511719 33.902344 L 31.488281 33.902344 C 32.820312 33.902344 33.902344 32.820312 33.902344 31.488281 L 33.902344 7.929688 C 33.902344 6.597656 32.820312 5.511719 31.488281 5.511719 Z M 28.46875 5.210938 C 28.46875 4.710938 28.875 4.304688 29.375 4.304688 C 29.875 4.304688 30.28125 4.710938 30.28125 5.210938 L 30.28125 7.023438 C 30.28125 7.523438 29.875 7.929688 29.375 7.929688 C 28.875 7.929688 28.46875 7.523438 28.46875 7.023438 Z M 23.03125 5.210938 C 23.03125 4.710938 23.4375 4.304688 23.9375 4.304688 C 24.4375 4.304688 24.84375 4.710938 24.84375 5.210938 L 24.84375 7.023438 C 24.84375 7.523438 24.4375 7.929688 23.9375 7.929688 C 23.4375 7.929688 23.03125 7.523438 23.03125 7.023438 Z M 17.59375 5.210938 C 17.59375 4.710938 18 4.304688 18.5 4.304688 C 19 4.304688 19.40625 4.710938 19.40625 5.210938 L 19.40625 7.023438 C 19.40625 7.523438 19 7.929688 18.5 7.929688 C 18 7.929688 17.59375 7.523438 17.59375 7.023438 Z M 12.15625 5.210938 C 12.15625 4.710938 12.5625 4.304688 13.0625 4.304688 C 13.5625 4.304688 13.96875 4.710938 13.96875 5.210938 L 13.96875 7.023438 C 13.96875 7.523438 13.5625 7.929688 13.0625 7.929688 C 12.5625 7.929688 12.15625 7.523438 12.15625 7.023438 Z M 6.71875 5.210938 C 6.71875 4.710938 7.128906 4.304688 7.625 4.304688 C 8.125 4.304688 8.53125 4.710938 8.53125 5.210938 L 8.53125 7.023438 C 8.53125 7.523438 8.125 7.929688 7.625 7.929688 C 7.128906 7.929688 6.71875 7.523438 6.71875 7.023438 Z M 5.511719 6.71875 L 5.511719 7.023438 C 5.511719 8.1875 6.460938 9.136719 7.625 9.136719 C 8.792969 9.136719 9.742188 8.1875 9.742188 7.023438 L 9.742188 6.71875 L 10.949219 6.71875 L 10.949219 7.023438 C 10.949219 8.1875 11.898438 9.136719 13.0625 9.136719 C 14.230469 9.136719 15.175781 8.1875 15.175781 7.023438 L 15.175781 6.71875 L 16.386719 6.71875 L 16.386719 7.023438 C 16.386719 8.1875 17.335938 9.136719 18.5 9.136719 C 19.664062 9.136719 20.613281 8.1875 20.613281 7.023438 L 20.613281 6.71875 L 21.824219 6.71875 L 21.824219 7.023438 C 21.824219 8.1875 22.769531 9.136719 23.9375 9.136719 C 25.101562 9.136719 26.050781 8.1875 26.050781 7.023438 L 26.050781 6.71875 L 27.257812 6.71875 L 27.257812 7.023438 C 27.257812 8.1875 28.207031 9.136719 29.375 9.136719 C 30.539062 9.136719 31.488281 8.1875 31.488281 7.023438 L 31.488281 6.71875 C 32.152344 6.71875 32.695312 7.261719 32.695312 7.929688 L 32.695312 10.34375 C 31.679688 10.34375 5.273438 10.34375 4.304688 10.34375 L 4.304688 7.929688 C 4.304688 7.261719 4.847656 6.71875 5.511719 6.71875 Z M 6.71875 11.554688 L 30.28125 11.554688 L 30.28125 30.28125 L 6.71875 30.28125 Z M 31.488281 32.695312 L 5.511719 32.695312 C 4.847656 32.695312 4.304688 32.152344 4.304688 31.488281 L 4.304688 11.554688 L 5.511719 11.554688 L 5.511719 30.882812 C 5.511719 31.21875 5.78125 31.488281 6.117188 31.488281 L 30.882812 31.488281 C 31.21875 31.488281 31.488281 31.21875 31.488281 30.882812 L 31.488281 11.554688 L 32.695312 11.554688 L 32.695312 31.488281 C 32.695312 32.152344 32.152344 32.695312 31.488281 32.695312 Z M 31.488281 32.695312 " fill-opacity="1" fill-rule="nonzero"/></g><path fill="#11497c" d="M 11.554688 14.273438 L 9.136719 14.273438 C 8.804688 14.273438 8.53125 14.542969 8.53125 14.875 L 8.53125 17.292969 C 8.53125 17.625 8.804688 17.894531 9.136719 17.894531 L 11.554688 17.894531 C 11.886719 17.894531 12.15625 17.625 12.15625 17.292969 L 12.15625 14.875 C 12.15625 14.542969 11.886719 14.273438 11.554688 14.273438 Z M 10.949219 16.6875 L 9.742188 16.6875 L 9.742188 15.480469 L 10.949219 15.480469 Z M 10.949219 16.6875 " fill-opacity="1" fill-rule="nonzero"/><path fill="#11497c" d="M 16.988281 14.273438 L 14.574219 14.273438 C 14.238281 14.273438 13.96875 14.542969 13.96875 14.875 L 13.96875 17.292969 C 13.96875 17.625 14.238281 17.894531 14.574219 17.894531 L 16.988281 17.894531 C 17.324219 17.894531 17.59375 17.625 17.59375 17.292969 L 17.59375 14.875 C 17.59375 14.542969 17.324219 14.273438 16.988281 14.273438 Z M 16.386719 16.6875 L 15.175781 16.6875 L 15.175781 15.480469 L 16.386719 15.480469 Z M 16.386719 16.6875 " fill-opacity="1" fill-rule="nonzero"/><path fill="#11497c" d="M 22.425781 14.273438 L 20.011719 14.273438 C 19.675781 14.273438 19.40625 14.542969 19.40625 14.875 L 19.40625 17.292969 C 19.40625 17.625 19.675781 17.894531 20.011719 17.894531 L 22.425781 17.894531 C 22.761719 17.894531 23.03125 17.625 23.03125 17.292969 L 23.03125 14.875 C 23.03125 14.542969 22.761719 14.273438 22.425781 14.273438 Z M 21.824219 16.6875 L 20.613281 16.6875 L 20.613281 15.480469 L 21.824219 15.480469 Z M 21.824219 16.6875 " fill-opacity="1" fill-rule="nonzero"/><path fill="#11497c" d="M 27.863281 14.273438 L 25.445312 14.273438 C 25.113281 14.273438 24.84375 14.542969 24.84375 14.875 L 24.84375 17.292969 C 24.84375 17.625 25.113281 17.894531 25.445312 17.894531 L 27.863281 17.894531 C 28.195312 17.894531 28.46875 17.625 28.46875 17.292969 L 28.46875 14.875 C 28.46875 14.542969 28.195312 14.273438 27.863281 14.273438 Z M 27.257812 16.6875 L 26.050781 16.6875 L 26.050781 15.480469 L 27.257812 15.480469 Z M 27.257812 16.6875 " fill-opacity="1" fill-rule="nonzero"/><path fill="#11497c" d="M 11.554688 19.105469 L 9.136719 19.105469 C 8.804688 19.105469 8.53125 19.375 8.53125 19.707031 L 8.53125 22.125 C 8.53125 22.457031 8.804688 22.730469 9.136719 22.730469 L 11.554688 22.730469 C 11.886719 22.730469 12.15625 22.457031 12.15625 22.125 L 12.15625 19.707031 C 12.15625 19.375 11.886719 19.105469 11.554688 19.105469 Z M 10.949219 21.519531 L 9.742188 21.519531 L 9.742188 20.3125 L 10.949219 20.3125 Z M 10.949219 21.519531 " fill-opacity="1" fill-rule="nonzero"/><path fill="#11497c" d="M 16.988281 19.105469 L 14.574219 19.105469 C 14.238281 19.105469 13.96875 19.375 13.96875 19.707031 L 13.96875 22.125 C 13.96875 22.457031 14.238281 22.730469 14.574219 22.730469 L 16.988281 22.730469 C 17.324219 22.730469 17.59375 22.457031 17.59375 22.125 L 17.59375 19.707031 C 17.59375 19.375 17.324219 19.105469 16.988281 19.105469 Z M 16.386719 21.519531 L 15.175781 21.519531 L 15.175781 20.3125 L 16.386719 20.3125 Z M 16.386719 21.519531 " fill-opacity="1" fill-rule="nonzero"/><path fill="#11497c" d="M 22.425781 19.105469 L 20.011719 19.105469 C 19.675781 19.105469 19.40625 19.375 19.40625 19.707031 L 19.40625 22.125 C 19.40625 22.457031 19.675781 22.730469 20.011719 22.730469 L 22.425781 22.730469 C 22.761719 22.730469 23.03125 22.457031 23.03125 22.125 L 23.03125 19.707031 C 23.03125 19.375 22.761719 19.105469 22.425781 19.105469 Z M 21.824219 21.519531 L 20.613281 21.519531 L 20.613281 20.3125 L 21.824219 20.3125 Z M 21.824219 21.519531 " fill-opacity="1" fill-rule="nonzero"/><path fill="#11497c" d="M 27.863281 19.105469 L 25.445312 19.105469 C 25.113281 19.105469 24.84375 19.375 24.84375 19.707031 L 24.84375 22.125 C 24.84375 22.457031 25.113281 22.730469 25.445312 22.730469 L 27.863281 22.730469 C 28.195312 22.730469 28.46875 22.457031 28.46875 22.125 L 28.46875 19.707031 C 28.46875 19.375 28.195312 19.105469 27.863281 19.105469 Z M 27.257812 21.519531 L 26.050781 21.519531 L 26.050781 20.3125 L 27.257812 20.3125 Z M 27.257812 21.519531 " fill-opacity="1" fill-rule="nonzero"/><path fill="#11497c" d="M 11.554688 23.9375 L 9.136719 23.9375 C 8.804688 23.9375 8.53125 24.207031 8.53125 24.539062 L 8.53125 26.957031 C 8.53125 27.289062 8.804688 27.5625 9.136719 27.5625 L 11.554688 27.5625 C 11.886719 27.5625 12.15625 27.289062 12.15625 26.957031 L 12.15625 24.539062 C 12.15625 24.207031 11.886719 23.9375 11.554688 23.9375 Z M 10.949219 26.351562 L 9.742188 26.351562 L 9.742188 25.144531 L 10.949219 25.144531 Z M 10.949219 26.351562 " fill-opacity="1" fill-rule="nonzero"/><path fill="#11497c" d="M 16.988281 23.9375 L 14.574219 23.9375 C 14.238281 23.9375 13.96875 24.207031 13.96875 24.539062 L 13.96875 26.957031 C 13.96875 27.289062 14.238281 27.5625 14.574219 27.5625 L 16.988281 27.5625 C 17.324219 27.5625 17.59375 27.289062 17.59375 26.957031 L 17.59375 24.539062 C 17.59375 24.207031 17.324219 23.9375 16.988281 23.9375 Z M 16.386719 26.351562 L 15.175781 26.351562 L 15.175781 25.144531 L 16.386719 25.144531 Z M 16.386719 26.351562 " fill-opacity="1" fill-rule="nonzero"/><path fill="#11497c" d="M 22.425781 23.9375 L 20.011719 23.9375 C 19.675781 23.9375 19.40625 24.207031 19.40625 24.539062 L 19.40625 26.957031 C 19.40625 27.289062 19.675781 27.5625 20.011719 27.5625 L 22.425781 27.5625 C 22.761719 27.5625 23.03125 27.289062 23.03125 26.957031 L 23.03125 24.539062 C 23.03125 24.207031 22.761719 23.9375 22.425781 23.9375 Z M 21.824219 26.351562 L 20.613281 26.351562 L 20.613281 25.144531 L 21.824219 25.144531 Z M 21.824219 26.351562 " fill-opacity="1" fill-rule="nonzero"/><path fill="#11497c" d="M 27.863281 23.9375 L 25.445312 23.9375 C 25.113281 23.9375 24.84375 24.207031 24.84375 24.539062 L 24.84375 26.957031 C 24.84375 27.289062 25.113281 27.5625 25.445312 27.5625 L 27.863281 27.5625 C 28.195312 27.5625 28.46875 27.289062 28.46875 26.957031 L 28.46875 24.539062 C 28.46875 24.207031 28.195312 23.9375 27.863281 23.9375 Z M 27.257812 26.351562 L 26.050781 26.351562 L 26.050781 25.144531 L 27.257812 25.144531 Z M 27.257812 26.351562 " fill-opacity="1" fill-rule="nonzero"/></svg>