<svg xmlns="http://www.w3.org/2000/svg" xmlns:xlink="http://www.w3.org/1999/xlink" width="50" zoomAndPan="magnify" viewBox="0 0 37.5 37.499999" height="50" preserveAspectRatio="xMidYMid meet" version="1.0"><defs><clipPath id="1a47fb47d5"><path d="M 2.914062 0 L 33.257812 0 L 33.257812 37.007812 L 2.914062 37.007812 Z M 2.914062 0 " clip-rule="nonzero"/></clipPath></defs><g clip-path="url(#1a47fb47d5)"><path fill="#183d79" d="M 18.402344 24.183594 C 18.410156 24.140625 18.414062 24.097656 18.414062 24.050781 L 18.414062 22.292969 L 19.410156 22.292969 C 20.550781 22.292969 21.476562 21.367188 21.476562 20.226562 L 21.476562 19.761719 C 21.476562 18.621094 20.550781 17.695312 19.410156 17.695312 L 18.414062 17.695312 L 18.414062 16.332031 L 19.410156 16.332031 C 19.660156 16.332031 19.859375 16.53125 19.859375 16.78125 L 19.859375 16.933594 C 19.859375 17.378906 20.222656 17.742188 20.667969 17.742188 C 21.117188 17.742188 21.476562 17.378906 21.476562 16.933594 L 21.476562 16.78125 C 21.476562 15.640625 20.550781 14.710938 19.410156 14.710938 L 18.414062 14.710938 L 18.414062 13.722656 C 18.476562 13.742188 18.542969 13.765625 18.613281 13.765625 C 19.054688 13.765625 19.421875 13.398438 19.421875 12.957031 C 19.421875 12.511719 19.054688 12.148438 18.613281 12.148438 C 18.390625 12.148438 18.175781 12.238281 18.027344 12.398438 C 17.878906 12.554688 17.800781 12.761719 17.808594 12.976562 L 17.808594 14.710938 L 16.808594 14.710938 C 15.667969 14.710938 14.742188 15.640625 14.742188 16.78125 L 14.742188 17.246094 C 14.742188 18.386719 15.667969 19.3125 16.808594 19.3125 L 17.808594 19.3125 L 17.808594 20.675781 L 16.808594 20.675781 C 16.5625 20.675781 16.359375 20.476562 16.359375 20.226562 L 16.359375 20.097656 C 16.359375 19.652344 15.996094 19.289062 15.550781 19.289062 C 15.101562 19.289062 14.742188 19.652344 14.742188 20.097656 L 14.742188 20.226562 C 14.742188 21.367188 15.667969 22.292969 16.808594 22.292969 L 17.808594 22.292969 L 17.808594 23.285156 C 17.738281 23.265625 17.671875 23.242188 17.601562 23.242188 C 17.15625 23.242188 16.792969 23.605469 16.792969 24.050781 C 16.792969 24.496094 17.15625 24.859375 17.601562 24.859375 C 17.96875 24.859375 18.328125 24.546875 18.402344 24.183594 Z M 18.414062 19.3125 L 19.410156 19.3125 C 19.660156 19.3125 19.859375 19.515625 19.859375 19.761719 L 19.859375 20.226562 C 19.859375 20.476562 19.660156 20.675781 19.410156 20.675781 L 18.414062 20.675781 Z M 17.808594 17.695312 L 16.808594 17.695312 C 16.5625 17.695312 16.359375 17.492188 16.359375 17.246094 L 16.359375 16.78125 C 16.359375 16.53125 16.5625 16.332031 16.808594 16.332031 L 17.808594 16.332031 Z M 33.109375 17.039062 C 33.007812 16.445312 32.648438 15.945312 32.117188 15.667969 C 31.585938 15.386719 30.96875 15.371094 30.386719 15.644531 C 29.617188 16 29.179688 16.84375 29.320312 17.6875 C 29.417969 18.257812 29.464844 18.835938 29.464844 19.410156 C 29.464844 22.414062 28.160156 25.273438 25.890625 27.25 C 23.996094 28.898438 21.574219 29.804688 19.066406 29.804688 L 16.644531 29.804688 L 16.644531 26.882812 C 16.644531 26.78125 16.601562 26.691406 16.539062 26.613281 C 17.046875 26.710938 17.574219 26.769531 18.109375 26.769531 C 22.667969 26.769531 26.375 23.058594 26.375 18.503906 C 26.375 14.660156 23.734375 11.429688 20.171875 10.511719 C 20.230469 10.488281 20.289062 10.464844 20.332031 10.417969 L 24.785156 5.582031 C 24.941406 5.410156 24.941406 5.152344 24.785156 4.984375 L 20.332031 0.144531 C 20.210938 0.0117188 20.023438 -0.03125 19.851562 0.0351562 C 19.683594 0.101562 19.574219 0.261719 19.574219 0.441406 L 19.574219 3.363281 L 17.152344 3.363281 C 13.859375 3.363281 10.640625 4.515625 8.097656 6.609375 C 4.800781 9.324219 2.914062 13.332031 2.914062 17.597656 C 2.914062 18.394531 2.980469 19.191406 3.113281 19.96875 C 3.210938 20.5625 3.574219 21.0625 4.105469 21.339844 C 4.378906 21.484375 4.675781 21.558594 4.980469 21.558594 C 5.265625 21.558594 5.554688 21.496094 5.835938 21.363281 C 6.601562 21.007812 7.039062 20.164062 6.898438 19.316406 C 6.804688 18.75 6.753906 18.171875 6.753906 17.597656 C 6.753906 14.59375 8.058594 11.734375 10.332031 9.757812 C 12.222656 8.109375 14.644531 7.203125 17.152344 7.203125 L 19.574219 7.203125 L 19.574219 10.121094 C 19.574219 10.226562 19.617188 10.316406 19.679688 10.394531 C 19.171875 10.296875 18.648438 10.238281 18.109375 10.238281 C 13.554688 10.238281 9.847656 13.945312 9.847656 18.503906 C 9.847656 22.347656 12.488281 25.574219 16.046875 26.496094 C 15.988281 26.519531 15.929688 26.539062 15.886719 26.589844 L 11.433594 31.425781 C 11.277344 31.597656 11.277344 31.855469 11.433594 32.023438 L 15.886719 36.863281 C 15.972656 36.953125 16.089844 37.003906 16.207031 37.003906 C 16.261719 37.003906 16.316406 36.992188 16.367188 36.972656 C 16.535156 36.90625 16.644531 36.746094 16.644531 36.566406 L 16.644531 33.644531 L 19.066406 33.644531 C 22.363281 33.644531 25.578125 32.492188 28.125 30.398438 C 31.417969 27.679688 33.304688 23.675781 33.304688 19.410156 C 33.304688 18.613281 33.238281 17.816406 33.109375 17.039062 Z M 11.464844 18.503906 C 11.464844 14.839844 14.445312 11.855469 18.109375 11.855469 C 21.773438 11.855469 24.757812 14.839844 24.757812 18.503906 C 24.757812 22.167969 21.773438 25.148438 18.109375 25.148438 C 14.445312 25.148438 11.464844 22.167969 11.464844 18.503906 Z M 11.464844 18.503906 " fill-opacity="1" fill-rule="nonzero"/></g></svg>