<svg xmlns="http://www.w3.org/2000/svg" xmlns:xlink="http://www.w3.org/1999/xlink" width="50" zoomAndPan="magnify" viewBox="0 0 37.5 37.499999" height="50" preserveAspectRatio="xMidYMid meet" version="1.0"><defs><clipPath id="54847c5f8d"><path d="M 0.859375 2.871094 L 36.386719 2.871094 L 36.386719 33.214844 L 0.859375 33.214844 Z M 0.859375 2.871094 " clip-rule="nonzero"/></clipPath></defs><g clip-path="url(#54847c5f8d)"><path fill="#11497c" d="M 34.121094 19.589844 C 34.121094 23.023438 31.328125 25.816406 27.898438 25.816406 C 27.367188 25.816406 26.9375 26.246094 26.9375 26.777344 L 26.9375 30.339844 L 21.457031 26.019531 C 21.289062 25.886719 21.078125 25.816406 20.863281 25.816406 L 9.007812 25.816406 C 5.574219 25.816406 2.785156 23.023438 2.785156 19.589844 L 2.785156 11.03125 C 2.785156 7.597656 5.574219 4.804688 9.007812 4.804688 L 27.898438 4.804688 C 31.328125 4.804688 34.121094 7.597656 34.121094 11.03125 Z M 27.898438 2.882812 L 9.007812 2.882812 C 4.515625 2.882812 0.863281 6.539062 0.863281 11.03125 L 0.863281 19.589844 C 0.863281 24.082031 4.515625 27.738281 9.007812 27.738281 L 20.53125 27.738281 L 27.300781 33.074219 C 27.476562 33.210938 27.6875 33.28125 27.898438 33.28125 C 28.039062 33.28125 28.183594 33.25 28.316406 33.183594 C 28.648438 33.023438 28.859375 32.6875 28.859375 32.320312 L 28.859375 27.679688 C 32.898438 27.203125 36.042969 23.757812 36.042969 19.589844 L 36.042969 11.03125 C 36.042969 6.539062 32.390625 2.882812 27.898438 2.882812 " fill-opacity="1" fill-rule="nonzero"/></g><path fill="#11497c" d="M 9.550781 15.34375 C 9.535156 15.34375 9.519531 15.328125 9.519531 15.308594 C 9.519531 15.292969 9.535156 15.277344 9.550781 15.277344 C 9.570312 15.277344 9.582031 15.292969 9.582031 15.308594 C 9.582031 15.328125 9.570312 15.34375 9.550781 15.34375 Z M 9.550781 13.421875 C 8.507812 13.421875 7.660156 14.269531 7.660156 15.308594 C 7.660156 16.351562 8.507812 17.199219 9.550781 17.199219 C 10.59375 17.199219 11.441406 16.351562 11.441406 15.308594 C 11.441406 14.269531 10.59375 13.421875 9.550781 13.421875 " fill-opacity="1" fill-rule="nonzero"/><path fill="#11497c" d="M 18.453125 15.34375 C 18.433594 15.34375 18.421875 15.328125 18.421875 15.308594 C 18.421875 15.292969 18.433594 15.277344 18.453125 15.277344 C 18.46875 15.277344 18.484375 15.292969 18.484375 15.308594 C 18.484375 15.328125 18.46875 15.34375 18.453125 15.34375 Z M 18.453125 13.421875 C 17.410156 13.421875 16.5625 14.269531 16.5625 15.308594 C 16.5625 16.351562 17.410156 17.199219 18.453125 17.199219 C 19.496094 17.199219 20.34375 16.351562 20.34375 15.308594 C 20.34375 14.269531 19.496094 13.421875 18.453125 13.421875 " fill-opacity="1" fill-rule="nonzero"/><path fill="#11497c" d="M 27.351562 15.34375 C 27.335938 15.34375 27.320312 15.328125 27.320312 15.308594 C 27.320312 15.292969 27.335938 15.277344 27.351562 15.277344 C 27.371094 15.277344 27.386719 15.292969 27.386719 15.308594 C 27.386719 15.328125 27.371094 15.34375 27.351562 15.34375 Z M 27.351562 13.421875 C 26.3125 13.421875 25.464844 14.269531 25.464844 15.308594 C 25.464844 16.351562 26.3125 17.199219 27.351562 17.199219 C 28.394531 17.199219 29.242188 16.351562 29.242188 15.308594 C 29.242188 14.269531 28.394531 13.421875 27.351562 13.421875 " fill-opacity="1" fill-rule="nonzero"/></svg>