<svg xmlns="http://www.w3.org/2000/svg" xmlns:xlink="http://www.w3.org/1999/xlink" width="50" zoomAndPan="magnify" viewBox="0 0 37.5 37.499999" height="50" preserveAspectRatio="xMidYMid meet" version="1.0"><defs><clipPath id="b3006dd454"><path d="M 2.226562 2.226562 L 12 2.226562 L 12 34.792969 L 2.226562 34.792969 Z M 2.226562 2.226562 " clip-rule="nonzero"/></clipPath><clipPath id="c78e2d2bb0"><path d="M 13 2.226562 L 24 2.226562 L 24 34.792969 L 13 34.792969 Z M 13 2.226562 " clip-rule="nonzero"/></clipPath><clipPath id="ed8c19dcd0"><path d="M 25 2.226562 L 34.792969 2.226562 L 34.792969 34.792969 L 25 34.792969 Z M 25 2.226562 " clip-rule="nonzero"/></clipPath></defs><g clip-path="url(#b3006dd454)"><path fill="#183d79" d="M 4.828125 2.226562 L 11.335938 2.226562 L 11.335938 34.765625 L 4.828125 34.765625 C 3.394531 34.765625 2.226562 33.601562 2.226562 32.164062 L 2.226562 4.828125 C 2.226562 3.394531 3.394531 2.226562 4.828125 2.226562 Z M 4.828125 2.226562 " fill-opacity="1" fill-rule="nonzero"/></g><g clip-path="url(#c78e2d2bb0)"><path fill="#183d79" d="M 13.941406 2.226562 L 23.050781 2.226562 L 23.050781 34.765625 L 13.941406 34.765625 Z M 13.941406 2.226562 " fill-opacity="1" fill-rule="nonzero"/></g><g clip-path="url(#ed8c19dcd0)"><path fill="#183d79" d="M 32.164062 34.765625 L 25.65625 34.765625 L 25.65625 2.226562 L 32.164062 2.226562 C 33.601562 2.226562 34.761719 3.390625 34.761719 4.828125 L 34.765625 32.164062 C 34.765625 33.601562 33.601562 34.765625 32.164062 34.765625 Z M 32.164062 34.765625 " fill-opacity="1" fill-rule="nonzero"/></g></svg>