<svg xmlns="http://www.w3.org/2000/svg" xmlns:xlink="http://www.w3.org/1999/xlink" width="50" zoomAndPan="magnify" viewBox="0 0 37.5 37.499999" height="50" preserveAspectRatio="xMidYMid meet" version="1.0"><defs><clipPath id="5b1e84ece7"><path d="M 1.4375 1.394531 L 35.480469 1.394531 L 35.480469 35.4375 L 1.4375 35.4375 Z M 1.4375 1.394531 " clip-rule="nonzero"/></clipPath></defs><g clip-path="url(#5b1e84ece7)"><path fill="#183d79" d="M 9.71875 24.109375 L 9.71875 26.636719 L 7.542969 26.636719 C 5.996094 26.636719 4.734375 27.894531 4.734375 29.445312 L 4.734375 31.722656 C 4.734375 32.015625 4.972656 32.253906 5.265625 32.253906 L 9.71875 32.253906 L 9.71875 33.703125 C 9.71875 34.742188 10.5625 35.585938 11.601562 35.585938 L 28.773438 35.585938 C 28.773438 35.585938 28.773438 35.585938 28.777344 35.585938 C 28.78125 35.585938 28.785156 35.585938 28.785156 35.585938 C 30.226562 35.578125 31.394531 34.402344 31.394531 32.960938 L 31.394531 28.183594 C 33.742188 27.875 35.5625 25.863281 35.5625 23.429688 C 35.5625 21 33.742188 18.984375 31.394531 18.675781 L 31.394531 9.066406 L 35.03125 9.066406 C 35.324219 9.066406 35.5625 8.824219 35.5625 8.53125 L 35.5625 4.035156 C 35.5625 2.59375 34.390625 1.417969 32.945312 1.417969 L 13.085938 1.417969 C 11.230469 1.417969 9.71875 2.929688 9.71875 4.785156 L 9.71875 5.460938 C 8.917969 5.554688 8.117188 5.753906 7.34375 6.0625 L 7.355469 6.035156 C 7.457031 5.757812 7.3125 5.449219 7.035156 5.347656 C 6.761719 5.25 6.453125 5.390625 6.351562 5.667969 L 5.894531 6.925781 C 5.894531 6.925781 5.894531 6.929688 5.894531 6.929688 L 5.894531 6.933594 C 5.890625 6.9375 5.890625 6.945312 5.886719 6.949219 C 5.886719 6.960938 5.882812 6.96875 5.878906 6.980469 C 5.875 6.988281 5.875 6.996094 5.875 7.003906 C 5.871094 7.011719 5.871094 7.019531 5.867188 7.03125 C 5.867188 7.039062 5.867188 7.046875 5.867188 7.054688 C 5.863281 7.0625 5.863281 7.074219 5.863281 7.082031 C 5.863281 7.089844 5.863281 7.097656 5.863281 7.101562 C 5.863281 7.113281 5.863281 7.125 5.863281 7.132812 C 5.863281 7.140625 5.863281 7.148438 5.863281 7.152344 C 5.863281 7.164062 5.863281 7.175781 5.867188 7.1875 C 5.867188 7.191406 5.867188 7.199219 5.871094 7.203125 C 5.871094 7.214844 5.875 7.226562 5.875 7.238281 C 5.878906 7.246094 5.878906 7.25 5.882812 7.257812 C 5.882812 7.265625 5.886719 7.277344 5.890625 7.289062 C 5.894531 7.296875 5.894531 7.300781 5.898438 7.308594 C 5.902344 7.320312 5.90625 7.328125 5.910156 7.335938 C 5.910156 7.335938 5.910156 7.339844 5.910156 7.339844 C 5.914062 7.347656 5.917969 7.355469 5.921875 7.363281 C 5.925781 7.371094 5.929688 7.375 5.933594 7.382812 C 5.941406 7.394531 5.945312 7.402344 5.953125 7.410156 C 5.957031 7.417969 5.960938 7.421875 5.964844 7.429688 C 5.96875 7.4375 5.976562 7.441406 5.980469 7.449219 C 5.984375 7.457031 5.992188 7.464844 5.996094 7.46875 C 6 7.472656 6.003906 7.476562 6.007812 7.480469 C 6.015625 7.488281 6.023438 7.5 6.035156 7.507812 C 6.046875 7.519531 6.0625 7.53125 6.074219 7.542969 C 6.074219 7.542969 6.078125 7.542969 6.078125 7.542969 C 6.089844 7.550781 6.101562 7.5625 6.117188 7.570312 C 6.121094 7.574219 6.125 7.574219 6.128906 7.578125 C 6.140625 7.582031 6.152344 7.589844 6.164062 7.59375 C 6.167969 7.597656 6.175781 7.601562 6.179688 7.601562 C 6.191406 7.605469 6.199219 7.609375 6.210938 7.613281 C 6.210938 7.613281 6.210938 7.617188 6.210938 7.617188 L 7.476562 8.074219 C 7.539062 8.097656 7.601562 8.109375 7.660156 8.109375 C 7.878906 8.109375 8.082031 7.972656 8.160156 7.757812 C 8.261719 7.480469 8.121094 7.171875 7.84375 7.074219 L 7.761719 7.042969 C 8.402344 6.792969 9.058594 6.625 9.71875 6.535156 L 9.71875 7.945312 C 9.628906 7.960938 9.542969 7.976562 9.453125 7.996094 C 9.304688 8.023438 9.179688 8.117188 9.101562 8.246094 C 9.027344 8.378906 9.007812 8.535156 9.054688 8.679688 C 9.179688 9.066406 8.992188 9.476562 8.621094 9.640625 C 8.25 9.800781 7.820312 9.65625 7.621094 9.304688 C 7.546875 9.171875 7.421875 9.078125 7.273438 9.046875 C 7.128906 9.011719 6.972656 9.042969 6.851562 9.128906 C 6.140625 9.632812 5.535156 10.257812 5.054688 10.992188 C 4.972656 11.121094 4.945312 11.277344 4.984375 11.421875 C 5.023438 11.566406 5.121094 11.691406 5.257812 11.761719 C 5.613281 11.945312 5.773438 12.367188 5.625 12.746094 C 5.476562 13.121094 5.074219 13.324219 4.6875 13.214844 C 4.539062 13.171875 4.382812 13.195312 4.257812 13.277344 C 4.128906 13.355469 4.039062 13.488281 4.015625 13.636719 C 3.867188 14.5 3.882812 15.371094 4.0625 16.226562 C 4.09375 16.375 4.1875 16.5 4.316406 16.578125 C 4.445312 16.652344 4.601562 16.667969 4.746094 16.625 C 5.132812 16.5 5.542969 16.6875 5.707031 17.058594 C 5.867188 17.429688 5.726562 17.859375 5.371094 18.054688 C 5.242188 18.128906 5.148438 18.257812 5.113281 18.402344 C 5.082031 18.550781 5.113281 18.707031 5.199219 18.828125 C 5.699219 19.539062 6.328125 20.144531 7.058594 20.625 C 7.1875 20.707031 7.34375 20.730469 7.488281 20.691406 C 7.632812 20.652344 7.757812 20.554688 7.824219 20.421875 C 8.011719 20.0625 8.433594 19.90625 8.8125 20.050781 C 9.1875 20.199219 9.390625 20.605469 9.28125 20.992188 C 9.242188 21.140625 9.265625 21.296875 9.34375 21.421875 C 9.425781 21.550781 9.558594 21.636719 9.707031 21.664062 C 9.710938 21.664062 9.714844 21.664062 9.71875 21.664062 L 9.71875 23.035156 C 7.25 22.699219 4.953125 21.269531 3.613281 18.949219 C 1.632812 15.515625 2.355469 11.132812 5.335938 8.523438 C 5.558594 8.332031 5.582031 7.992188 5.386719 7.773438 C 5.191406 7.550781 4.855469 7.527344 4.632812 7.722656 C 1.269531 10.664062 0.453125 15.609375 2.691406 19.484375 C 4.226562 22.144531 6.878906 23.769531 9.71875 24.109375 Z M 5.800781 29.445312 C 5.800781 28.484375 6.582031 27.703125 7.542969 27.703125 L 22.507812 27.703125 C 22.1875 28.136719 21.996094 28.671875 21.996094 29.25 L 21.996094 31.1875 L 5.800781 31.1875 Z M 10.785156 33.703125 L 10.785156 32.253906 L 22.53125 32.253906 C 22.824219 32.253906 23.0625 32.015625 23.0625 31.722656 L 23.0625 29.25 C 23.0625 28.398438 23.757812 27.703125 24.613281 27.703125 C 25.46875 27.703125 26.164062 28.398438 26.164062 29.25 L 26.164062 32.96875 C 26.164062 33.550781 26.351562 34.085938 26.671875 34.519531 L 11.601562 34.519531 C 11.152344 34.519531 10.785156 34.152344 10.785156 33.703125 Z M 34.496094 23.429688 C 34.496094 25.488281 32.824219 27.160156 30.765625 27.160156 C 28.710938 27.160156 27.039062 25.488281 27.039062 23.429688 C 27.039062 21.375 28.710938 19.703125 30.765625 19.703125 C 32.824219 19.703125 34.496094 21.375 34.496094 23.429688 Z M 34.496094 4.035156 L 34.496094 8 L 31.394531 8 L 31.394531 4.035156 C 31.394531 3.179688 32.089844 2.484375 32.945312 2.484375 C 33.800781 2.484375 34.496094 3.179688 34.496094 4.035156 Z M 9.203125 19.058594 C 8.511719 18.789062 7.75 18.957031 7.242188 19.441406 C 6.921875 19.195312 6.632812 18.914062 6.371094 18.605469 C 6.84375 18.078125 6.980469 17.3125 6.683594 16.632812 C 6.386719 15.949219 5.730469 15.53125 5.023438 15.519531 C 4.976562 15.117188 4.96875 14.710938 5.003906 14.308594 C 5.707031 14.269531 6.347656 13.828125 6.617188 13.136719 C 6.890625 12.441406 6.722656 11.683594 6.234375 11.175781 C 6.484375 10.855469 6.765625 10.5625 7.074219 10.304688 C 7.597656 10.773438 8.363281 10.914062 9.046875 10.617188 C 9.730469 10.320312 10.148438 9.664062 10.160156 8.957031 C 10.203125 8.953125 10.246094 8.949219 10.289062 8.945312 C 10.300781 8.941406 10.3125 8.941406 10.324219 8.941406 C 10.671875 8.90625 11.019531 8.90625 11.367188 8.9375 C 11.410156 9.640625 11.851562 10.28125 12.542969 10.550781 C 13.234375 10.824219 13.996094 10.65625 14.503906 10.167969 C 14.820312 10.417969 15.113281 10.695312 15.375 11.007812 C 14.90625 11.53125 14.765625 12.296875 15.0625 12.980469 C 15.359375 13.660156 16.015625 14.078125 16.722656 14.09375 C 16.769531 14.496094 16.777344 14.898438 16.742188 15.300781 C 16.039062 15.34375 15.398438 15.785156 15.125 16.476562 C 14.855469 17.167969 15.023438 17.929688 15.511719 18.4375 C 15.261719 18.757812 14.980469 19.046875 14.671875 19.308594 C 14.144531 18.835938 13.378906 18.695312 12.699219 18.992188 C 12.015625 19.292969 11.601562 19.949219 11.585938 20.652344 C 11.1875 20.703125 10.78125 20.710938 10.375 20.675781 C 10.335938 19.972656 9.894531 19.332031 9.203125 19.058594 Z M 10.785156 21.761719 C 10.816406 21.761719 10.847656 21.761719 10.878906 21.761719 C 11.355469 21.761719 11.828125 21.714844 12.292969 21.617188 C 12.441406 21.585938 12.570312 21.492188 12.644531 21.363281 C 12.71875 21.230469 12.738281 21.074219 12.691406 20.929688 C 12.566406 20.546875 12.753906 20.132812 13.125 19.972656 C 13.496094 19.808594 13.925781 19.953125 14.125 20.308594 C 14.199219 20.4375 14.324219 20.53125 14.472656 20.566406 C 14.621094 20.597656 14.773438 20.566406 14.898438 20.480469 C 15.605469 19.976562 16.210938 19.351562 16.691406 18.621094 C 16.773438 18.492188 16.800781 18.335938 16.761719 18.191406 C 16.722656 18.046875 16.625 17.921875 16.488281 17.851562 C 16.128906 17.667969 15.972656 17.242188 16.117188 16.867188 C 16.265625 16.488281 16.671875 16.289062 17.058594 16.394531 C 17.207031 16.4375 17.363281 16.414062 17.488281 16.332031 C 17.617188 16.253906 17.703125 16.121094 17.730469 15.972656 C 17.878906 15.113281 17.863281 14.242188 17.683594 13.386719 C 17.652344 13.238281 17.5625 13.109375 17.429688 13.035156 C 17.300781 12.957031 17.144531 12.941406 17 12.988281 C 16.613281 13.109375 16.199219 12.925781 16.039062 12.554688 C 15.878906 12.183594 16.023438 11.75 16.375 11.554688 C 16.503906 11.480469 16.601562 11.351562 16.632812 11.207031 C 16.667969 11.058594 16.636719 10.902344 16.546875 10.78125 C 16.039062 10.066406 15.414062 9.464844 14.683594 8.988281 C 14.558594 8.90625 14.402344 8.878906 14.257812 8.917969 C 14.109375 8.957031 13.988281 9.054688 13.917969 9.1875 C 13.734375 9.546875 13.308594 9.707031 12.933594 9.558594 C 12.554688 9.410156 12.355469 9.007812 12.460938 8.617188 C 12.503906 8.46875 12.480469 8.316406 12.398438 8.1875 C 12.320312 8.058594 12.1875 7.972656 12.039062 7.945312 C 11.621094 7.875 11.203125 7.84375 10.785156 7.847656 L 10.785156 6.464844 C 13.671875 6.457031 16.488281 7.949219 18.035156 10.625 C 20 14.03125 19.296875 18.394531 16.363281 21.003906 C 16.144531 21.199219 16.125 21.535156 16.320312 21.757812 C 16.425781 21.875 16.570312 21.9375 16.71875 21.9375 C 16.84375 21.9375 16.96875 21.890625 17.070312 21.800781 C 18.664062 20.386719 19.734375 18.445312 20.089844 16.332031 C 20.445312 14.191406 20.046875 11.972656 18.957031 10.089844 C 17.214844 7.074219 14.042969 5.390625 10.785156 5.398438 L 10.785156 4.785156 C 10.785156 3.519531 11.816406 2.484375 13.085938 2.484375 L 30.839844 2.484375 C 30.519531 2.917969 30.328125 3.457031 30.328125 4.035156 L 30.328125 18.65625 C 27.890625 18.878906 25.972656 20.933594 25.972656 23.429688 C 25.972656 25.925781 27.890625 27.984375 30.328125 28.207031 L 30.328125 32.960938 C 30.328125 33.820312 29.632812 34.519531 28.777344 34.519531 C 27.921875 34.519531 27.230469 33.824219 27.230469 32.96875 L 27.230469 29.25 C 27.230469 27.808594 26.054688 26.636719 24.613281 26.636719 L 10.785156 26.636719 L 10.785156 24.175781 C 10.804688 24.175781 10.820312 24.175781 10.839844 24.175781 C 12.035156 24.175781 13.246094 23.949219 14.398438 23.472656 L 14.363281 23.601562 C 14.277344 23.882812 14.441406 24.179688 14.722656 24.261719 C 14.773438 24.277344 14.824219 24.285156 14.875 24.285156 C 15.105469 24.285156 15.316406 24.132812 15.386719 23.902344 L 15.765625 22.609375 C 15.765625 22.605469 15.765625 22.605469 15.765625 22.601562 C 15.769531 22.59375 15.769531 22.585938 15.773438 22.574219 C 15.773438 22.566406 15.777344 22.558594 15.777344 22.550781 C 15.78125 22.542969 15.78125 22.535156 15.78125 22.527344 C 15.785156 22.515625 15.785156 22.507812 15.785156 22.5 C 15.785156 22.492188 15.785156 22.484375 15.785156 22.476562 C 15.785156 22.464844 15.785156 22.457031 15.785156 22.445312 C 15.785156 22.4375 15.785156 22.433594 15.785156 22.425781 C 15.785156 22.414062 15.785156 22.40625 15.78125 22.394531 C 15.78125 22.386719 15.78125 22.378906 15.777344 22.371094 C 15.777344 22.363281 15.777344 22.351562 15.773438 22.34375 C 15.773438 22.335938 15.769531 22.328125 15.769531 22.316406 C 15.765625 22.308594 15.761719 22.300781 15.761719 22.292969 C 15.757812 22.285156 15.753906 22.277344 15.75 22.269531 C 15.75 22.261719 15.746094 22.253906 15.742188 22.246094 C 15.738281 22.238281 15.734375 22.230469 15.730469 22.222656 C 15.726562 22.214844 15.722656 22.207031 15.71875 22.195312 C 15.71875 22.195312 15.714844 22.195312 15.714844 22.191406 C 15.710938 22.1875 15.710938 22.183594 15.707031 22.179688 C 15.699219 22.167969 15.695312 22.160156 15.691406 22.152344 C 15.683594 22.144531 15.679688 22.140625 15.675781 22.132812 C 15.667969 22.125 15.664062 22.117188 15.660156 22.113281 C 15.652344 22.105469 15.648438 22.097656 15.640625 22.09375 C 15.632812 22.085938 15.628906 22.078125 15.621094 22.074219 C 15.617188 22.066406 15.609375 22.0625 15.601562 22.054688 C 15.597656 22.050781 15.589844 22.042969 15.582031 22.039062 C 15.578125 22.035156 15.570312 22.027344 15.5625 22.023438 C 15.554688 22.019531 15.546875 22.015625 15.539062 22.007812 C 15.535156 22.003906 15.527344 22 15.519531 21.996094 C 15.511719 21.992188 15.503906 21.988281 15.496094 21.984375 C 15.488281 21.980469 15.480469 21.976562 15.472656 21.972656 C 15.464844 21.96875 15.457031 21.964844 15.449219 21.960938 C 15.4375 21.957031 15.429688 21.957031 15.421875 21.953125 C 15.414062 21.949219 15.410156 21.949219 15.402344 21.945312 L 14.113281 21.566406 C 13.832031 21.484375 13.535156 21.644531 13.453125 21.925781 C 13.371094 22.195312 13.511719 22.472656 13.769531 22.574219 C 12.796875 22.941406 11.785156 23.117188 10.785156 23.109375 Z M 14.789062 14.804688 C 14.789062 12.644531 13.03125 10.886719 10.871094 10.886719 C 8.714844 10.886719 6.957031 12.644531 6.957031 14.804688 C 6.957031 16.964844 8.714844 18.722656 10.871094 18.722656 C 13.03125 18.722656 14.789062 16.964844 14.789062 14.804688 Z M 8.023438 14.804688 C 8.023438 13.234375 9.300781 11.957031 10.871094 11.957031 C 12.441406 11.957031 13.722656 13.234375 13.722656 14.804688 C 13.722656 16.378906 12.441406 17.65625 10.871094 17.65625 C 9.300781 17.65625 8.023438 16.378906 8.023438 14.804688 Z M 30.765625 20.09375 C 31.0625 20.09375 31.300781 20.332031 31.300781 20.628906 L 31.300781 21.164062 C 31.746094 21.308594 32.109375 21.621094 32.269531 22.039062 C 32.378906 22.3125 32.242188 22.621094 31.96875 22.726562 C 31.691406 22.835938 31.382812 22.699219 31.277344 22.425781 C 31.222656 22.289062 31.03125 22.148438 30.765625 22.148438 C 30.480469 22.148438 30.238281 22.320312 30.238281 22.519531 C 30.238281 22.714844 30.238281 22.773438 30.875 22.902344 C 31.394531 23.007812 32.363281 23.207031 32.363281 24.332031 C 32.363281 24.957031 31.917969 25.488281 31.300781 25.6875 L 31.300781 26.234375 C 31.300781 26.527344 31.0625 26.765625 30.765625 26.765625 C 30.472656 26.765625 30.234375 26.527344 30.234375 26.234375 L 30.234375 25.6875 C 29.851562 25.566406 29.527344 25.316406 29.339844 24.976562 C 29.195312 24.71875 29.289062 24.394531 29.546875 24.25 C 29.804688 24.109375 30.128906 24.199219 30.269531 24.457031 C 30.339844 24.582031 30.519531 24.703125 30.765625 24.703125 C 31.050781 24.703125 31.296875 24.53125 31.296875 24.332031 C 31.296875 24.136719 31.296875 24.078125 30.660156 23.949219 C 30.140625 23.84375 29.171875 23.644531 29.171875 22.519531 C 29.171875 21.894531 29.613281 21.363281 30.234375 21.164062 L 30.234375 20.628906 C 30.234375 20.332031 30.472656 20.09375 30.765625 20.09375 Z M 26.589844 5.800781 L 17.128906 5.800781 C 16.832031 5.800781 16.59375 5.5625 16.59375 5.265625 C 16.59375 4.972656 16.832031 4.734375 17.128906 4.734375 L 26.589844 4.734375 C 26.882812 4.734375 27.121094 4.972656 27.121094 5.265625 C 27.121094 5.5625 26.882812 5.800781 26.589844 5.800781 Z M 28.097656 5.644531 C 28 5.542969 27.941406 5.40625 27.941406 5.265625 C 27.941406 5.125 28 4.988281 28.097656 4.890625 C 28.125 4.863281 28.152344 4.84375 28.179688 4.824219 C 28.210938 4.804688 28.242188 4.785156 28.273438 4.773438 C 28.304688 4.761719 28.339844 4.75 28.371094 4.742188 C 28.546875 4.707031 28.730469 4.765625 28.855469 4.890625 C 28.953125 4.988281 29.011719 5.125 29.011719 5.265625 C 29.011719 5.300781 29.007812 5.335938 29 5.371094 C 28.992188 5.40625 28.984375 5.4375 28.96875 5.46875 C 28.957031 5.503906 28.9375 5.535156 28.921875 5.5625 C 28.902344 5.59375 28.878906 5.617188 28.855469 5.644531 C 28.828125 5.667969 28.800781 5.691406 28.773438 5.710938 C 28.742188 5.730469 28.710938 5.746094 28.679688 5.757812 C 28.648438 5.773438 28.613281 5.78125 28.582031 5.789062 C 28.546875 5.796875 28.511719 5.800781 28.476562 5.800781 C 28.441406 5.800781 28.40625 5.796875 28.371094 5.789062 C 28.339844 5.78125 28.304688 5.773438 28.273438 5.757812 C 28.242188 5.746094 28.207031 5.730469 28.179688 5.710938 C 28.152344 5.691406 28.125 5.667969 28.097656 5.644531 Z M 26.589844 8.257812 L 19.632812 8.257812 C 19.335938 8.257812 19.097656 8.019531 19.097656 7.722656 C 19.097656 7.429688 19.335938 7.191406 19.632812 7.191406 L 26.589844 7.191406 C 26.882812 7.191406 27.121094 7.429688 27.121094 7.722656 C 27.121094 8.019531 26.882812 8.257812 26.589844 8.257812 Z M 27.953125 7.828125 C 27.945312 7.792969 27.941406 7.757812 27.941406 7.722656 C 27.941406 7.6875 27.945312 7.652344 27.953125 7.617188 C 27.960938 7.585938 27.972656 7.550781 27.984375 7.519531 C 27.996094 7.488281 28.015625 7.457031 28.03125 7.425781 C 28.050781 7.398438 28.074219 7.371094 28.097656 7.347656 C 28.125 7.320312 28.152344 7.300781 28.179688 7.28125 C 28.210938 7.261719 28.242188 7.242188 28.273438 7.230469 C 28.304688 7.21875 28.339844 7.207031 28.371094 7.199219 C 28.441406 7.1875 28.511719 7.1875 28.582031 7.199219 C 28.613281 7.207031 28.648438 7.21875 28.679688 7.230469 C 28.710938 7.242188 28.742188 7.261719 28.773438 7.28125 C 28.800781 7.300781 28.828125 7.320312 28.855469 7.347656 C 28.878906 7.371094 28.902344 7.398438 28.921875 7.425781 C 28.9375 7.457031 28.957031 7.488281 28.96875 7.519531 C 28.984375 7.550781 28.992188 7.585938 29 7.617188 C 29.007812 7.652344 29.011719 7.6875 29.011719 7.722656 C 29.011719 7.757812 29.007812 7.792969 29 7.828125 C 28.992188 7.863281 28.984375 7.894531 28.96875 7.925781 C 28.957031 7.960938 28.9375 7.992188 28.921875 8.019531 C 28.902344 8.050781 28.878906 8.078125 28.855469 8.101562 C 28.828125 8.125 28.800781 8.148438 28.773438 8.167969 C 28.742188 8.1875 28.714844 8.203125 28.679688 8.214844 C 28.648438 8.230469 28.613281 8.238281 28.582031 8.246094 C 28.546875 8.253906 28.511719 8.257812 28.476562 8.257812 C 28.441406 8.257812 28.40625 8.253906 28.371094 8.246094 C 28.339844 8.238281 28.304688 8.230469 28.273438 8.214844 C 28.242188 8.203125 28.210938 8.1875 28.179688 8.167969 C 28.152344 8.148438 28.125 8.125 28.097656 8.101562 C 28.074219 8.078125 28.050781 8.050781 28.03125 8.019531 C 28.015625 7.992188 27.996094 7.960938 27.984375 7.925781 C 27.96875 7.894531 27.960938 7.863281 27.953125 7.828125 Z M 27.121094 10.179688 C 27.121094 10.476562 26.882812 10.714844 26.589844 10.714844 L 22.230469 10.714844 C 21.9375 10.714844 21.699219 10.476562 21.699219 10.179688 C 21.699219 9.886719 21.9375 9.648438 22.230469 9.648438 L 26.589844 9.648438 C 26.882812 9.648438 27.121094 9.886719 27.121094 10.179688 Z M 28.097656 10.558594 C 28 10.457031 27.941406 10.320312 27.941406 10.179688 C 27.941406 10.039062 28 9.902344 28.097656 9.804688 C 28.125 9.78125 28.152344 9.757812 28.179688 9.738281 C 28.210938 9.71875 28.242188 9.703125 28.273438 9.6875 C 28.304688 9.675781 28.339844 9.664062 28.371094 9.65625 C 28.441406 9.644531 28.511719 9.644531 28.582031 9.65625 C 28.613281 9.664062 28.648438 9.675781 28.679688 9.6875 C 28.710938 9.703125 28.742188 9.71875 28.773438 9.738281 C 28.800781 9.757812 28.828125 9.78125 28.855469 9.804688 C 28.878906 9.828125 28.902344 9.855469 28.921875 9.886719 C 28.9375 9.914062 28.957031 9.945312 28.96875 9.976562 C 28.984375 10.007812 28.992188 10.042969 29 10.078125 C 29.007812 10.109375 29.011719 10.144531 29.011719 10.179688 C 29.011719 10.320312 28.953125 10.457031 28.855469 10.558594 C 28.828125 10.582031 28.800781 10.605469 28.773438 10.625 C 28.742188 10.644531 28.714844 10.660156 28.679688 10.671875 C 28.648438 10.6875 28.613281 10.695312 28.582031 10.703125 C 28.546875 10.710938 28.511719 10.714844 28.476562 10.714844 C 28.441406 10.714844 28.40625 10.710938 28.371094 10.703125 C 28.339844 10.695312 28.304688 10.6875 28.273438 10.671875 C 28.242188 10.660156 28.210938 10.644531 28.179688 10.625 C 28.152344 10.605469 28.125 10.582031 28.097656 10.558594 Z M 27.121094 12.636719 C 27.121094 12.933594 26.882812 13.171875 26.589844 13.171875 L 22.230469 13.171875 C 21.9375 13.171875 21.699219 12.933594 21.699219 12.636719 C 21.699219 12.34375 21.9375 12.105469 22.230469 12.105469 L 26.589844 12.105469 C 26.882812 12.105469 27.121094 12.34375 27.121094 12.636719 Z M 27.953125 12.742188 C 27.945312 12.707031 27.941406 12.671875 27.941406 12.636719 C 27.941406 12.5 28 12.359375 28.097656 12.261719 C 28.125 12.238281 28.152344 12.214844 28.179688 12.195312 C 28.210938 12.175781 28.242188 12.160156 28.273438 12.144531 C 28.304688 12.132812 28.339844 12.121094 28.371094 12.113281 C 28.546875 12.082031 28.730469 12.136719 28.855469 12.261719 C 28.953125 12.359375 29.011719 12.496094 29.011719 12.636719 C 29.011719 12.671875 29.007812 12.707031 29 12.742188 C 28.992188 12.777344 28.984375 12.808594 28.96875 12.84375 C 28.957031 12.875 28.9375 12.90625 28.921875 12.933594 C 28.902344 12.964844 28.878906 12.992188 28.855469 13.015625 C 28.828125 13.039062 28.800781 13.0625 28.773438 13.082031 C 28.742188 13.101562 28.714844 13.117188 28.679688 13.132812 C 28.648438 13.144531 28.613281 13.152344 28.582031 13.160156 C 28.546875 13.167969 28.511719 13.171875 28.476562 13.171875 C 28.441406 13.171875 28.40625 13.167969 28.371094 13.160156 C 28.339844 13.15625 28.304688 13.144531 28.273438 13.132812 C 28.242188 13.117188 28.210938 13.101562 28.179688 13.082031 C 28.152344 13.0625 28.125 13.039062 28.097656 13.015625 C 28.074219 12.992188 28.050781 12.964844 28.03125 12.933594 C 28.015625 12.90625 27.996094 12.875 27.984375 12.84375 C 27.96875 12.808594 27.960938 12.777344 27.953125 12.742188 Z M 27.121094 15.097656 C 27.121094 15.390625 26.882812 15.628906 26.589844 15.628906 L 22.230469 15.628906 C 21.9375 15.628906 21.699219 15.390625 21.699219 15.097656 C 21.699219 14.800781 21.9375 14.5625 22.230469 14.5625 L 26.589844 14.5625 C 26.882812 14.5625 27.121094 14.800781 27.121094 15.097656 Z M 28.097656 15.472656 C 28 15.375 27.941406 15.234375 27.941406 15.09375 C 27.941406 14.957031 28 14.816406 28.097656 14.71875 C 28.125 14.695312 28.152344 14.671875 28.179688 14.652344 C 28.210938 14.632812 28.242188 14.617188 28.273438 14.601562 C 28.304688 14.589844 28.339844 14.578125 28.371094 14.574219 C 28.546875 14.539062 28.730469 14.59375 28.855469 14.71875 C 28.953125 14.816406 29.011719 14.957031 29.011719 15.09375 C 29.011719 15.128906 29.007812 15.164062 29 15.199219 C 28.992188 15.234375 28.984375 15.269531 28.96875 15.300781 C 28.957031 15.332031 28.9375 15.363281 28.921875 15.390625 C 28.902344 15.421875 28.878906 15.449219 28.855469 15.472656 C 28.828125 15.496094 28.800781 15.519531 28.773438 15.539062 C 28.742188 15.558594 28.710938 15.574219 28.679688 15.589844 C 28.648438 15.601562 28.613281 15.613281 28.582031 15.617188 C 28.546875 15.625 28.511719 15.628906 28.476562 15.628906 C 28.441406 15.628906 28.40625 15.625 28.371094 15.617188 C 28.339844 15.613281 28.304688 15.601562 28.273438 15.589844 C 28.242188 15.574219 28.207031 15.558594 28.179688 15.539062 C 28.152344 15.519531 28.125 15.496094 28.097656 15.472656 Z M 27.121094 17.554688 C 27.121094 17.847656 26.882812 18.089844 26.589844 18.089844 L 22.230469 18.089844 C 21.9375 18.089844 21.699219 17.847656 21.699219 17.554688 C 21.699219 17.261719 21.9375 17.019531 22.230469 17.019531 L 26.589844 17.019531 C 26.882812 17.019531 27.121094 17.261719 27.121094 17.554688 Z M 28.097656 17.933594 C 28 17.832031 27.941406 17.695312 27.941406 17.554688 C 27.941406 17.414062 28 17.277344 28.097656 17.175781 C 28.125 17.152344 28.152344 17.132812 28.179688 17.113281 C 28.210938 17.09375 28.242188 17.074219 28.273438 17.0625 C 28.304688 17.050781 28.339844 17.039062 28.371094 17.03125 C 28.546875 16.996094 28.730469 17.054688 28.855469 17.175781 C 28.953125 17.277344 29.011719 17.414062 29.011719 17.554688 C 29.011719 17.589844 29.007812 17.625 29 17.660156 C 28.992188 17.691406 28.984375 17.726562 28.96875 17.757812 C 28.957031 17.789062 28.9375 17.824219 28.921875 17.851562 C 28.902344 17.878906 28.878906 17.90625 28.855469 17.933594 C 28.828125 17.957031 28.800781 17.980469 28.773438 18 C 28.742188 18.019531 28.710938 18.035156 28.679688 18.046875 C 28.648438 18.0625 28.613281 18.070312 28.582031 18.078125 C 28.546875 18.085938 28.511719 18.089844 28.476562 18.089844 C 28.441406 18.089844 28.40625 18.085938 28.371094 18.078125 C 28.339844 18.070312 28.304688 18.0625 28.273438 18.046875 C 28.242188 18.035156 28.207031 18.019531 28.179688 18 C 28.152344 17.980469 28.125 17.957031 28.097656 17.933594 Z M 28.097656 17.933594 " fill-opacity="1" fill-rule="nonzero"/></g></svg>