<svg xmlns="http://www.w3.org/2000/svg" xmlns:xlink="http://www.w3.org/1999/xlink" width="50" zoomAndPan="magnify" viewBox="0 0 37.5 37.499999" height="50" preserveAspectRatio="xMidYMid meet" version="1.0"><defs><clipPath id="e2a8f4b4cb"><path d="M 6 3 L 33.449219 3 L 33.449219 36.820312 L 6 36.820312 Z M 6 3 " clip-rule="nonzero"/></clipPath><clipPath id="d2dac4ebf1"><path d="M 27 3 L 33.449219 3 L 33.449219 10 L 27 10 Z M 27 3 " clip-rule="nonzero"/></clipPath><clipPath id="5ed4ee0b4e"><path d="M 3.105469 0.554688 L 13 0.554688 L 13 11 L 3.105469 11 Z M 3.105469 0.554688 " clip-rule="nonzero"/></clipPath></defs><g clip-path="url(#e2a8f4b4cb)"><path fill="#183d79" d="M 30.683594 36.449219 L 9.488281 36.449219 C 8.054688 36.449219 6.890625 35.289062 6.890625 33.851562 L 6.890625 9.617188 C 6.890625 9.453125 6.976562 9.304688 7.109375 9.21875 C 7.242188 9.132812 7.414062 9.125 7.5625 9.195312 C 7.585938 9.203125 7.601562 9.21875 7.625 9.226562 C 8.367188 8.875 9.339844 8.25 10.105469 7.160156 C 10.695312 6.300781 11.054688 5.320312 11.164062 4.234375 C 11.1875 3.992188 11.390625 3.8125 11.632812 3.8125 L 28.21875 3.8125 C 28.34375 3.8125 28.460938 3.859375 28.546875 3.953125 C 30.332031 5.738281 31.339844 6.746094 33.109375 8.515625 L 33.148438 8.554688 C 33.234375 8.640625 33.289062 8.757812 33.289062 8.882812 L 33.289062 33.84375 C 33.28125 35.289062 32.121094 36.449219 30.683594 36.449219 Z M 7.828125 10.152344 L 7.828125 33.84375 C 7.828125 34.765625 8.574219 35.507812 9.488281 35.507812 L 30.683594 35.507812 C 31.597656 35.507812 32.347656 34.757812 32.347656 33.84375 L 32.347656 9.078125 C 30.675781 7.410156 29.6875 6.410156 28.019531 4.75 L 12.039062 4.75 C 11.867188 5.824219 11.476562 6.816406 10.867188 7.6875 C 9.925781 9.046875 8.691406 9.777344 7.828125 10.152344 Z M 7.828125 10.152344 " fill-opacity="1" fill-rule="nonzero"/></g><g clip-path="url(#d2dac4ebf1)"><path fill="#183d79" d="M 32.773438 9.3125 L 29.304688 9.3125 C 28.445312 9.3125 27.746094 8.609375 27.746094 7.75 L 27.746094 4.28125 C 27.746094 4.09375 27.863281 3.921875 28.03125 3.851562 C 28.203125 3.78125 28.40625 3.820312 28.539062 3.953125 C 30.324219 5.738281 31.332031 6.746094 33.101562 8.515625 C 33.234375 8.648438 33.273438 8.851562 33.203125 9.023438 C 33.132812 9.195312 32.960938 9.3125 32.773438 9.3125 Z M 28.679688 5.414062 L 28.679688 7.75 C 28.679688 8.09375 28.960938 8.375 29.304688 8.375 L 31.644531 8.375 C 30.574219 7.308594 29.75 6.480469 28.679688 5.414062 Z M 28.679688 5.414062 " fill-opacity="1" fill-rule="nonzero"/></g><g clip-path="url(#5ed4ee0b4e)"><path fill="#183d79" d="M 7.625 10.199219 C 7.5625 10.199219 7.5 10.183594 7.4375 10.160156 C 7.351562 10.121094 7.257812 10.082031 7.15625 10.027344 C 6.375 9.65625 5.253906 8.9375 4.378906 7.679688 C 2.8125 5.425781 3.070312 3.003906 3.257812 2.066406 C 3.296875 1.847656 3.484375 1.691406 3.703125 1.691406 C 4.324219 1.675781 4.941406 1.582031 5.542969 1.410156 C 6.191406 1.230469 6.804688 0.96875 7.382812 0.617188 C 7.53125 0.53125 7.71875 0.53125 7.867188 0.617188 C 8.445312 0.960938 9.066406 1.222656 9.707031 1.410156 C 10.308594 1.582031 10.929688 1.675781 11.546875 1.691406 C 11.765625 1.699219 11.953125 1.855469 11.992188 2.074219 C 12.132812 2.792969 12.164062 3.570312 12.085938 4.328125 C 11.960938 5.574219 11.546875 6.707031 10.859375 7.6875 C 9.910156 9.054688 8.667969 9.785156 7.804688 10.167969 C 7.75 10.191406 7.6875 10.199219 7.625 10.199219 Z M 4.117188 2.613281 C 3.984375 3.59375 3.953125 5.433594 5.152344 7.152344 C 5.910156 8.242188 6.882812 8.859375 7.570312 9.1875 C 7.59375 9.195312 7.609375 9.210938 7.632812 9.21875 C 8.375 8.867188 9.347656 8.242188 10.113281 7.152344 C 10.703125 6.292969 11.0625 5.3125 11.171875 4.226562 C 11.226562 3.6875 11.21875 3.136719 11.148438 2.605469 C 10.582031 2.566406 10.019531 2.464844 9.464844 2.308594 C 8.824219 2.128906 8.21875 1.878906 7.632812 1.558594 C 7.054688 1.878906 6.4375 2.136719 5.800781 2.308594 C 5.246094 2.472656 4.675781 2.574219 4.117188 2.613281 Z M 4.117188 2.613281 " fill-opacity="1" fill-rule="nonzero"/></g><path fill="#183d79" d="M 7.289062 7.214844 C 7.15625 7.214844 7.03125 7.160156 6.945312 7.066406 L 5.519531 5.503906 C 5.347656 5.320312 5.355469 5.023438 5.550781 4.84375 C 5.738281 4.671875 6.035156 4.679688 6.214844 4.875 L 7.257812 6.011719 L 9.050781 3.53125 C 9.207031 3.320312 9.496094 3.273438 9.707031 3.429688 C 9.917969 3.585938 9.964844 3.875 9.808594 4.085938 L 7.664062 7.035156 C 7.578125 7.152344 7.453125 7.222656 7.3125 7.230469 C 7.304688 7.214844 7.296875 7.214844 7.289062 7.214844 Z M 7.289062 7.214844 " fill-opacity="1" fill-rule="nonzero"/><path fill="#183d79" d="M 21.375 10.457031 L 11.5 10.457031 C 11.242188 10.457031 11.03125 10.246094 11.03125 9.988281 C 11.03125 9.734375 11.242188 9.523438 11.5 9.523438 L 21.375 9.523438 C 21.628906 9.523438 21.839844 9.734375 21.839844 9.988281 C 21.839844 10.246094 21.636719 10.457031 21.375 10.457031 Z M 21.375 10.457031 " fill-opacity="1" fill-rule="nonzero"/><path fill="#183d79" d="M 27.652344 14.113281 L 11.21875 14.113281 C 10.960938 14.113281 10.75 13.90625 10.75 13.648438 C 10.75 13.390625 10.960938 13.179688 11.21875 13.179688 L 27.660156 13.179688 C 27.917969 13.179688 28.125 13.390625 28.125 13.648438 C 28.125 13.90625 27.910156 14.113281 27.652344 14.113281 Z M 27.652344 14.113281 " fill-opacity="1" fill-rule="nonzero"/><path fill="#183d79" d="M 29.453125 17.875 L 10.773438 17.875 C 10.519531 17.875 10.308594 17.664062 10.308594 17.40625 C 10.308594 17.148438 10.519531 16.9375 10.773438 16.9375 L 29.453125 16.9375 C 29.710938 16.9375 29.921875 17.148438 29.921875 17.40625 C 29.921875 17.664062 29.710938 17.875 29.453125 17.875 Z M 29.453125 17.875 " fill-opacity="1" fill-rule="nonzero"/><path fill="#183d79" d="M 20.109375 21.335938 L 10.773438 21.335938 C 10.519531 21.335938 10.308594 21.125 10.308594 20.867188 C 10.308594 20.613281 10.519531 20.402344 10.773438 20.402344 L 20.109375 20.402344 C 20.367188 20.402344 20.578125 20.613281 20.578125 20.867188 C 20.578125 21.125 20.375 21.335938 20.109375 21.335938 Z M 20.109375 21.335938 " fill-opacity="1" fill-rule="nonzero"/><path fill="#183d79" d="M 11.195312 30.429688 C 11.03125 30.429688 10.867188 30.34375 10.78125 30.1875 C 10.65625 29.960938 10.742188 29.671875 10.96875 29.554688 C 11.429688 29.308594 11.882812 29.035156 12.320312 28.746094 C 12.289062 28.464844 12.328125 28.199219 12.351562 28.019531 C 12.445312 27.339844 12.585938 26.554688 12.949219 25.859375 C 13.378906 25.039062 14.074219 24.488281 14.847656 24.339844 C 15.390625 24.238281 15.867188 24.386719 16.132812 24.746094 C 16.328125 25.007812 16.382812 25.359375 16.304688 25.78125 C 16.085938 26.921875 15.21875 27.730469 14.410156 28.386719 C 14.160156 28.589844 13.902344 28.785156 13.636719 28.972656 C 13.738281 28.980469 13.847656 28.980469 13.972656 28.964844 C 14.925781 28.839844 15.804688 28.199219 16.226562 27.339844 C 16.3125 27.167969 16.492188 27.070312 16.679688 27.085938 C 16.867188 27.101562 17.03125 27.222656 17.09375 27.402344 C 17.183594 27.699219 17.148438 27.988281 17.109375 28.222656 C 17.09375 28.332031 17.0625 28.542969 17.09375 28.582031 C 17.109375 28.589844 17.183594 28.605469 17.261719 28.574219 C 17.410156 28.519531 17.558594 28.378906 17.707031 28.238281 C 17.808594 28.144531 17.941406 28.097656 18.074219 28.113281 C 18.207031 28.128906 18.332031 28.199219 18.410156 28.308594 C 18.613281 28.597656 18.933594 28.792969 19.277344 28.839844 C 19.617188 28.886719 19.984375 28.785156 20.257812 28.566406 C 20.460938 28.402344 20.757812 28.433594 20.914062 28.636719 C 21.078125 28.839844 21.046875 29.136719 20.84375 29.292969 C 20.375 29.671875 19.734375 29.84375 19.144531 29.757812 C 18.714844 29.695312 18.308594 29.5 17.980469 29.222656 C 17.863281 29.308594 17.722656 29.390625 17.566406 29.445312 C 17.117188 29.609375 16.625 29.492188 16.351562 29.160156 C 16.28125 29.074219 16.234375 28.980469 16.195312 28.886719 C 15.609375 29.414062 14.878906 29.773438 14.082031 29.882812 C 13.519531 29.960938 13.042969 29.851562 12.726562 29.578125 C 12.296875 29.859375 11.851562 30.125 11.398438 30.375 C 11.351562 30.414062 11.273438 30.429688 11.195312 30.429688 Z M 15.164062 25.234375 C 15.117188 25.234375 15.070312 25.242188 15.015625 25.25 C 14.535156 25.34375 14.066406 25.734375 13.769531 26.289062 C 13.480469 26.828125 13.363281 27.480469 13.277344 28.058594 C 13.457031 27.925781 13.636719 27.785156 13.816406 27.644531 C 14.496094 27.101562 15.210938 26.4375 15.375 25.59375 C 15.40625 25.421875 15.390625 25.320312 15.367188 25.289062 C 15.359375 25.265625 15.28125 25.234375 15.164062 25.234375 Z M 15.164062 25.234375 " fill-opacity="1" fill-rule="nonzero"/><path fill="#183d79" d="M 21.179688 29.71875 C 21.0625 29.71875 20.945312 29.671875 20.851562 29.585938 C 20.703125 29.4375 20.664062 29.214844 20.765625 29.035156 L 22.597656 25.585938 C 22.613281 25.546875 22.636719 25.515625 22.667969 25.484375 L 27.480469 20.292969 C 27.761719 19.996094 28.132812 19.824219 28.539062 19.808594 C 28.945312 19.800781 29.335938 19.949219 29.632812 20.230469 C 30.230469 20.796875 30.253906 21.757812 29.6875 22.359375 L 24.34375 27.996094 C 24.3125 28.027344 24.273438 28.058594 24.234375 28.082031 L 21.40625 29.65625 C 21.335938 29.703125 21.257812 29.71875 21.179688 29.71875 Z M 23.394531 26.078125 L 22.332031 28.066406 L 23.703125 27.300781 L 29 21.710938 C 29.21875 21.484375 29.210938 21.117188 28.976562 20.898438 C 28.867188 20.789062 28.71875 20.734375 28.5625 20.742188 C 28.40625 20.75 28.265625 20.8125 28.15625 20.929688 Z M 23.394531 26.078125 " fill-opacity="1" fill-rule="nonzero"/><path fill="#183d79" d="M 23.472656 27.722656 C 23.332031 27.722656 23.199219 27.660156 23.105469 27.542969 L 22.433594 26.703125 C 22.269531 26.5 22.300781 26.203125 22.503906 26.046875 C 22.707031 25.882812 23.003906 25.921875 23.160156 26.117188 L 23.828125 26.960938 C 23.992188 27.160156 23.960938 27.457031 23.757812 27.613281 C 23.675781 27.691406 23.574219 27.722656 23.472656 27.722656 Z M 23.472656 27.722656 " fill-opacity="1" fill-rule="nonzero"/><path fill="#183d79" d="M 27.488281 26.570312 C 27.355469 26.570312 27.222656 26.515625 27.128906 26.40625 C 26.957031 26.210938 26.980469 25.914062 27.183594 25.742188 L 29.265625 23.964844 C 29.359375 23.886719 29.375 23.785156 29.375 23.730469 C 29.375 23.675781 29.359375 23.574219 29.265625 23.496094 L 27.105469 21.6875 C 26.910156 21.523438 26.878906 21.226562 27.050781 21.023438 C 27.214844 20.828125 27.511719 20.796875 27.714844 20.96875 L 29.875 22.78125 C 30.15625 23.011719 30.316406 23.355469 30.316406 23.722656 C 30.316406 24.089844 30.164062 24.433594 29.882812 24.675781 L 27.792969 26.453125 C 27.699219 26.53125 27.589844 26.570312 27.488281 26.570312 Z M 27.488281 26.570312 " fill-opacity="1" fill-rule="nonzero"/></svg>