<svg xmlns="http://www.w3.org/2000/svg" xmlns:xlink="http://www.w3.org/1999/xlink" width="50" zoomAndPan="magnify" viewBox="0 0 37.5 37.499999" height="50" preserveAspectRatio="xMidYMid meet" version="1.0"><defs><clipPath id="8e0773d229"><path d="M 1.851562 0.605469 L 35.15625 0.605469 L 35.15625 36.875 L 1.851562 36.875 Z M 1.851562 0.605469 " clip-rule="nonzero"/></clipPath></defs><g clip-path="url(#8e0773d229)"><path fill="#183d79" d="M 24.546875 4.226562 C 24.21875 2.800781 22.933594 1.75 21.433594 1.75 L 13.335938 1.75 C 13.140625 1.75 12.957031 1.769531 12.78125 1.808594 L 12.78125 4.226562 Z M 24.378906 17.496094 C 25.8125 17.496094 26.972656 18.660156 26.972656 20.089844 C 26.972656 21.523438 25.8125 22.6875 24.378906 22.6875 C 22.664062 22.6875 21.4375 21.054688 21.875 19.417969 C 21.972656 19.046875 22.410156 18.859375 22.765625 19.109375 C 23.121094 19.355469 23.667969 19.019531 23.53125 18.542969 C 23.519531 18.496094 23.5 18.453125 23.476562 18.414062 C 23.261719 18.078125 23.457031 17.636719 23.839844 17.554688 C 23.839844 17.554688 24.378906 17.496094 24.378906 17.496094 Z M 25.40625 19.0625 C 25.214844 18.871094 24.96875 18.734375 24.691406 18.671875 C 24.695312 19.632812 23.894531 20.386719 22.945312 20.328125 C 23.136719 21.488281 24.570312 21.957031 25.40625 21.121094 C 25.972656 20.550781 25.972656 19.632812 25.40625 19.0625 Z M 21.734375 15.503906 L 21.730469 15.507812 C 19.214844 16.941406 18.328125 20.199219 19.792969 22.738281 L 19.796875 22.738281 C 21.261719 25.273438 24.496094 26.140625 27.027344 24.675781 C 29.5625 23.214844 30.429688 19.976562 28.964844 17.445312 C 27.5 14.910156 24.265625 14.042969 21.734375 15.503906 Z M 25.457031 16.078125 C 23.238281 15.484375 20.960938 16.800781 20.367188 19.015625 C 19.773438 21.230469 21.085938 23.511719 23.304688 24.105469 C 25.523438 24.699219 27.800781 23.386719 28.394531 21.167969 C 28.667969 20.140625 28.550781 19.007812 27.980469 18.015625 C 27.394531 17.015625 26.496094 16.355469 25.457031 16.078125 Z M 29.304688 31.609375 L 27.195312 27.085938 C 27.957031 26.777344 28.671875 26.34375 29.292969 25.808594 L 32.1875 29.945312 Z M 32.84375 30.878906 L 29.789062 32.640625 L 30.382812 33.917969 C 30.617188 34.421875 30.988281 34.746094 31.515625 34.914062 C 32.074219 35.089844 32.550781 35.015625 33.050781 34.730469 C 34.015625 34.171875 34.28125 32.933594 33.648438 32.03125 Z M 20.613281 13.5625 C 20.78125 13.46875 20.949219 13.378906 21.125 13.292969 L 9.511719 13.292969 C 9.195312 13.292969 8.9375 13.039062 8.9375 12.722656 C 8.9375 12.410156 9.195312 12.152344 9.511719 12.152344 L 25.851562 12.152344 C 26.210938 12.152344 26.480469 12.480469 26.414062 12.832031 C 27.144531 13.039062 27.847656 13.355469 28.492188 13.773438 L 28.492188 8.5625 C 28.492188 6.808594 27.054688 5.371094 25.300781 5.371094 L 12.78125 5.371094 L 12.78125 9.980469 C 12.78125 10.296875 12.527344 10.550781 12.210938 10.550781 L 6.871094 10.550781 L 6.871094 32.667969 C 6.871094 34.421875 8.308594 35.859375 10.0625 35.859375 L 25.300781 35.859375 C 27.054688 35.859375 28.492188 34.421875 28.492188 32.667969 C 28.492188 32.636719 28.496094 32.605469 28.5 32.578125 L 26.101562 27.433594 C 23.433594 28.058594 20.609375 27.179688 18.773438 25.128906 L 9.511719 25.128906 C 9.195312 25.128906 8.9375 24.875 8.9375 24.558594 C 8.9375 24.246094 9.195312 23.988281 9.511719 23.988281 L 17.929688 23.988281 C 17.394531 23.105469 17.0625 22.15625 16.921875 21.1875 L 9.511719 21.1875 C 9.195312 21.1875 8.9375 20.929688 8.9375 20.613281 C 8.9375 20.300781 9.195312 20.042969 9.511719 20.042969 L 16.839844 20.042969 C 16.847656 19.082031 17.039062 18.128906 17.402344 17.242188 L 9.511719 17.242188 C 9.195312 17.242188 8.9375 16.984375 8.9375 16.667969 C 8.9375 16.355469 9.195312 16.097656 9.511719 16.097656 L 17.984375 16.097656 C 18.617188 15.085938 19.503906 14.207031 20.613281 13.566406 Z M 29.632812 14.683594 C 32.476562 17.449219 32.695312 21.96875 30.109375 24.992188 L 34.582031 31.382812 C 35.082031 32.097656 35.246094 32.90625 35.054688 33.757812 C 34.859375 34.644531 34.363281 35.285156 33.582031 35.734375 C 32.832031 36.167969 32.003906 36.261719 31.175781 36 C 30.347656 35.738281 29.714844 35.1875 29.351562 34.402344 L 29.308594 34.3125 C 28.648438 35.90625 27.082031 37 25.300781 37 L 10.0625 37 C 7.925781 37 6.121094 35.429688 5.785156 33.359375 C 3.582031 33.148438 1.863281 31.28125 1.863281 29.046875 L 1.863281 11.28125 C 1.863281 10.261719 2.265625 9.363281 3.019531 8.683594 L 10.996094 1.503906 C 11.652344 0.914062 12.445312 0.605469 13.335938 0.605469 L 21.433594 0.605469 C 23.566406 0.605469 25.375 2.175781 25.710938 4.246094 C 27.914062 4.457031 29.632812 6.324219 29.632812 8.558594 Z M 26.035156 13.910156 C 24.453125 13.488281 22.707031 13.667969 21.179688 14.550781 C 19.691406 15.410156 18.636719 16.8125 18.199219 18.433594 C 17.761719 20.066406 17.980469 21.808594 18.839844 23.292969 C 19.691406 24.769531 21.089844 25.832031 22.722656 26.273438 C 23.851562 26.574219 25.0625 26.570312 26.21875 26.222656 C 26.894531 25.996094 26.980469 25.953125 27.609375 25.613281 C 29.125 24.730469 30.140625 23.320312 30.558594 21.75 C 30.980469 20.179688 30.808594 18.453125 29.945312 16.933594 C 29.929688 16.910156 29.914062 16.886719 29.902344 16.859375 C 29.570312 16.292969 29.164062 15.792969 28.703125 15.371094 C 28.6875 15.359375 28.671875 15.347656 28.660156 15.332031 C 27.902344 14.652344 27 14.167969 26.035156 13.910156 Z M 11.644531 2.457031 L 11.644531 9.410156 L 3.917969 9.410156 Z M 3.109375 10.550781 C 3.039062 10.777344 3.003906 11.023438 3.003906 11.285156 L 3.003906 29.046875 C 3.003906 30.632812 4.183594 31.972656 5.730469 32.203125 L 5.730469 10.550781 Z M 25.851562 31.878906 C 26.167969 31.878906 26.421875 32.136719 26.421875 32.449219 C 26.421875 32.765625 26.167969 33.019531 25.851562 33.019531 L 9.511719 33.019531 C 9.195312 33.019531 8.9375 32.765625 8.9375 32.449219 C 8.9375 32.136719 9.195312 31.878906 9.511719 31.878906 Z M 25.851562 27.933594 C 26.167969 27.933594 26.421875 28.191406 26.421875 28.503906 C 26.421875 28.820312 26.167969 29.074219 25.851562 29.074219 L 9.511719 29.074219 C 9.195312 29.074219 8.9375 28.820312 8.9375 28.503906 C 8.9375 28.191406 9.195312 27.933594 9.511719 27.933594 Z M 25.851562 8.207031 C 26.167969 8.207031 26.421875 8.464844 26.421875 8.777344 C 26.421875 9.09375 26.167969 9.347656 25.851562 9.347656 L 13.898438 9.347656 C 13.582031 9.347656 13.328125 9.09375 13.328125 8.777344 C 13.328125 8.464844 13.582031 8.207031 13.898438 8.207031 Z M 25.851562 8.207031 " fill-opacity="1" fill-rule="evenodd"/></g></svg>