<svg xmlns="http://www.w3.org/2000/svg" xmlns:xlink="http://www.w3.org/1999/xlink" width="50" zoomAndPan="magnify" viewBox="0 0 37.5 37.499999" height="50" preserveAspectRatio="xMidYMid meet" version="1.0"><defs><clipPath id="0720b3bf85"><path d="M 0.640625 2.160156 L 36.167969 2.160156 L 36.167969 34.726562 L 0.640625 34.726562 Z M 0.640625 2.160156 " clip-rule="nonzero"/></clipPath></defs><g clip-path="url(#0720b3bf85)"><path fill="#183d79" d="M 23.917969 2.15625 L 32.320312 2.15625 C 33.433594 2.15625 34.441406 2.609375 35.167969 3.339844 C 35.898438 4.070312 36.355469 5.082031 36.355469 6.1875 L 36.355469 17.09375 C 36.355469 18.203125 35.902344 19.210938 35.167969 19.941406 C 34.441406 20.671875 33.429688 21.125 32.320312 21.125 L 23.917969 21.125 C 22.808594 21.125 21.800781 20.671875 21.070312 19.941406 C 20.339844 19.210938 19.886719 18.203125 19.886719 17.09375 L 19.886719 6.1875 C 19.886719 5.078125 20.339844 4.070312 21.070312 3.339844 C 21.800781 2.609375 22.808594 2.15625 23.917969 2.15625 Z M 4.679688 11.429688 L 13.082031 11.429688 C 13.730469 11.429688 14.320312 11.164062 14.746094 10.734375 C 15.175781 10.308594 15.441406 9.71875 15.441406 9.070312 L 15.441406 6.1875 C 15.441406 5.539062 15.175781 4.953125 14.746094 4.523438 C 14.320312 4.097656 13.730469 3.832031 13.082031 3.832031 L 4.679688 3.832031 C 4.03125 3.832031 3.441406 4.097656 3.015625 4.523438 C 2.585938 4.953125 2.320312 5.539062 2.320312 6.1875 L 2.320312 9.070312 C 2.320312 9.71875 2.585938 10.308594 3.015625 10.734375 C 3.441406 11.164062 4.03125 11.429688 4.679688 11.429688 Z M 13.082031 13.101562 L 4.679688 13.101562 C 3.570312 13.101562 2.5625 12.648438 1.832031 11.917969 C 1.101562 11.191406 0.648438 10.179688 0.648438 9.070312 L 0.648438 6.1875 C 0.648438 5.078125 1.097656 4.070312 1.832031 3.339844 C 2.5625 2.609375 3.570312 2.15625 4.679688 2.15625 L 13.082031 2.15625 C 14.195312 2.15625 15.203125 2.609375 15.929688 3.339844 C 16.660156 4.070312 17.113281 5.082031 17.113281 6.1875 L 17.113281 9.070312 C 17.113281 10.183594 16.660156 11.191406 15.929688 11.917969 C 15.203125 12.648438 14.191406 13.101562 13.082031 13.101562 Z M 4.679688 33.160156 L 13.082031 33.160156 C 13.730469 33.160156 14.320312 32.894531 14.746094 32.46875 C 15.175781 32.039062 15.441406 31.453125 15.441406 30.804688 L 15.441406 19.898438 C 15.441406 19.25 15.175781 18.660156 14.746094 18.234375 C 14.320312 17.804688 13.730469 17.542969 13.082031 17.542969 L 4.679688 17.542969 C 4.03125 17.542969 3.441406 17.808594 3.015625 18.234375 C 2.585938 18.664062 2.320312 19.25 2.320312 19.898438 L 2.320312 30.804688 C 2.320312 31.453125 2.585938 32.039062 3.015625 32.46875 C 3.441406 32.894531 4.03125 33.160156 4.679688 33.160156 Z M 13.082031 34.835938 L 4.679688 34.835938 C 3.570312 34.835938 2.5625 34.382812 1.832031 33.652344 C 1.101562 32.921875 0.648438 31.910156 0.648438 30.804688 L 0.648438 19.898438 C 0.648438 18.789062 1.097656 17.78125 1.832031 17.050781 C 2.5625 16.320312 3.570312 15.867188 4.679688 15.867188 L 13.082031 15.867188 C 14.195312 15.867188 15.203125 16.320312 15.929688 17.050781 C 16.660156 17.78125 17.113281 18.789062 17.113281 19.898438 L 17.113281 30.804688 C 17.113281 31.914062 16.660156 32.921875 15.929688 33.652344 C 15.203125 34.382812 14.195312 34.835938 13.082031 34.835938 Z M 23.917969 23.890625 L 32.324219 23.890625 C 33.433594 23.890625 34.441406 24.34375 35.171875 25.074219 C 35.902344 25.800781 36.355469 26.8125 36.355469 27.921875 L 36.355469 30.804688 C 36.355469 31.914062 35.902344 32.921875 35.171875 33.652344 C 34.441406 34.382812 33.433594 34.835938 32.324219 34.835938 L 23.917969 34.835938 C 22.808594 34.835938 21.800781 34.382812 21.070312 33.652344 C 20.339844 32.917969 19.886719 31.910156 19.886719 30.804688 L 19.886719 27.921875 C 19.886719 26.808594 20.339844 25.800781 21.070312 25.074219 C 21.800781 24.34375 22.808594 23.890625 23.917969 23.890625 Z M 32.324219 25.5625 L 23.917969 25.5625 C 23.269531 25.5625 22.683594 25.828125 22.253906 26.257812 C 21.828125 26.683594 21.5625 27.273438 21.5625 27.921875 L 21.5625 30.804688 C 21.5625 31.453125 21.828125 32.039062 22.253906 32.46875 C 22.683594 32.894531 23.269531 33.160156 23.917969 33.160156 L 32.324219 33.160156 C 32.972656 33.160156 33.5625 32.894531 33.988281 32.46875 C 34.417969 32.039062 34.679688 31.453125 34.679688 30.804688 L 34.679688 27.921875 C 34.679688 27.273438 34.414062 26.683594 33.988281 26.257812 C 33.558594 25.828125 32.972656 25.5625 32.324219 25.5625 Z M 32.324219 3.832031 L 23.917969 3.832031 C 23.269531 3.832031 22.683594 4.097656 22.253906 4.523438 C 21.828125 4.953125 21.5625 5.539062 21.5625 6.1875 L 21.5625 17.09375 C 21.5625 17.742188 21.828125 18.332031 22.253906 18.757812 C 22.683594 19.1875 23.269531 19.449219 23.917969 19.449219 L 32.324219 19.449219 C 32.972656 19.449219 33.5625 19.183594 33.988281 18.757812 C 34.417969 18.328125 34.679688 17.742188 34.679688 17.09375 L 34.679688 6.1875 C 34.679688 5.539062 34.414062 4.953125 33.988281 4.523438 C 33.558594 4.097656 32.972656 3.832031 32.324219 3.832031 Z M 32.324219 3.832031 " fill-opacity="1" fill-rule="nonzero"/></g></svg>