<svg xmlns="http://www.w3.org/2000/svg" xmlns:xlink="http://www.w3.org/1999/xlink" width="50" zoomAndPan="magnify" viewBox="0 0 37.5 37.499999" height="50" preserveAspectRatio="xMidYMid meet" version="1.0"><defs><clipPath id="25b4dd350c"><path d="M 0.925781 3 L 34 3 L 34 35.710938 L 0.925781 35.710938 Z M 0.925781 3 " clip-rule="nonzero"/></clipPath><clipPath id="85ced4a96e"><path d="M 27 1 L 35.710938 1 L 35.710938 10 L 27 10 Z M 27 1 " clip-rule="nonzero"/></clipPath></defs><g clip-path="url(#25b4dd350c)"><path fill="#11497c" d="M 30.4375 33.386719 L 3.609375 33.386719 L 3.609375 6.558594 L 19.707031 6.558594 L 19.707031 3.878906 L 3.609375 3.878906 C 2.128906 3.878906 0.925781 5.078125 0.925781 6.558594 L 0.925781 33.386719 C 0.925781 34.867188 2.128906 36.070312 3.609375 36.070312 L 30.4375 36.070312 C 31.917969 36.070312 33.121094 34.867188 33.121094 33.386719 L 33.121094 17.292969 L 30.4375 17.292969 Z M 30.4375 33.386719 " fill-opacity="1" fill-rule="nonzero"/></g><path fill="#11497c" d="M 11.65625 25.382812 L 17.304688 25.382812 L 30.992188 11.695312 L 25.300781 6.003906 L 11.65625 19.648438 Z M 11.65625 25.382812 " fill-opacity="1" fill-rule="nonzero"/><g clip-path="url(#85ced4a96e)"><path fill="#11497c" d="M 35.015625 3.878906 L 33.121094 1.980469 C 32.070312 0.929688 30.371094 0.929688 29.328125 1.980469 L 27.199219 4.109375 L 32.890625 9.796875 L 35.015625 7.671875 C 36.066406 6.621094 36.066406 4.921875 35.015625 3.878906 Z M 35.015625 3.878906 " fill-opacity="1" fill-rule="nonzero"/></g></svg>