<svg xmlns="http://www.w3.org/2000/svg" xmlns:xlink="http://www.w3.org/1999/xlink" width="50" zoomAndPan="magnify" viewBox="0 0 37.5 37.499999" height="50" preserveAspectRatio="xMidYMid meet" version="1.0"><defs><clipPath id="52f343de79"><path d="M 5 0.597656 L 31.824219 0.597656 L 31.824219 36.125 L 5 36.125 Z M 5 0.597656 " clip-rule="nonzero"/></clipPath><clipPath id="09c6471f19"><path d="M 22 1 L 31.824219 1 L 31.824219 11 L 22 11 Z M 22 1 " clip-rule="nonzero"/></clipPath><clipPath id="ec1d608448"><path d="M 3.699219 13 L 6 13 L 6 15 L 3.699219 15 Z M 3.699219 13 " clip-rule="nonzero"/></clipPath><clipPath id="f7b176b2fb"><path d="M 3.699219 5 L 21 5 L 21 14 L 3.699219 14 Z M 3.699219 5 " clip-rule="nonzero"/></clipPath></defs><path fill="#183d79" d="M 10.789062 18.78125 L 17.878906 18.78125 L 17.878906 21.167969 L 10.789062 21.167969 Z M 10.789062 18.78125 " fill-opacity="1" fill-rule="nonzero"/><path fill="#183d79" d="M 10.789062 22.851562 L 17.878906 22.851562 L 17.878906 25.238281 L 10.789062 25.238281 Z M 10.789062 22.851562 " fill-opacity="1" fill-rule="nonzero"/><path fill="#183d79" d="M 10.789062 26.855469 L 17.878906 26.855469 L 17.878906 29.242188 L 10.789062 29.242188 Z M 10.789062 26.855469 " fill-opacity="1" fill-rule="nonzero"/><path fill="#183d79" d="M 19.285156 18.78125 L 26.375 18.78125 L 26.375 21.167969 L 19.285156 21.167969 Z M 19.285156 18.78125 " fill-opacity="1" fill-rule="nonzero"/><path fill="#183d79" d="M 19.285156 22.851562 L 26.375 22.851562 L 26.375 25.238281 L 19.285156 25.238281 Z M 19.285156 22.851562 " fill-opacity="1" fill-rule="nonzero"/><path fill="#183d79" d="M 19.285156 26.855469 L 26.375 26.855469 L 26.375 29.242188 L 19.285156 29.242188 Z M 19.285156 26.855469 " fill-opacity="1" fill-rule="nonzero"/><g clip-path="url(#52f343de79)"><path fill="#183d79" d="M 28.761719 36.332031 L 8.472656 36.332031 C 6.789062 36.332031 5.457031 34.996094 5.457031 33.3125 L 5.457031 3.6875 C 5.457031 2.003906 6.789062 0.671875 8.472656 0.671875 L 22.792969 0.671875 L 31.78125 9.726562 L 31.78125 33.382812 C 31.78125 34.996094 30.445312 36.332031 28.761719 36.332031 Z M 8.472656 2.074219 C 7.5625 2.074219 6.859375 2.777344 6.859375 3.6875 L 6.859375 33.382812 C 6.859375 34.222656 7.5625 34.996094 8.472656 34.996094 L 28.761719 34.996094 C 29.601562 34.996094 30.375 34.292969 30.375 33.382812 L 30.375 10.289062 L 22.164062 2.074219 Z M 8.472656 2.074219 " fill-opacity="1" fill-rule="nonzero"/></g><g clip-path="url(#09c6471f19)"><path fill="#183d79" d="M 22.441406 1.371094 L 22.441406 10.007812 L 31.078125 10.007812 " fill-opacity="1" fill-rule="nonzero"/><path fill="#183d79" d="M 31.078125 10.359375 L 22.09375 10.359375 L 22.09375 1.371094 L 22.792969 1.371094 L 22.792969 9.65625 L 31.078125 9.65625 Z M 31.078125 10.359375 " fill-opacity="1" fill-rule="nonzero"/></g><g clip-path="url(#ec1d608448)"><path fill="#183d79" d="M 3.699219 13.09375 L 5.457031 14.5 L 5.457031 13.09375 L 3.699219 13.09375 " fill-opacity="1" fill-rule="nonzero"/></g><g clip-path="url(#f7b176b2fb)"><path fill="#183d79" d="M 19.003906 13.09375 L 3.699219 13.09375 L 3.699219 6.566406 C 3.699219 6.003906 4.191406 5.515625 4.753906 5.515625 L 19.074219 5.515625 C 19.777344 5.515625 20.335938 6.074219 20.335938 6.777344 L 20.335938 11.761719 C 20.335938 12.464844 19.707031 13.09375 19.003906 13.09375 Z M 19.003906 13.09375 " fill-opacity="1" fill-rule="nonzero"/></g><path fill="#ffffff" d="M 10.230469 11.128906 L 9.457031 10.007812 L 8.824219 11.128906 L 7.773438 11.128906 L 8.964844 9.234375 L 7.773438 7.480469 L 8.824219 7.480469 L 9.597656 8.601562 L 10.230469 7.480469 L 11.210938 7.480469 L 10.019531 9.304688 L 11.210938 11.128906 Z M 10.230469 11.128906 " fill-opacity="1" fill-rule="nonzero"/><path fill="#ffffff" d="M 12.617188 10.425781 L 13.808594 10.425781 L 13.808594 11.128906 L 11.703125 11.128906 L 11.703125 7.480469 L 12.617188 7.480469 Z M 12.617188 10.425781 " fill-opacity="1" fill-rule="nonzero"/><path fill="#ffffff" d="M 14.792969 11.058594 C 14.582031 10.988281 14.441406 10.847656 14.300781 10.636719 C 14.160156 10.496094 14.089844 10.289062 14.089844 10.007812 L 15.074219 10.007812 C 15.074219 10.148438 15.144531 10.21875 15.214844 10.289062 C 15.28125 10.359375 15.421875 10.425781 15.492188 10.425781 C 15.632812 10.425781 15.703125 10.425781 15.773438 10.359375 C 15.84375 10.289062 15.914062 10.21875 15.914062 10.078125 C 15.914062 10.007812 15.914062 9.9375 15.84375 9.867188 C 15.773438 9.796875 15.703125 9.796875 15.632812 9.726562 C 15.5625 9.65625 15.421875 9.65625 15.28125 9.585938 C 15.074219 9.515625 14.863281 9.445312 14.722656 9.375 C 14.582031 9.304688 14.441406 9.164062 14.300781 9.023438 C 14.160156 8.882812 14.160156 8.671875 14.160156 8.460938 C 14.160156 8.109375 14.300781 7.832031 14.511719 7.691406 C 14.792969 7.480469 15.074219 7.410156 15.492188 7.410156 C 15.914062 7.410156 16.195312 7.480469 16.476562 7.691406 C 16.757812 7.902344 16.828125 8.179688 16.898438 8.53125 L 15.914062 8.53125 C 15.914062 8.390625 15.84375 8.320312 15.773438 8.25 C 15.703125 8.179688 15.5625 8.179688 15.492188 8.179688 C 15.351562 8.179688 15.28125 8.179688 15.214844 8.25 C 15.144531 8.320312 15.144531 8.390625 15.144531 8.53125 C 15.144531 8.671875 15.214844 8.742188 15.28125 8.8125 C 15.421875 8.882812 15.5625 8.953125 15.773438 9.023438 C 15.984375 9.09375 16.195312 9.164062 16.335938 9.234375 C 16.476562 9.304688 16.617188 9.445312 16.6875 9.585938 C 16.828125 9.726562 16.828125 9.9375 16.828125 10.148438 C 16.828125 10.359375 16.757812 10.566406 16.6875 10.707031 C 16.546875 10.847656 16.40625 10.988281 16.195312 11.128906 C 15.984375 11.199219 15.773438 11.269531 15.492188 11.269531 C 15.28125 11.199219 15.003906 11.128906 14.792969 11.058594 Z M 14.792969 11.058594 " fill-opacity="1" fill-rule="nonzero"/></svg>