<svg xmlns="http://www.w3.org/2000/svg" xmlns:xlink="http://www.w3.org/1999/xlink" width="50" zoomAndPan="magnify" viewBox="0 0 37.5 37.499999" height="50" preserveAspectRatio="xMidYMid meet" version="1.0"><defs><clipPath id="89585efa43"><path d="M 20 19 L 34.160156 19 L 34.160156 37 L 20 37 Z M 20 19 " clip-rule="nonzero"/></clipPath><clipPath id="41693750cf"><path d="M 20 23 L 34.160156 23 L 34.160156 25 L 20 25 Z M 20 23 " clip-rule="nonzero"/></clipPath><clipPath id="21a5588a5b"><path d="M 3.078125 23 L 19 23 L 19 37 L 3.078125 37 Z M 3.078125 23 " clip-rule="nonzero"/></clipPath></defs><path fill="#183d79" d="M 5.207031 26.410156 C 4.988281 26.410156 4.808594 26.234375 4.808594 26.015625 L 4.808594 1.175781 C 4.808594 0.621094 5.261719 0.167969 5.820312 0.167969 L 31.347656 0.167969 C 31.902344 0.167969 32.355469 0.621094 32.355469 1.175781 L 32.355469 19.527344 C 32.355469 19.746094 32.179688 19.921875 31.960938 19.921875 C 31.742188 19.921875 31.566406 19.746094 31.566406 19.527344 L 31.566406 1.175781 C 31.566406 1.058594 31.464844 0.960938 31.347656 0.960938 L 5.820312 0.957031 C 5.703125 0.957031 5.601562 1.058594 5.601562 1.175781 L 5.601562 26.015625 C 5.601562 26.234375 5.425781 26.410156 5.207031 26.410156 Z M 20.4375 34.882812 L 16.546875 34.882812 C 16.328125 34.882812 16.148438 34.707031 16.148438 34.488281 C 16.148438 34.269531 16.328125 34.089844 16.546875 34.089844 L 20.4375 34.089844 C 20.65625 34.089844 20.835938 34.269531 20.835938 34.488281 C 20.835938 34.703125 20.65625 34.882812 20.4375 34.882812 Z M 20.4375 34.882812 " fill-opacity="1" fill-rule="evenodd"/><g clip-path="url(#89585efa43)"><path fill="#183d79" d="M 21.054688 19.921875 C 20.933594 19.921875 20.835938 20.019531 20.835938 20.140625 L 20.835938 35.394531 C 20.835938 35.511719 20.933594 35.613281 21.050781 35.613281 L 33.035156 35.613281 C 33.15625 35.613281 33.253906 35.511719 33.253906 35.394531 L 33.253906 20.140625 C 33.253906 20.019531 33.15625 19.921875 33.035156 19.921875 Z M 33.035156 36.402344 L 21.054688 36.402344 C 20.496094 36.402344 20.042969 35.949219 20.042969 35.394531 L 20.042969 20.140625 C 20.042969 19.582031 20.496094 19.128906 21.050781 19.128906 L 33.035156 19.128906 C 33.59375 19.128906 34.046875 19.582031 34.046875 20.140625 L 34.046875 35.394531 C 34.046875 35.949219 33.59375 36.402344 33.035156 36.402344 Z M 33.035156 36.402344 " fill-opacity="1" fill-rule="evenodd"/></g><g clip-path="url(#41693750cf)"><path fill="#183d79" d="M 33.648438 24.183594 L 20.4375 24.183594 C 20.21875 24.183594 20.042969 24.007812 20.042969 23.789062 C 20.042969 23.570312 20.21875 23.390625 20.4375 23.390625 L 33.648438 23.390625 C 33.867188 23.390625 34.046875 23.570312 34.046875 23.789062 C 34.046875 24.007812 33.867188 24.183594 33.648438 24.183594 Z M 33.648438 24.183594 " fill-opacity="1" fill-rule="evenodd"/></g><path fill="#183d79" d="M 22.410156 26.125 C 22.320312 26.125 22.242188 26.199219 22.242188 26.292969 L 22.242188 26.828125 C 22.242188 26.921875 22.320312 27 22.410156 27 L 23.597656 27 C 23.6875 27 23.765625 26.921875 23.765625 26.828125 L 23.765625 26.292969 C 23.765625 26.199219 23.6875 26.125 23.597656 26.125 Z M 23.597656 27.789062 L 22.410156 27.789062 C 21.878906 27.789062 21.449219 27.359375 21.449219 26.828125 L 21.449219 26.292969 C 21.449219 25.761719 21.878906 25.332031 22.410156 25.332031 L 23.597656 25.332031 C 24.125 25.332031 24.558594 25.761719 24.558594 26.292969 L 24.558594 26.828125 C 24.558594 27.359375 24.125 27.789062 23.597656 27.789062 Z M 23.597656 27.789062 " fill-opacity="1" fill-rule="evenodd"/><path fill="#183d79" d="M 26.449219 26.125 C 26.359375 26.125 26.28125 26.199219 26.28125 26.292969 L 26.28125 26.828125 C 26.28125 26.921875 26.359375 27 26.449219 27 L 27.636719 27 C 27.730469 27 27.808594 26.921875 27.808594 26.828125 L 27.808594 26.292969 C 27.808594 26.199219 27.730469 26.125 27.636719 26.125 Z M 27.636719 27.789062 L 26.449219 27.789062 C 25.921875 27.789062 25.492188 27.359375 25.492188 26.828125 L 25.492188 26.292969 C 25.492188 25.761719 25.921875 25.332031 26.449219 25.332031 L 27.636719 25.332031 C 28.167969 25.332031 28.597656 25.761719 28.597656 26.292969 L 28.597656 26.828125 C 28.597656 27.359375 28.167969 27.789062 27.636719 27.789062 Z M 27.636719 27.789062 " fill-opacity="1" fill-rule="evenodd"/><path fill="#183d79" d="M 30.492188 26.125 C 30.402344 26.125 30.324219 26.199219 30.324219 26.292969 L 30.324219 26.828125 C 30.324219 26.921875 30.402344 27 30.492188 27 L 31.679688 27 C 31.769531 27 31.847656 26.921875 31.847656 26.828125 L 31.847656 26.292969 C 31.847656 26.199219 31.769531 26.125 31.679688 26.125 Z M 31.679688 27.789062 L 30.492188 27.789062 C 29.960938 27.789062 29.53125 27.359375 29.53125 26.828125 L 29.53125 26.292969 C 29.53125 25.761719 29.960938 25.332031 30.492188 25.332031 L 31.679688 25.332031 C 32.207031 25.332031 32.640625 25.761719 32.640625 26.292969 L 32.640625 26.828125 C 32.640625 27.359375 32.207031 27.789062 31.679688 27.789062 Z M 31.679688 27.789062 " fill-opacity="1" fill-rule="evenodd"/><path fill="#183d79" d="M 22.410156 29.460938 C 22.320312 29.460938 22.242188 29.539062 22.242188 29.628906 L 22.242188 30.167969 C 22.242188 30.257812 22.320312 30.335938 22.410156 30.335938 L 23.597656 30.335938 C 23.6875 30.335938 23.765625 30.257812 23.765625 30.167969 L 23.765625 29.628906 C 23.765625 29.539062 23.6875 29.460938 23.597656 29.460938 Z M 23.597656 31.125 L 22.410156 31.125 C 21.878906 31.125 21.449219 30.695312 21.449219 30.167969 L 21.449219 29.628906 C 21.449219 29.101562 21.878906 28.667969 22.410156 28.667969 L 23.597656 28.667969 C 24.125 28.667969 24.558594 29.101562 24.558594 29.628906 L 24.558594 30.167969 C 24.558594 30.695312 24.125 31.125 23.597656 31.125 Z M 23.597656 31.125 " fill-opacity="1" fill-rule="evenodd"/><path fill="#183d79" d="M 26.449219 29.460938 C 26.359375 29.460938 26.28125 29.539062 26.28125 29.628906 L 26.28125 30.167969 C 26.28125 30.257812 26.359375 30.335938 26.449219 30.335938 L 27.636719 30.335938 C 27.730469 30.335938 27.808594 30.257812 27.808594 30.167969 L 27.808594 29.628906 C 27.808594 29.539062 27.730469 29.460938 27.636719 29.460938 Z M 27.636719 31.125 L 26.449219 31.125 C 25.921875 31.125 25.492188 30.695312 25.492188 30.167969 L 25.492188 29.628906 C 25.492188 29.101562 25.921875 28.667969 26.449219 28.667969 L 27.636719 28.667969 C 28.167969 28.667969 28.597656 29.101562 28.597656 29.628906 L 28.597656 30.167969 C 28.597656 30.695312 28.167969 31.125 27.636719 31.125 Z M 27.636719 31.125 " fill-opacity="1" fill-rule="evenodd"/><path fill="#183d79" d="M 30.492188 29.460938 C 30.402344 29.460938 30.324219 29.539062 30.324219 29.628906 L 30.324219 30.167969 C 30.324219 30.257812 30.402344 30.335938 30.492188 30.335938 L 31.679688 30.335938 C 31.769531 30.335938 31.847656 30.257812 31.847656 30.167969 L 31.847656 29.628906 C 31.847656 29.539062 31.769531 29.460938 31.679688 29.460938 Z M 31.679688 31.125 L 30.492188 31.125 C 29.960938 31.125 29.53125 30.695312 29.53125 30.167969 L 29.53125 29.628906 C 29.53125 29.101562 29.960938 28.667969 30.492188 28.667969 L 31.679688 28.667969 C 32.207031 28.667969 32.640625 29.101562 32.640625 29.628906 L 32.640625 30.167969 C 32.640625 30.695312 32.207031 31.125 31.679688 31.125 Z M 31.679688 31.125 " fill-opacity="1" fill-rule="evenodd"/><path fill="#183d79" d="M 22.410156 32.796875 C 22.320312 32.796875 22.242188 32.875 22.242188 32.964844 L 22.242188 33.503906 C 22.242188 33.59375 22.320312 33.671875 22.410156 33.671875 L 23.597656 33.671875 C 23.6875 33.671875 23.765625 33.59375 23.765625 33.503906 L 23.765625 32.964844 C 23.765625 32.875 23.6875 32.796875 23.597656 32.796875 Z M 23.597656 34.464844 L 22.410156 34.464844 C 21.878906 34.464844 21.449219 34.03125 21.449219 33.503906 L 21.449219 32.964844 C 21.449219 32.4375 21.878906 32.007812 22.410156 32.007812 L 23.597656 32.007812 C 24.125 32.007812 24.558594 32.4375 24.558594 32.964844 L 24.558594 33.503906 C 24.558594 34.03125 24.125 34.464844 23.597656 34.464844 Z M 23.597656 34.464844 " fill-opacity="1" fill-rule="evenodd"/><path fill="#183d79" d="M 26.449219 32.796875 C 26.359375 32.796875 26.28125 32.875 26.28125 32.964844 L 26.28125 33.503906 C 26.28125 33.59375 26.359375 33.671875 26.449219 33.671875 L 27.636719 33.671875 C 27.730469 33.671875 27.808594 33.59375 27.808594 33.503906 L 27.808594 32.964844 C 27.808594 32.875 27.730469 32.796875 27.636719 32.796875 Z M 27.636719 34.464844 L 26.449219 34.464844 C 25.921875 34.464844 25.492188 34.03125 25.492188 33.503906 L 25.492188 32.964844 C 25.492188 32.4375 25.921875 32.007812 26.449219 32.007812 L 27.636719 32.007812 C 28.167969 32.007812 28.597656 32.4375 28.597656 32.964844 L 28.597656 33.503906 C 28.597656 34.03125 28.167969 34.464844 27.636719 34.464844 Z M 27.636719 34.464844 " fill-opacity="1" fill-rule="evenodd"/><path fill="#183d79" d="M 30.492188 32.796875 C 30.402344 32.796875 30.324219 32.875 30.324219 32.964844 L 30.324219 33.503906 C 30.324219 33.59375 30.402344 33.671875 30.492188 33.671875 L 31.679688 33.671875 C 31.769531 33.671875 31.847656 33.59375 31.847656 33.503906 L 31.847656 32.964844 C 31.847656 32.875 31.769531 32.796875 31.679688 32.796875 Z M 31.679688 34.464844 L 30.492188 34.464844 C 29.960938 34.464844 29.53125 34.03125 29.53125 33.503906 L 29.53125 32.964844 C 29.53125 32.4375 29.960938 32.007812 30.492188 32.007812 L 31.679688 32.007812 C 32.207031 32.007812 32.640625 32.4375 32.640625 32.964844 L 32.640625 33.503906 C 32.640625 34.03125 32.207031 34.464844 31.679688 34.464844 Z M 31.679688 34.464844 " fill-opacity="1" fill-rule="evenodd"/><path fill="#183d79" d="M 10.570312 32.488281 C 9.984375 32.488281 9.4375 32.25 9.109375 31.851562 C 8.972656 31.683594 8.996094 31.4375 9.164062 31.296875 C 9.332031 31.15625 9.582031 31.183594 9.722656 31.351562 C 9.898438 31.5625 10.222656 31.695312 10.570312 31.695312 C 11.097656 31.695312 11.542969 31.390625 11.542969 31.03125 C 11.542969 30.691406 11.152344 30.402344 10.65625 30.371094 C 9.722656 30.316406 9.019531 29.691406 9.019531 28.917969 C 9.019531 28.113281 9.8125 27.460938 10.785156 27.460938 C 11.371094 27.460938 11.914062 27.695312 12.242188 28.09375 C 12.382812 28.261719 12.359375 28.511719 12.191406 28.652344 C 12.019531 28.789062 11.773438 28.765625 11.632812 28.597656 C 11.457031 28.382812 11.132812 28.25 10.785156 28.25 C 10.257812 28.25 9.8125 28.554688 9.8125 28.917969 C 9.8125 29.253906 10.210938 29.554688 10.703125 29.582031 C 11.632812 29.636719 12.332031 30.257812 12.332031 31.03125 C 12.332031 31.832031 11.542969 32.488281 10.570312 32.488281 Z M 10.570312 32.488281 " fill-opacity="1" fill-rule="evenodd"/><path fill="#183d79" d="M 10.675781 33.328125 C 10.460938 33.328125 10.28125 33.148438 10.28125 32.929688 L 10.28125 27.015625 C 10.28125 26.796875 10.457031 26.621094 10.675781 26.621094 C 10.894531 26.621094 11.074219 26.796875 11.074219 27.015625 L 11.074219 32.929688 C 11.074219 33.148438 10.894531 33.328125 10.675781 33.328125 Z M 10.675781 33.328125 " fill-opacity="1" fill-rule="evenodd"/><path fill="#183d79" d="M 10.675781 26.277344 C 8.636719 26.277344 6.980469 27.933594 6.980469 29.972656 C 6.980469 32.011719 8.636719 33.671875 10.675781 33.671875 C 12.714844 33.671875 14.375 32.011719 14.375 29.972656 C 14.375 27.933594 12.714844 26.277344 10.675781 26.277344 Z M 10.675781 34.460938 C 8.203125 34.460938 6.1875 32.449219 6.1875 29.972656 C 6.1875 27.5 8.203125 25.484375 10.675781 25.484375 C 13.152344 25.484375 15.164062 27.5 15.164062 29.972656 C 15.164062 32.449219 13.152344 34.460938 10.675781 34.460938 Z M 10.675781 34.460938 " fill-opacity="1" fill-rule="evenodd"/><g clip-path="url(#21a5588a5b)"><path fill="#183d79" d="M 10.675781 36.402344 C 9.382812 36.402344 8.089844 36.359375 7.53125 36.273438 C 5.625 35.988281 4.378906 35.054688 3.71875 33.429688 C 1.609375 28.222656 5.597656 24.707031 7.40625 23.4375 C 7.585938 23.3125 7.832031 23.355469 7.957031 23.535156 C 8.082031 23.714844 8.039062 23.960938 7.863281 24.085938 C 6.203125 25.246094 2.558594 28.453125 4.453125 33.132812 C 5.003906 34.496094 6.019531 35.246094 7.648438 35.492188 C 8.695312 35.652344 12.660156 35.652344 13.703125 35.492188 C 15.332031 35.246094 16.347656 34.496094 16.902344 33.132812 C 18.796875 28.453125 15.148438 25.246094 13.492188 24.085938 C 13.316406 23.960938 13.273438 23.714844 13.398438 23.535156 C 13.523438 23.355469 13.769531 23.3125 13.949219 23.4375 C 15.757812 24.707031 19.742188 28.222656 17.636719 33.429688 C 16.976562 35.054688 15.730469 35.988281 13.824219 36.273438 C 13.265625 36.359375 11.972656 36.402344 10.675781 36.402344 Z M 10.675781 36.402344 " fill-opacity="1" fill-rule="evenodd"/></g><path fill="#183d79" d="M 13.277344 22.125 C 13.25 22.125 13.222656 22.125 13.195312 22.117188 C 12.980469 22.070312 12.847656 21.859375 12.890625 21.648438 C 12.921875 21.503906 12.949219 21.363281 12.964844 21.230469 C 13.0625 20.53125 13.488281 19.808594 13.816406 19.34375 C 12.980469 19.175781 11.378906 18.972656 10.046875 19.472656 C 9.132812 19.8125 8.398438 19.871094 7.84375 19.816406 C 8.089844 20.234375 8.320312 20.738281 8.390625 21.230469 C 8.40625 21.363281 8.429688 21.507812 8.460938 21.648438 C 8.507812 21.859375 8.375 22.070312 8.160156 22.117188 C 7.945312 22.164062 7.734375 22.027344 7.6875 21.8125 C 7.65625 21.652344 7.625 21.492188 7.605469 21.335938 C 7.480469 20.433594 6.5625 19.371094 6.554688 19.359375 C 6.421875 19.207031 6.425781 18.980469 6.5625 18.832031 C 6.699219 18.683594 6.925781 18.664062 7.089844 18.785156 C 7.121094 18.804688 7.992188 19.398438 9.769531 18.730469 C 11.910156 17.929688 14.507812 18.6875 14.617188 18.722656 C 14.746094 18.761719 14.847656 18.863281 14.882812 18.992188 C 14.921875 19.121094 14.890625 19.261719 14.800781 19.359375 C 14.792969 19.371094 13.871094 20.433594 13.75 21.335938 C 13.730469 21.492188 13.699219 21.652344 13.664062 21.8125 C 13.625 22 13.460938 22.125 13.277344 22.125 Z M 13.277344 22.125 " fill-opacity="1" fill-rule="evenodd"/><path fill="#183d79" d="M 7.765625 22.125 C 7.421875 22.125 7.140625 22.40625 7.140625 22.75 C 7.140625 23.09375 7.421875 23.375 7.765625 23.375 L 13.589844 23.375 C 13.933594 23.375 14.214844 23.09375 14.214844 22.75 C 14.214844 22.40625 13.933594 22.125 13.589844 22.125 Z M 13.589844 24.164062 L 7.765625 24.164062 C 6.984375 24.164062 6.347656 23.53125 6.347656 22.75 C 6.347656 21.96875 6.984375 21.335938 7.765625 21.335938 L 13.589844 21.335938 C 14.371094 21.335938 15.003906 21.96875 15.003906 22.75 C 15.003906 23.53125 14.371094 24.164062 13.589844 24.164062 Z M 13.589844 24.164062 " fill-opacity="1" fill-rule="evenodd"/><path fill="#183d79" d="M 14.480469 22.648438 C 14.316406 22.648438 14.167969 22.550781 14.109375 22.390625 C 14.03125 22.183594 14.136719 21.957031 14.34375 21.882812 C 14.832031 21.699219 15.335938 21.667969 15.835938 21.785156 C 16.753906 21.996094 17.46875 21.085938 17.472656 21.078125 C 17.609375 20.90625 17.855469 20.871094 18.027344 21.003906 C 18.203125 21.136719 18.234375 21.382812 18.105469 21.558594 C 18.0625 21.613281 17.078125 22.886719 15.65625 22.554688 C 15.308594 22.472656 14.960938 22.496094 14.617188 22.625 C 14.570312 22.640625 14.523438 22.648438 14.480469 22.648438 Z M 14.480469 22.648438 " fill-opacity="1" fill-rule="evenodd"/><path fill="#183d79" d="M 17.789062 24.765625 C 17.71875 24.765625 17.644531 24.746094 17.578125 24.707031 C 16.335938 23.929688 15.199219 23.675781 14.460938 23.597656 C 14.242188 23.574219 14.085938 23.378906 14.109375 23.164062 C 14.132812 22.945312 14.324219 22.789062 14.542969 22.8125 C 15.363281 22.898438 16.625 23.179688 18 24.035156 C 18.183594 24.148438 18.238281 24.394531 18.125 24.578125 C 18.050781 24.699219 17.921875 24.765625 17.789062 24.765625 Z M 17.789062 24.765625 " fill-opacity="1" fill-rule="evenodd"/><path fill="#183d79" d="M 19.691406 17.214844 L 8.050781 17.214844 C 7.832031 17.214844 7.652344 17.039062 7.652344 16.820312 C 7.652344 16.601562 7.832031 16.425781 8.050781 16.425781 L 19.691406 16.425781 C 19.910156 16.425781 20.085938 16.601562 20.085938 16.820312 C 20.085938 17.039062 19.910156 17.214844 19.691406 17.214844 Z M 19.691406 17.214844 " fill-opacity="1" fill-rule="evenodd"/><path fill="#183d79" d="M 12.453125 10.523438 C 11.703125 10.523438 11.003906 10.222656 10.589844 9.71875 C 10.449219 9.550781 10.472656 9.300781 10.644531 9.160156 C 10.8125 9.023438 11.058594 9.046875 11.199219 9.214844 C 11.464844 9.535156 11.945312 9.734375 12.453125 9.734375 C 13.242188 9.734375 13.90625 9.257812 13.90625 8.691406 C 13.90625 8.152344 13.335938 7.710938 12.578125 7.664062 C 11.394531 7.59375 10.5 6.808594 10.5 5.839844 C 10.5 4.828125 11.503906 4.007812 12.742188 4.007812 C 13.496094 4.007812 14.191406 4.308594 14.609375 4.8125 C 14.746094 4.980469 14.722656 5.230469 14.554688 5.371094 C 14.386719 5.507812 14.136719 5.484375 13.996094 5.316406 C 13.734375 4.996094 13.253906 4.796875 12.742188 4.796875 C 11.957031 4.796875 11.289062 5.273438 11.289062 5.839844 C 11.289062 6.375 11.875 6.832031 12.625 6.875 C 13.808594 6.945312 14.699219 7.726562 14.699219 8.691406 C 14.699219 9.703125 13.691406 10.523438 12.453125 10.523438 Z M 12.453125 10.523438 " fill-opacity="1" fill-rule="evenodd"/><path fill="#183d79" d="M 12.597656 11.65625 C 12.378906 11.65625 12.203125 11.480469 12.203125 11.261719 L 12.203125 3.269531 C 12.203125 3.050781 12.378906 2.871094 12.597656 2.871094 C 12.816406 2.871094 12.992188 3.050781 12.992188 3.269531 L 12.992188 11.261719 C 12.992188 11.480469 12.816406 11.65625 12.597656 11.65625 Z M 12.597656 11.65625 " fill-opacity="1" fill-rule="evenodd"/><path fill="#183d79" d="M 19.691406 13.863281 L 8.050781 13.863281 C 7.832031 13.863281 7.652344 13.683594 7.652344 13.46875 C 7.652344 13.25 7.832031 13.070312 8.050781 13.070312 L 19.691406 13.070312 C 19.910156 13.070312 20.085938 13.25 20.085938 13.46875 C 20.085938 13.683594 19.910156 13.863281 19.691406 13.863281 Z M 19.691406 13.863281 " fill-opacity="1" fill-rule="evenodd"/><path fill="#183d79" d="M 29.117188 9.335938 L 17.148438 9.335938 C 16.929688 9.335938 16.753906 9.160156 16.753906 8.941406 C 16.753906 8.722656 16.929688 8.546875 17.148438 8.546875 L 29.117188 8.546875 C 29.335938 8.546875 29.511719 8.722656 29.511719 8.941406 C 29.511719 9.160156 29.335938 9.335938 29.117188 9.335938 Z M 29.117188 9.335938 " fill-opacity="1" fill-rule="evenodd"/><path fill="#183d79" d="M 29.117188 5.984375 L 17.148438 5.984375 C 16.929688 5.984375 16.753906 5.808594 16.753906 5.589844 C 16.753906 5.371094 16.929688 5.191406 17.148438 5.191406 L 29.117188 5.191406 C 29.335938 5.191406 29.511719 5.371094 29.511719 5.589844 C 29.511719 5.808594 29.335938 5.984375 29.117188 5.984375 Z M 29.117188 5.984375 " fill-opacity="1" fill-rule="evenodd"/><path fill="#183d79" d="M 29.117188 17.214844 L 22.214844 17.214844 C 21.996094 17.214844 21.816406 17.039062 21.816406 16.820312 L 21.816406 11.910156 C 21.816406 11.691406 21.996094 11.511719 22.214844 11.511719 C 22.433594 11.511719 22.609375 11.691406 22.609375 11.910156 L 22.609375 16.425781 L 29.117188 16.425781 C 29.335938 16.425781 29.511719 16.601562 29.511719 16.820312 C 29.511719 17.039062 29.335938 17.214844 29.117188 17.214844 Z M 29.117188 17.214844 " fill-opacity="1" fill-rule="evenodd"/><path fill="#183d79" d="M 24.175781 17.214844 C 23.957031 17.214844 23.78125 17.039062 23.78125 16.820312 L 23.78125 14.304688 C 23.78125 14.085938 23.957031 13.910156 24.175781 13.910156 C 24.394531 13.910156 24.570312 14.085938 24.570312 14.304688 L 24.570312 16.820312 C 24.570312 17.039062 24.394531 17.214844 24.175781 17.214844 Z M 24.175781 17.214844 " fill-opacity="1" fill-rule="evenodd"/><path fill="#183d79" d="M 26.15625 17.214844 C 25.9375 17.214844 25.761719 17.039062 25.761719 16.820312 L 25.761719 13.460938 C 25.761719 13.242188 25.9375 13.066406 26.15625 13.066406 C 26.375 13.066406 26.550781 13.242188 26.550781 13.460938 L 26.550781 16.820312 C 26.550781 17.039062 26.375 17.214844 26.15625 17.214844 Z M 26.15625 17.214844 " fill-opacity="1" fill-rule="evenodd"/><path fill="#183d79" d="M 28.136719 17.214844 C 27.917969 17.214844 27.742188 17.039062 27.742188 16.820312 L 27.742188 14.304688 C 27.742188 14.085938 27.917969 13.910156 28.136719 13.910156 C 28.355469 13.910156 28.53125 14.085938 28.53125 14.304688 L 28.53125 16.820312 C 28.53125 17.039062 28.355469 17.214844 28.136719 17.214844 Z M 28.136719 17.214844 " fill-opacity="1" fill-rule="evenodd"/></svg>