<svg xmlns="http://www.w3.org/2000/svg" xmlns:xlink="http://www.w3.org/1999/xlink" width="50" zoomAndPan="magnify" viewBox="0 0 37.5 37.499999" height="50" preserveAspectRatio="xMidYMid meet" version="1.0"><defs><clipPath id="0b97f65c13"><path d="M 4 1.367188 L 34 1.367188 L 34 35.414062 L 4 35.414062 Z M 4 1.367188 " clip-rule="nonzero"/></clipPath></defs><g clip-path="url(#0b97f65c13)"><path fill="#183d79" d="M 16.332031 35.585938 C 16.421875 35.617188 16.511719 35.632812 16.605469 35.632812 C 16.84375 35.632812 17.042969 35.542969 17.195312 35.363281 L 21.871094 29.910156 C 21.992188 29.765625 22.054688 29.597656 22.054688 29.40625 L 22.054688 18.796875 L 32.960938 6.414062 C 33.351562 5.96875 33.59375 5.453125 33.683594 4.863281 C 33.773438 4.273438 33.695312 3.707031 33.453125 3.164062 C 33.210938 2.621094 32.839844 2.1875 32.339844 1.863281 C 31.84375 1.535156 31.296875 1.371094 30.699219 1.367188 L 7.183594 1.367188 C 6.585938 1.371094 6.039062 1.535156 5.542969 1.863281 C 5.042969 2.1875 4.671875 2.621094 4.429688 3.164062 C 4.1875 3.707031 4.109375 4.273438 4.199219 4.863281 C 4.289062 5.453125 4.53125 5.96875 4.921875 6.414062 L 15.824219 18.796875 L 15.824219 34.855469 C 15.824219 35.019531 15.871094 35.167969 15.964844 35.300781 C 16.058594 35.433594 16.179688 35.53125 16.332031 35.585938 Z M 6.074219 5.386719 C 5.882812 5.167969 5.765625 4.917969 5.722656 4.628906 C 5.675781 4.339844 5.714844 4.066406 5.832031 3.800781 C 5.953125 3.535156 6.136719 3.320312 6.378906 3.164062 C 6.625 3.003906 6.890625 2.925781 7.183594 2.925781 L 30.699219 2.925781 C 30.992188 2.925781 31.257812 3.003906 31.503906 3.164062 C 31.746094 3.320312 31.929688 3.535156 32.046875 3.800781 C 32.167969 4.066406 32.207031 4.339844 32.160156 4.628906 C 32.117188 4.917969 32 5.167969 31.804688 5.386719 L 20.695312 17.988281 C 20.5625 18.132812 20.5 18.304688 20.5 18.5 L 20.5 29.117188 L 17.382812 32.753906 L 17.382812 18.5 C 17.382812 18.304688 17.320312 18.132812 17.1875 17.988281 Z M 6.074219 5.386719 " fill-opacity="1" fill-rule="nonzero"/></g></svg>