<svg xmlns="http://www.w3.org/2000/svg" xmlns:xlink="http://www.w3.org/1999/xlink" width="50" zoomAndPan="magnify" viewBox="0 0 37.5 37.499999" height="50" preserveAspectRatio="xMidYMid meet" version="1.0"><defs><clipPath id="61bf4fe77e"><path d="M 0.511719 5.179688 L 18 5.179688 L 18 28.863281 L 0.511719 28.863281 Z M 0.511719 5.179688 " clip-rule="nonzero"/></clipPath><clipPath id="3512e01ef1"><path d="M 15 9 L 22 9 L 22 28.863281 L 15 28.863281 Z M 15 9 " clip-rule="nonzero"/></clipPath><clipPath id="194ea74e46"><path d="M 30 9 L 36.777344 9 L 36.777344 28.863281 L 30 28.863281 Z M 30 9 " clip-rule="nonzero"/></clipPath></defs><g clip-path="url(#61bf4fe77e)"><path fill="#183d79" d="M 5.597656 27.96875 C 6.351562 27.441406 6.933594 26.699219 7.335938 25.738281 C 7.746094 24.777344 8.054688 23.820312 8.269531 22.863281 L 10.539062 13.042969 L 13.480469 13.042969 L 13.871094 11.730469 L 10.839844 11.730469 L 10.945312 11.285156 L 11.261719 9.90625 C 11.378906 9.367188 11.488281 8.949219 11.597656 8.652344 C 11.828125 8.027344 12.035156 7.570312 12.21875 7.285156 C 12.402344 7 12.625 6.78125 12.882812 6.628906 C 13.144531 6.476562 13.410156 6.398438 13.683594 6.398438 C 13.902344 6.398438 14.105469 6.457031 14.308594 6.570312 C 14.503906 6.683594 14.753906 6.910156 15.050781 7.25 C 15.316406 7.542969 15.554688 7.746094 15.757812 7.859375 C 15.914062 7.949219 16.09375 7.992188 16.292969 7.992188 C 16.574219 7.992188 16.820312 7.890625 17.03125 7.6875 C 17.242188 7.488281 17.347656 7.25 17.347656 6.984375 C 17.347656 6.539062 17.09375 6.125 16.578125 5.75 C 16.070312 5.371094 15.363281 5.179688 14.453125 5.179688 C 13.109375 5.179688 12.003906 5.566406 11.140625 6.335938 C 10.273438 7.105469 9.648438 8.355469 9.257812 10.082031 L 8.984375 11.285156 L 8.886719 11.730469 L 6.378906 11.730469 L 5.988281 13.042969 L 8.585938 13.042969 L 6.082031 24.066406 C 5.785156 25.445312 5.457031 26.34375 5.101562 26.765625 C 4.746094 27.1875 4.332031 27.398438 3.863281 27.398438 C 3.726562 27.398438 3.585938 27.363281 3.453125 27.289062 C 3.316406 27.21875 3.109375 27.054688 2.832031 26.804688 C 2.4375 26.449219 2.074219 26.269531 1.746094 26.269531 C 1.46875 26.269531 1.230469 26.363281 1.039062 26.554688 C 0.84375 26.742188 0.75 26.972656 0.75 27.242188 C 0.75 27.621094 0.964844 27.972656 1.394531 28.285156 C 1.824219 28.601562 2.402344 28.761719 3.125 28.761719 C 4.015625 28.761719 4.84375 28.496094 5.597656 27.96875 Z M 5.597656 27.96875 " fill-opacity="1" fill-rule="nonzero"/></g><g clip-path="url(#3512e01ef1)"><path fill="#183d79" d="M 19.355469 13 C 19.84375 11.972656 20.523438 11.023438 21.394531 10.148438 L 20.78125 9.546875 C 20.035156 10.089844 19.351562 10.773438 18.730469 11.597656 C 18.113281 12.421875 17.539062 13.472656 17.007812 14.746094 C 16.476562 16.019531 16.035156 17.496094 15.683594 19.179688 C 15.332031 20.859375 15.160156 22.335938 15.160156 23.613281 C 15.160156 24.800781 15.316406 25.917969 15.636719 26.957031 C 15.886719 27.777344 16.285156 28.527344 16.828125 29.199219 L 17.511719 28.699219 C 17.199219 28.203125 16.964844 27.664062 16.808594 27.082031 C 16.652344 26.503906 16.574219 25.90625 16.574219 25.296875 C 16.574219 23.863281 16.875 21.796875 17.480469 19.097656 C 18.085938 16.394531 18.710938 14.363281 19.355469 13 Z M 19.355469 13 " fill-opacity="1" fill-rule="nonzero"/></g><path fill="#183d79" d="M 20.414062 24.53125 C 21.058594 24.53125 21.714844 24.246094 22.375 23.675781 C 23.039062 23.105469 23.882812 21.878906 24.90625 19.996094 L 25.742188 22.351562 C 26.042969 23.195312 26.375 23.765625 26.746094 24.074219 C 27.117188 24.378906 27.59375 24.53125 28.175781 24.53125 C 28.667969 24.53125 29.136719 24.402344 29.59375 24.140625 C 30.050781 23.882812 30.542969 23.417969 31.082031 22.75 L 30.429688 22.207031 C 29.8125 22.824219 29.425781 23.175781 29.277344 23.265625 C 29.066406 23.390625 28.847656 23.449219 28.625 23.449219 C 28.375 23.449219 28.128906 23.328125 27.890625 23.078125 C 27.652344 22.832031 27.40625 22.324219 27.136719 21.554688 L 26.347656 19.289062 L 27.671875 17.257812 C 28.027344 16.789062 28.359375 16.460938 28.675781 16.28125 C 28.984375 16.097656 29.324219 16.003906 29.683594 16.003906 C 29.804688 16.003906 29.964844 16.007812 30.164062 16.019531 C 30.296875 16.027344 30.410156 16.035156 30.5 16.035156 C 30.820312 16.035156 31.070312 15.957031 31.253906 15.804688 C 31.4375 15.652344 31.53125 15.449219 31.53125 15.199219 C 31.53125 14.933594 31.429688 14.714844 31.230469 14.539062 C 31.03125 14.367188 30.75 14.28125 30.398438 14.28125 C 29.777344 14.28125 29.148438 14.542969 28.511719 15.070312 C 27.648438 15.769531 26.8125 16.847656 26 18.296875 L 24.597656 14.28125 L 23.886719 14.28125 C 23.523438 14.511719 23.1875 14.691406 22.882812 14.816406 C 22.582031 14.941406 22.226562 15.046875 21.8125 15.128906 L 21.609375 15.964844 L 23.484375 15.964844 L 24.542969 18.949219 C 23.84375 20.15625 23.414062 20.875 23.257812 21.097656 C 22.886719 21.667969 22.582031 22.0625 22.347656 22.285156 C 22.113281 22.507812 21.90625 22.652344 21.726562 22.730469 C 21.546875 22.804688 21.355469 22.839844 21.152344 22.839844 C 21.050781 22.839844 20.921875 22.828125 20.765625 22.800781 C 20.554688 22.765625 20.398438 22.75 20.296875 22.75 C 20.03125 22.75 19.808594 22.835938 19.617188 23.007812 C 19.433594 23.183594 19.339844 23.386719 19.339844 23.613281 C 19.339844 23.859375 19.441406 24.074219 19.648438 24.257812 C 19.84375 24.441406 20.101562 24.53125 20.414062 24.53125 Z M 20.414062 24.53125 " fill-opacity="1" fill-rule="nonzero"/><g clip-path="url(#194ea74e46)"><path fill="#183d79" d="M 32.71875 27.148438 C 33.339844 26.328125 33.917969 25.277344 34.445312 24.007812 C 34.980469 22.730469 35.417969 21.253906 35.765625 19.574219 C 36.113281 17.894531 36.285156 16.410156 36.285156 15.128906 C 36.285156 13.945312 36.125 12.835938 35.808594 11.796875 C 35.554688 10.96875 35.160156 10.214844 34.613281 9.546875 L 33.929688 10.054688 C 34.246094 10.550781 34.480469 11.089844 34.640625 11.667969 C 34.796875 12.25 34.878906 12.84375 34.878906 13.445312 C 34.878906 14.886719 34.578125 16.957031 33.976562 19.65625 C 33.371094 22.355469 32.746094 24.386719 32.097656 25.753906 C 31.605469 26.777344 30.929688 27.726562 30.0625 28.59375 L 30.683594 29.195312 C 31.417969 28.652344 32.101562 27.96875 32.71875 27.148438 Z M 32.71875 27.148438 " fill-opacity="1" fill-rule="nonzero"/></g></svg>