<svg xmlns="http://www.w3.org/2000/svg" xmlns:xlink="http://www.w3.org/1999/xlink" width="50" zoomAndPan="magnify" viewBox="0 0 37.5 37.499999" height="50" preserveAspectRatio="xMidYMid meet" version="1.0"><defs><clipPath id="2009a876ff"><path d="M 1 0.773438 L 35.785156 0.773438 L 35.785156 37 L 1 37 Z M 1 0.773438 " clip-rule="nonzero"/></clipPath></defs><g clip-path="url(#2009a876ff)"><path fill="#183d79" d="M 35.050781 5.632812 L 26.304688 3.28125 L 26.304688 2.019531 C 26.304688 1.355469 25.761719 0.816406 25.097656 0.816406 L 8.832031 0.816406 C 8.820312 0.816406 8.808594 0.820312 8.796875 0.820312 C 8.742188 0.824219 8.6875 0.835938 8.636719 0.851562 C 8.617188 0.859375 8.601562 0.863281 8.582031 0.871094 C 8.519531 0.902344 8.457031 0.9375 8.40625 0.992188 L 1.175781 8.222656 C 1.125 8.273438 1.085938 8.332031 1.058594 8.398438 C 1.046875 8.417969 1.042969 8.433594 1.035156 8.453125 C 1.019531 8.503906 1.007812 8.554688 1.003906 8.609375 C 1.003906 8.621094 1 8.632812 1 8.648438 L 1 31.542969 C 1 32.207031 1.539062 32.746094 2.203125 32.746094 L 13.738281 32.746094 L 26.890625 36.917969 C 26.996094 36.949219 27.105469 36.960938 27.210938 36.960938 C 27.742188 36.960938 28.230469 36.609375 28.382812 36.0625 L 28.960938 33.84375 L 31.410156 36.296875 C 31.859375 36.746094 32.449219 36.96875 33.039062 36.96875 C 33.632812 36.96875 34.222656 36.746094 34.671875 36.296875 C 35.570312 35.394531 35.570312 33.933594 34.671875 33.03125 L 30.304688 28.667969 L 35.90625 7.097656 C 35.988281 6.789062 35.945312 6.464844 35.785156 6.1875 C 35.621094 5.910156 35.359375 5.710938 35.050781 5.632812 Z M 27.507812 28.28125 L 26.660156 29.128906 L 26.304688 28.777344 L 26.304688 28.144531 C 26.484375 27.96875 26.660156 27.785156 26.824219 27.59375 Z M 33.820312 35.441406 C 33.390625 35.871094 32.691406 35.871094 32.261719 35.441406 L 27.15625 30.335938 L 28.714844 28.78125 L 33.820312 33.886719 C 34.25 34.316406 34.25 35.011719 33.820312 35.441406 Z M 20.882812 29.132812 C 17.226562 29.132812 14.253906 26.160156 14.253906 22.503906 C 14.253906 18.851562 17.226562 15.878906 20.882812 15.878906 C 24.535156 15.878906 27.507812 18.851562 27.507812 22.503906 C 27.507812 26.160156 24.535156 29.132812 20.882812 29.132812 Z M 8.230469 2.871094 L 8.230469 8.042969 L 3.054688 8.042969 Z M 2.203125 9.25 L 8.230469 9.25 C 8.894531 9.25 9.433594 8.707031 9.433594 8.042969 L 9.433594 2.019531 L 25.097656 2.019531 L 25.097656 15.914062 C 23.878906 15.132812 22.433594 14.671875 20.882812 14.671875 C 16.5625 14.671875 13.046875 18.1875 13.046875 22.503906 C 13.046875 26.824219 16.5625 30.335938 20.882812 30.335938 C 22.386719 30.335938 23.789062 29.902344 24.984375 29.164062 L 25.097656 29.277344 L 25.097656 31.542969 L 2.203125 31.542969 Z M 27.234375 35.765625 L 17.726562 32.746094 L 25.097656 32.746094 C 25.761719 32.746094 26.304688 32.207031 26.304688 31.542969 L 26.304688 31.191406 L 27.972656 32.859375 Z M 29.316406 27.679688 L 29.140625 27.5 C 28.929688 27.292969 28.609375 27.28125 28.375 27.445312 L 27.539062 26.609375 C 28.28125 25.414062 28.714844 24.011719 28.714844 22.503906 C 28.714844 20.289062 27.785156 18.292969 26.304688 16.867188 L 26.304688 4.527344 L 34.742188 6.789062 Z M 29.316406 27.679688 " fill-opacity="1" fill-rule="nonzero"/></g><path fill="#183d79" d="M 20.882812 17.082031 L 20.882812 18.289062 C 23.207031 18.289062 25.097656 20.179688 25.097656 22.503906 L 26.304688 22.503906 C 26.304688 19.515625 23.871094 17.082031 20.882812 17.082031 Z M 20.882812 17.082031 " fill-opacity="1" fill-rule="nonzero"/><path fill="#183d79" d="M 7.625 15.273438 L 11.242188 15.273438 L 11.242188 16.480469 L 7.625 16.480469 Z M 7.625 15.273438 " fill-opacity="1" fill-rule="nonzero"/><path fill="#183d79" d="M 7.625 18.890625 L 11.242188 18.890625 L 11.242188 20.09375 L 7.625 20.09375 Z M 7.625 18.890625 " fill-opacity="1" fill-rule="nonzero"/><path fill="#183d79" d="M 7.625 22.503906 L 11.242188 22.503906 L 11.242188 23.710938 L 7.625 23.710938 Z M 7.625 22.503906 " fill-opacity="1" fill-rule="nonzero"/><path fill="#183d79" d="M 7.625 26.121094 L 11.242188 26.121094 L 11.242188 27.324219 L 7.625 27.324219 Z M 7.625 26.121094 " fill-opacity="1" fill-rule="nonzero"/><path fill="#183d79" d="M 7.625 11.660156 L 22.085938 11.660156 L 22.085938 12.863281 L 7.625 12.863281 Z M 7.625 11.660156 " fill-opacity="1" fill-rule="nonzero"/></svg>