<svg xmlns="http://www.w3.org/2000/svg" xmlns:xlink="http://www.w3.org/1999/xlink" width="50" zoomAndPan="magnify" viewBox="0 0 37.5 37.499999" height="50" preserveAspectRatio="xMidYMid meet" version="1.0"><defs><clipPath id="d6aa20d355"><path d="M 1.824219 1.128906 L 36.609375 1.128906 L 36.609375 35.917969 L 1.824219 35.917969 Z M 1.824219 1.128906 " clip-rule="nonzero"/></clipPath></defs><g clip-path="url(#d6aa20d355)"><path fill="#183d79" d="M 21.765625 1.300781 L 28.132812 7.796875 L 28.167969 7.832031 L 28.171875 7.839844 L 28.171875 7.84375 L 28.1875 7.859375 L 28.1875 7.863281 L 28.195312 7.871094 L 28.195312 7.878906 L 28.207031 7.890625 L 28.207031 7.894531 L 28.210938 7.902344 L 28.210938 7.90625 L 28.21875 7.914062 L 28.21875 7.921875 L 28.222656 7.925781 L 28.222656 7.929688 L 28.226562 7.933594 L 28.226562 7.941406 L 28.230469 7.945312 L 28.230469 7.949219 L 28.234375 7.953125 L 28.234375 7.960938 L 28.238281 7.964844 L 28.238281 7.972656 L 28.242188 7.976562 L 28.242188 7.988281 L 28.246094 7.992188 L 28.246094 8.003906 L 28.25 8.007812 L 28.25 8.023438 L 28.253906 8.027344 L 28.253906 8.050781 L 28.257812 8.054688 L 28.257812 8.101562 L 28.261719 8.101562 L 28.261719 16.433594 C 28.703125 16.34375 29.160156 16.292969 29.628906 16.292969 C 31.457031 16.292969 33.117188 17.035156 34.316406 18.238281 C 35.519531 19.4375 36.261719 21.097656 36.261719 22.925781 C 36.261719 24.757812 35.519531 26.417969 34.316406 27.617188 C 33.117188 28.820312 31.457031 29.5625 29.628906 29.5625 C 29.160156 29.5625 28.703125 29.511719 28.261719 29.421875 L 28.261719 33.507812 C 28.261719 34.15625 27.996094 34.746094 27.566406 35.175781 L 27.5625 35.175781 C 27.136719 35.605469 26.546875 35.867188 25.898438 35.867188 L 4.1875 35.867188 C 3.539062 35.867188 2.949219 35.601562 2.523438 35.175781 L 2.519531 35.175781 L 2.519531 35.171875 C 2.089844 34.746094 1.828125 34.15625 1.828125 33.507812 L 1.828125 3.503906 C 1.828125 2.855469 2.09375 2.265625 2.519531 1.839844 L 2.523438 1.839844 C 2.949219 1.410156 3.539062 1.144531 4.1875 1.144531 L 21.433594 1.144531 C 21.566406 1.144531 21.6875 1.207031 21.765625 1.300781 Z M 6.398438 17.878906 C 6.183594 17.878906 5.988281 17.964844 5.847656 18.105469 L 5.847656 18.109375 C 5.707031 18.25 5.617188 18.445312 5.617188 18.65625 L 5.617188 20.667969 C 5.617188 20.882812 5.707031 21.074219 5.847656 21.21875 C 5.988281 21.359375 6.183594 21.449219 6.398438 21.449219 L 8.40625 21.449219 C 8.621094 21.449219 8.816406 21.359375 8.957031 21.21875 L 8.960938 21.21875 C 9.101562 21.078125 9.1875 20.882812 9.1875 20.667969 L 9.1875 18.65625 C 9.1875 18.445312 9.101562 18.25 8.960938 18.109375 L 8.957031 18.105469 C 8.816406 17.964844 8.621094 17.878906 8.40625 17.878906 Z M 8.316406 18.75 L 6.488281 18.75 L 6.488281 20.578125 L 8.316406 20.578125 Z M 11.078125 19.234375 L 18.25 19.234375 C 18.488281 19.234375 18.683594 19.039062 18.683594 18.800781 C 18.683594 18.558594 18.488281 18.367188 18.25 18.367188 L 11.078125 18.367188 C 10.839844 18.367188 10.644531 18.558594 10.644531 18.800781 C 10.644531 19.039062 10.839844 19.234375 11.078125 19.234375 Z M 11.078125 20.960938 C 10.839844 20.960938 10.644531 20.765625 10.644531 20.523438 C 10.644531 20.285156 10.839844 20.089844 11.078125 20.089844 L 23.628906 20.089844 C 23.957031 19.398438 24.402344 18.773438 24.9375 18.238281 C 25.621094 17.550781 26.457031 17.015625 27.390625 16.683594 L 27.390625 8.535156 L 23.359375 8.535156 C 22.710938 8.535156 22.121094 8.269531 21.691406 7.84375 C 21.265625 7.414062 21 6.824219 21 6.175781 L 21 2.015625 L 4.1875 2.015625 C 3.777344 2.015625 3.402344 2.183594 3.132812 2.453125 C 2.863281 2.722656 2.695312 3.09375 2.695312 3.503906 L 2.695312 33.507812 C 2.695312 33.921875 2.863281 34.292969 3.132812 34.5625 L 3.136719 34.5625 C 3.402344 34.832031 3.777344 35 4.1875 35 L 25.898438 35 C 26.3125 35 26.683594 34.832031 26.953125 34.5625 C 27.222656 34.292969 27.390625 33.921875 27.390625 33.507812 L 27.390625 29.175781 C 26.457031 28.839844 25.621094 28.304688 24.9375 27.617188 C 24.660156 27.34375 24.410156 27.042969 24.1875 26.722656 L 11.078125 26.722656 C 10.839844 26.722656 10.644531 26.527344 10.644531 26.289062 C 10.644531 26.046875 10.839844 25.855469 11.078125 25.855469 L 23.671875 25.855469 C 23.238281 24.972656 22.992188 23.976562 22.992188 22.929688 C 22.992188 22.242188 23.097656 21.582031 23.289062 20.960938 Z M 11.078125 25 L 18.25 25 C 18.488281 25 18.683594 24.804688 18.683594 24.5625 C 18.683594 24.324219 18.488281 24.128906 18.25 24.128906 L 11.078125 24.128906 C 10.839844 24.128906 10.644531 24.324219 10.644531 24.5625 C 10.644531 24.804688 10.839844 25 11.078125 25 Z M 24.746094 25.996094 C 24.777344 26.03125 24.804688 26.070312 24.824219 26.113281 C 25.035156 26.433594 25.28125 26.734375 25.550781 27.003906 C 26.59375 28.046875 28.035156 28.691406 29.625 28.691406 C 31.21875 28.691406 32.660156 28.046875 33.703125 27.003906 C 34.746094 25.960938 35.390625 24.519531 35.390625 22.929688 C 35.390625 21.335938 34.746094 19.894531 33.703125 18.851562 C 32.660156 17.808594 31.21875 17.164062 29.625 17.164062 C 28.035156 17.164062 26.59375 17.808594 25.550781 18.851562 C 24.507812 19.894531 23.863281 21.335938 23.863281 22.929688 C 23.863281 24.054688 24.1875 25.109375 24.746094 25.996094 Z M 11.078125 30.761719 L 18.25 30.761719 C 18.488281 30.761719 18.683594 30.570312 18.683594 30.328125 C 18.683594 30.089844 18.488281 29.894531 18.25 29.894531 L 11.078125 29.894531 C 10.839844 29.894531 10.644531 30.089844 10.644531 30.328125 C 10.644531 30.570312 10.839844 30.761719 11.078125 30.761719 Z M 11.078125 32.488281 L 24.035156 32.488281 C 24.273438 32.488281 24.46875 32.292969 24.46875 32.054688 C 24.46875 31.8125 24.273438 31.617188 24.035156 31.617188 L 11.078125 31.617188 C 10.839844 31.617188 10.644531 31.8125 10.644531 32.054688 C 10.644531 32.292969 10.839844 32.488281 11.078125 32.488281 Z M 6.398438 23.640625 C 6.203125 23.640625 6.019531 23.714844 5.882812 23.835938 C 5.871094 23.847656 5.859375 23.859375 5.847656 23.871094 C 5.707031 24.011719 5.617188 24.207031 5.617188 24.421875 L 5.617188 26.433594 C 5.617188 26.644531 5.707031 26.839844 5.847656 26.980469 L 5.847656 26.984375 C 5.988281 27.125 6.183594 27.210938 6.398438 27.210938 L 8.40625 27.210938 C 8.621094 27.210938 8.816406 27.125 8.957031 26.984375 L 8.957031 26.980469 C 9.101562 26.839844 9.1875 26.644531 9.1875 26.433594 L 9.1875 24.421875 C 9.1875 24.207031 9.101562 24.011719 8.957031 23.871094 C 8.816406 23.730469 8.621094 23.640625 8.40625 23.640625 Z M 8.316406 24.511719 L 6.488281 24.511719 L 6.488281 26.339844 L 8.316406 26.339844 Z M 6.398438 29.40625 C 6.183594 29.40625 5.988281 29.492188 5.847656 29.632812 L 5.847656 29.636719 C 5.707031 29.777344 5.617188 29.972656 5.617188 30.183594 L 5.617188 32.195312 C 5.617188 32.410156 5.707031 32.605469 5.847656 32.746094 C 5.988281 32.886719 6.183594 32.976562 6.398438 32.976562 L 8.40625 32.976562 C 8.621094 32.976562 8.816406 32.886719 8.957031 32.746094 C 9.101562 32.605469 9.1875 32.410156 9.1875 32.195312 L 9.1875 30.183594 C 9.1875 29.972656 9.101562 29.777344 8.957031 29.636719 L 8.957031 29.632812 C 8.816406 29.492188 8.621094 29.40625 8.40625 29.40625 Z M 8.316406 30.277344 L 6.488281 30.277344 L 6.488281 32.105469 L 8.316406 32.105469 Z M 25.613281 23.566406 L 27.582031 25.988281 C 27.84375 26.308594 28.199219 26.488281 28.574219 26.527344 C 28.949219 26.570312 29.34375 26.464844 29.667969 26.21875 C 29.710938 26.1875 29.757812 26.144531 29.804688 26.101562 C 29.847656 26.0625 29.886719 26.019531 29.925781 25.96875 L 33.355469 21.75 C 33.613281 21.433594 33.71875 21.035156 33.679688 20.65625 C 33.636719 20.277344 33.457031 19.910156 33.136719 19.652344 C 32.816406 19.394531 32.421875 19.289062 32.042969 19.328125 C 31.664062 19.367188 31.296875 19.550781 31.039062 19.867188 L 28.746094 22.691406 L 27.929688 21.6875 L 27.929688 21.683594 C 27.671875 21.367188 27.304688 21.183594 26.925781 21.144531 C 26.546875 21.105469 26.148438 21.210938 25.832031 21.46875 C 25.511719 21.726562 25.328125 22.09375 25.289062 22.472656 C 25.25 22.851562 25.355469 23.25 25.613281 23.566406 Z M 26.152344 22.5625 C 26.136719 22.722656 26.179688 22.886719 26.289062 23.019531 L 28.257812 25.441406 C 28.363281 25.574219 28.511719 25.648438 28.664062 25.664062 C 28.828125 25.683594 29 25.636719 29.144531 25.527344 C 29.164062 25.511719 29.183594 25.496094 29.199219 25.480469 C 29.21875 25.460938 29.238281 25.441406 29.253906 25.421875 L 32.679688 21.203125 C 32.789062 21.070312 32.832031 20.90625 32.816406 20.746094 C 32.796875 20.585938 32.722656 20.429688 32.589844 20.324219 C 32.457031 20.21875 32.292969 20.175781 32.132812 20.191406 C 31.972656 20.207031 31.820312 20.285156 31.710938 20.414062 L 31.710938 20.417969 L 29.15625 23.5625 C 29.101562 23.625 29.042969 23.671875 28.972656 23.707031 L 28.96875 23.707031 C 28.894531 23.742188 28.824219 23.757812 28.746094 23.757812 C 28.667969 23.757812 28.59375 23.742188 28.519531 23.707031 C 28.449219 23.671875 28.390625 23.625 28.335938 23.5625 L 27.257812 22.234375 L 27.257812 22.230469 C 27.148438 22.101562 26.996094 22.023438 26.835938 22.007812 C 26.675781 21.992188 26.511719 22.035156 26.378906 22.140625 C 26.246094 22.25 26.167969 22.402344 26.152344 22.5625 Z M 31.710938 20.414062 L 31.710938 20.417969 Z M 32.589844 20.324219 Z M 13 8.421875 C 12.804688 8.234375 12.550781 8.082031 12.277344 7.976562 C 12.148438 7.925781 12.011719 7.886719 11.875 7.859375 L 11.875 7.125 C 11.875 6.886719 11.679688 6.691406 11.441406 6.691406 C 11.199219 6.691406 11.007812 6.886719 11.007812 7.125 L 11.007812 7.847656 C 10.679688 7.914062 10.378906 8.058594 10.140625 8.304688 C 10 8.449219 9.886719 8.628906 9.804688 8.84375 C 9.664062 9.207031 9.671875 9.582031 9.832031 9.917969 C 9.976562 10.222656 10.242188 10.492188 10.628906 10.6875 C 10.910156 10.828125 11.230469 10.914062 11.542969 10.996094 C 11.75 11.050781 11.953125 11.101562 12.128906 11.171875 L 12.148438 11.179688 C 12.390625 11.285156 12.5 11.433594 12.503906 11.578125 C 12.507812 11.683594 12.46875 11.800781 12.390625 11.910156 C 12.308594 12.03125 12.175781 12.144531 12.011719 12.222656 C 11.851562 12.300781 11.664062 12.347656 11.453125 12.347656 L 11.4375 12.347656 C 11.078125 12.34375 10.65625 12.210938 10.203125 11.871094 C 10.011719 11.726562 9.742188 11.765625 9.597656 11.957031 C 9.453125 12.148438 9.492188 12.421875 9.683594 12.5625 C 10.140625 12.90625 10.589844 13.097656 11.007812 13.175781 L 11.007812 13.902344 C 11.007812 14.140625 11.199219 14.335938 11.441406 14.335938 C 11.679688 14.335938 11.875 14.140625 11.875 13.902344 L 11.875 13.179688 C 12.0625 13.140625 12.234375 13.082031 12.390625 13.003906 C 12.691406 12.859375 12.9375 12.644531 13.105469 12.402344 C 13.285156 12.140625 13.378906 11.847656 13.371094 11.550781 C 13.355469 11.078125 13.082031 10.632812 12.480469 10.378906 L 12.453125 10.367188 C 12.242188 10.28125 12.003906 10.21875 11.757812 10.15625 C 11.492188 10.085938 11.222656 10.015625 11.019531 9.914062 C 10.8125 9.808594 10.679688 9.683594 10.617188 9.546875 C 10.558594 9.429688 10.558594 9.289062 10.613281 9.152344 C 10.648438 9.054688 10.699219 8.976562 10.761719 8.910156 C 10.890625 8.777344 11.074219 8.707031 11.277344 8.683594 C 11.316406 8.679688 11.359375 8.679688 11.402344 8.675781 C 11.414062 8.679688 11.429688 8.679688 11.441406 8.679688 L 11.464844 8.679688 C 11.636719 8.683594 11.808594 8.722656 11.96875 8.78125 C 12.132812 8.847656 12.28125 8.9375 12.394531 9.046875 C 12.566406 9.210938 12.839844 9.207031 13.007812 9.035156 C 13.175781 8.867188 13.171875 8.589844 13 8.421875 Z M 16.492188 10.515625 C 16.492188 9.121094 15.925781 7.855469 15.011719 6.941406 C 14.097656 6.027344 12.835938 5.464844 11.441406 5.464844 C 10.046875 5.464844 8.785156 6.027344 7.871094 6.941406 C 6.957031 7.855469 6.390625 9.121094 6.390625 10.515625 C 6.390625 11.910156 6.957031 13.171875 7.871094 14.085938 C 8.785156 15 10.046875 15.5625 11.441406 15.5625 C 12.835938 15.5625 14.097656 15 15.011719 14.085938 C 15.925781 13.171875 16.492188 11.910156 16.492188 10.515625 Z M 15.628906 6.328125 C 14.554688 5.257812 13.074219 4.59375 11.441406 4.59375 C 9.804688 4.59375 8.324219 5.257812 7.253906 6.328125 C 6.183594 7.398438 5.519531 8.878906 5.519531 10.515625 C 5.519531 12.148438 6.183594 13.628906 7.253906 14.699219 C 8.324219 15.773438 9.804688 16.433594 11.441406 16.433594 C 13.074219 16.433594 14.554688 15.773438 15.628906 14.699219 C 16.699219 13.628906 17.363281 12.148438 17.363281 10.515625 C 17.363281 8.878906 16.699219 7.398438 15.628906 6.328125 Z M 26.792969 7.664062 L 23.523438 4.332031 L 21.867188 2.644531 L 21.867188 6.175781 C 21.867188 6.585938 22.035156 6.957031 22.308594 7.226562 C 22.578125 7.496094 22.949219 7.664062 23.359375 7.664062 Z M 26.792969 7.664062 " fill-opacity="1" fill-rule="evenodd"/></g></svg>