<svg xmlns="http://www.w3.org/2000/svg" xmlns:xlink="http://www.w3.org/1999/xlink" width="50" zoomAndPan="magnify" viewBox="0 0 37.5 37.499999" height="50" preserveAspectRatio="xMidYMid meet" version="1.0"><defs><clipPath id="89ceac795b"><path d="M 4.972656 1.851562 L 32.359375 1.851562 L 32.359375 35.15625 L 4.972656 35.15625 Z M 4.972656 1.851562 " clip-rule="nonzero"/></clipPath><clipPath id="e12cb7ec2d"><path d="M 1 0.851562 L 28.035156 0.851562 L 28.035156 34.15625 L 1 34.15625 Z M 1 0.851562 " clip-rule="nonzero"/></clipPath><clipPath id="ca672d8f22"><rect x="0" width="29" y="0" height="35"/></clipPath></defs><g clip-path="url(#89ceac795b)"><g transform="matrix(1, 0, 0, 1, 4, 1)"><g clip-path="url(#ca672d8f22)"><g clip-path="url(#e12cb7ec2d)"><path fill="#183d79" d="M 2.664062 26.628906 C 2.664062 26.199219 2.316406 25.851562 1.882812 25.851562 C 1.453125 25.851562 1.101562 26.199219 1.101562 26.628906 L 1.101562 28.246094 C 1.101562 29.875 1.765625 31.351562 2.835938 32.421875 C 3.90625 33.492188 5.382812 34.15625 7.011719 34.15625 L 22.09375 34.15625 C 23.722656 34.15625 25.199219 33.492188 26.269531 32.421875 C 27.339844 31.347656 28.003906 29.871094 28.003906 28.246094 L 28.003906 6.75 C 28.003906 5.125 27.339844 3.644531 26.269531 2.578125 C 25.199219 1.503906 23.722656 0.84375 22.09375 0.84375 L 7.011719 0.84375 C 5.382812 0.84375 3.90625 1.503906 2.835938 2.578125 C 1.765625 3.648438 1.101562 5.125 1.101562 6.75 L 1.101562 8.367188 C 1.101562 8.796875 1.453125 9.148438 1.882812 9.148438 C 2.316406 9.148438 2.664062 8.796875 2.664062 8.367188 L 2.664062 6.75 C 2.664062 5.554688 3.152344 4.46875 3.941406 3.679688 C 4.730469 2.890625 5.816406 2.402344 7.011719 2.402344 L 16.773438 2.402344 C 17.96875 2.402344 19.058594 2.890625 19.84375 3.679688 C 20.632812 4.46875 21.121094 5.554688 21.121094 6.75 L 21.121094 16.71875 L 3.664062 16.71875 L 8.515625 11.867188 C 8.820312 11.5625 8.820312 11.066406 8.515625 10.761719 C 8.210938 10.457031 7.714844 10.457031 7.410156 10.761719 L 1.226562 16.945312 C 0.921875 17.25 0.921875 17.746094 1.226562 18.050781 L 7.410156 24.234375 C 7.714844 24.539062 8.210938 24.539062 8.515625 24.234375 C 8.820312 23.929688 8.820312 23.4375 8.515625 23.132812 L 3.664062 18.277344 L 21.121094 18.277344 L 21.121094 28.246094 C 21.121094 29.441406 20.632812 30.53125 19.84375 31.316406 C 19.058594 32.105469 17.96875 32.59375 16.773438 32.59375 L 7.011719 32.59375 C 5.816406 32.59375 4.730469 32.105469 3.941406 31.316406 C 3.152344 30.53125 2.664062 29.445312 2.664062 28.246094 Z M 2.664062 26.628906 " fill-opacity="1" fill-rule="evenodd"/></g></g></g></g></svg>