<svg xmlns="http://www.w3.org/2000/svg" xmlns:xlink="http://www.w3.org/1999/xlink" width="250" zoomAndPan="magnify" viewBox="0 0 187.92 196.08" height="250" preserveAspectRatio="xMidYMid meet" version="1.0"><defs><clipPath id="155391b14f"><path d="M 24.136719 28 L 162.988281 28 L 162.988281 159.347656 L 24.136719 159.347656 Z M 24.136719 28 " clip-rule="nonzero"/></clipPath></defs><path fill="#005b9f" d="M 79.726562 78.222656 C 77.167969 78.222656 75.089844 80.300781 75.089844 82.859375 L 75.089844 104.460938 C 75.089844 107.019531 77.167969 109.097656 79.726562 109.097656 C 82.285156 109.097656 84.363281 107.019531 84.363281 104.460938 L 84.363281 82.859375 C 84.363281 80.296875 82.289062 78.222656 79.726562 78.222656 Z M 79.726562 78.222656 " fill-opacity="1" fill-rule="nonzero"/><g clip-path="url(#155391b14f)"><path fill="#005b9f" d="M 162.921875 95.429688 C 162.984375 95.28125 163.019531 95.128906 163.066406 94.972656 C 163.105469 94.835938 163.15625 94.707031 163.183594 94.566406 C 163.246094 94.269531 163.277344 93.96875 163.277344 93.667969 C 163.277344 93.664062 163.277344 93.660156 163.277344 93.65625 C 163.277344 93.355469 163.242188 93.046875 163.183594 92.75 C 163.15625 92.613281 163.105469 92.488281 163.066406 92.359375 C 163.019531 92.199219 162.984375 92.039062 162.917969 91.882812 C 162.855469 91.726562 162.765625 91.585938 162.6875 91.441406 C 162.621094 91.320312 162.570312 91.199219 162.496094 91.082031 C 162.324219 90.828125 162.128906 90.589844 161.914062 90.375 L 147.617188 76.078125 C 145.808594 74.269531 142.871094 74.269531 141.058594 76.078125 C 139.25 77.890625 139.25 80.828125 141.058594 82.636719 L 147.445312 89.023438 L 129.789062 89.023438 L 129.789062 57.292969 C 129.789062 49.214844 123.214844 42.640625 115.136719 42.640625 L 101.230469 42.640625 C 100.070312 38.695312 97.746094 35.164062 94.425781 32.527344 C 89.558594 28.667969 83.304688 27.273438 77.265625 28.691406 L 41.742188 37.007812 C 31.378906 39.4375 24.136719 48.566406 24.136719 59.210938 L 24.136719 128.109375 C 24.136719 138.753906 31.378906 147.882812 41.742188 150.3125 L 77.261719 158.628906 C 78.804688 158.992188 80.363281 159.167969 81.910156 159.167969 C 86.410156 159.167969 90.800781 157.660156 94.421875 154.785156 C 97.742188 152.152344 100.066406 148.617188 101.222656 144.675781 L 115.132812 144.675781 C 123.210938 144.675781 129.78125 138.101562 129.78125 130.023438 L 129.78125 98.296875 L 147.4375 98.296875 L 141.058594 104.675781 C 139.25 106.488281 139.25 109.425781 141.058594 111.234375 C 141.964844 112.140625 143.152344 112.59375 144.339844 112.59375 C 145.527344 112.59375 146.710938 112.140625 147.617188 111.234375 L 161.914062 96.941406 C 162.128906 96.726562 162.324219 96.488281 162.496094 96.230469 C 162.570312 96.121094 162.617188 96 162.679688 95.886719 C 162.769531 95.738281 162.859375 95.589844 162.921875 95.429688 Z M 92.800781 138.960938 C 92.800781 142.3125 91.289062 145.4375 88.660156 147.519531 C 86.03125 149.609375 82.644531 150.367188 79.378906 149.597656 L 43.855469 141.28125 C 37.707031 139.839844 33.414062 134.421875 33.414062 128.109375 L 33.414062 59.210938 C 33.414062 52.894531 37.707031 47.480469 43.855469 46.039062 L 79.382812 37.722656 C 80.214844 37.523438 81.058594 37.429688 81.894531 37.429688 C 84.324219 37.429688 86.699219 38.246094 88.65625 39.796875 C 91.289062 41.882812 92.800781 45.003906 92.800781 48.359375 Z M 120.511719 130.027344 C 120.511719 132.988281 118.097656 135.402344 115.136719 135.402344 L 102.078125 135.402344 L 102.078125 51.917969 L 115.136719 51.917969 C 118.097656 51.917969 120.511719 54.328125 120.511719 57.292969 L 120.511719 89.023438 L 111.292969 89.023438 C 108.734375 89.023438 106.65625 91.097656 106.65625 93.660156 C 106.65625 96.21875 108.734375 98.296875 111.292969 98.296875 L 120.511719 98.296875 Z M 120.511719 130.027344 " fill-opacity="1" fill-rule="nonzero"/></g></svg>