<svg xmlns="http://www.w3.org/2000/svg" xmlns:xlink="http://www.w3.org/1999/xlink" width="50" zoomAndPan="magnify" viewBox="0 0 37.5 37.499999" height="50" preserveAspectRatio="xMidYMid meet" version="1.0"><defs><clipPath id="129752c617"><path d="M 1.375 1.375 L 35.421875 1.375 L 35.421875 35.421875 L 1.375 35.421875 Z M 1.375 1.375 " clip-rule="nonzero"/></clipPath></defs><g clip-path="url(#129752c617)"><path fill="#183d79" d="M 13.382812 11.808594 C 13.382812 11.574219 13.574219 11.382812 13.808594 11.382812 L 25.324219 11.382812 C 25.558594 11.382812 25.75 11.574219 25.75 11.808594 C 25.75 12.042969 25.558594 12.234375 25.324219 12.234375 L 13.808594 12.234375 C 13.574219 12.234375 13.382812 12.042969 13.382812 11.808594 Z M 13.808594 14.601562 L 21.320312 14.601562 C 21.554688 14.601562 21.746094 14.410156 21.746094 14.175781 C 21.746094 13.941406 21.554688 13.75 21.320312 13.75 L 13.808594 13.75 C 13.574219 13.75 13.382812 13.941406 13.382812 14.175781 C 13.382812 14.410156 13.574219 14.601562 13.808594 14.601562 Z M 10.824219 10.25 C 10.988281 10.417969 10.988281 10.6875 10.824219 10.851562 L 9.96875 11.707031 L 9.96875 15.121094 C 9.96875 15.355469 9.777344 15.546875 9.542969 15.546875 L 5.28125 15.546875 C 5.046875 15.546875 4.855469 15.355469 4.855469 15.121094 L 4.855469 10.863281 C 4.855469 10.628906 5.046875 10.4375 5.28125 10.4375 L 9.542969 10.4375 C 9.675781 10.4375 9.796875 10.5 9.875 10.59375 L 10.21875 10.25 C 10.386719 10.082031 10.65625 10.082031 10.824219 10.25 Z M 9.117188 12.558594 L 7.714844 13.960938 C 7.628906 14.042969 7.519531 14.085938 7.410156 14.085938 C 7.304688 14.085938 7.195312 14.042969 7.109375 13.960938 L 6.289062 13.140625 C 6.121094 12.972656 6.121094 12.703125 6.289062 12.535156 C 6.453125 12.371094 6.726562 12.371094 6.890625 12.535156 L 7.414062 13.058594 L 9.117188 11.355469 L 9.117188 11.289062 L 5.710938 11.289062 L 5.710938 14.695312 L 9.117188 14.695312 Z M 10.824219 18.527344 C 10.988281 18.695312 10.988281 18.964844 10.824219 19.132812 L 9.96875 19.984375 L 9.96875 23.402344 C 9.96875 23.636719 9.777344 23.828125 9.542969 23.828125 L 5.28125 23.828125 C 5.046875 23.828125 4.855469 23.636719 4.855469 23.402344 L 4.855469 19.140625 C 4.855469 18.90625 5.046875 18.714844 5.28125 18.714844 L 9.542969 18.714844 C 9.675781 18.714844 9.796875 18.777344 9.875 18.875 L 10.21875 18.527344 C 10.386719 18.363281 10.65625 18.363281 10.824219 18.527344 Z M 9.117188 20.839844 L 7.714844 22.238281 C 7.628906 22.324219 7.519531 22.367188 7.410156 22.367188 C 7.304688 22.367188 7.195312 22.324219 7.109375 22.238281 L 6.289062 21.417969 C 6.121094 21.25 6.121094 20.980469 6.289062 20.816406 C 6.453125 20.648438 6.726562 20.648438 6.890625 20.816406 L 7.414062 21.335938 L 9.117188 19.632812 L 9.117188 19.566406 L 5.710938 19.566406 L 5.710938 22.972656 L 9.117188 22.972656 Z M 21.320312 30.308594 L 13.808594 30.308594 C 13.574219 30.308594 13.382812 30.5 13.382812 30.734375 C 13.382812 30.96875 13.574219 31.160156 13.808594 31.160156 L 21.320312 31.160156 C 21.554688 31.160156 21.746094 30.96875 21.746094 30.734375 C 21.746094 30.5 21.554688 30.308594 21.320312 30.308594 Z M 10.824219 26.808594 C 10.988281 26.972656 10.988281 27.242188 10.824219 27.410156 L 9.96875 28.265625 L 9.96875 31.679688 C 9.96875 31.914062 9.777344 32.105469 9.542969 32.105469 L 5.28125 32.105469 C 5.046875 32.105469 4.855469 31.914062 4.855469 31.679688 L 4.855469 27.421875 C 4.855469 27.183594 5.046875 26.992188 5.28125 26.992188 L 9.542969 26.992188 C 9.675781 26.992188 9.796875 27.054688 9.875 27.152344 L 10.21875 26.808594 C 10.386719 26.640625 10.65625 26.640625 10.824219 26.808594 Z M 9.117188 29.117188 L 7.714844 30.519531 C 7.628906 30.601562 7.519531 30.644531 7.410156 30.644531 C 7.304688 30.644531 7.195312 30.601562 7.109375 30.519531 L 6.289062 29.695312 C 6.121094 29.53125 6.121094 29.261719 6.289062 29.09375 C 6.453125 28.925781 6.726562 28.925781 6.890625 29.09375 L 7.414062 29.613281 L 9.117188 27.910156 L 9.117188 27.847656 L 5.710938 27.847656 L 5.710938 31.253906 L 9.117188 31.253906 Z M 29.230469 30.910156 L 29.230469 35.203125 C 29.230469 35.4375 29.042969 35.628906 28.804688 35.628906 L 1.800781 35.628906 C 1.566406 35.628906 1.375 35.4375 1.375 35.203125 L 1.375 7.027344 C 1.375 6.917969 1.417969 6.808594 1.5 6.726562 L 6.726562 1.5 C 6.808594 1.417969 6.917969 1.375 7.027344 1.375 C 7.027344 1.375 28.804688 1.375 28.804688 1.375 C 29.042969 1.375 29.230469 1.566406 29.230469 1.800781 L 29.230469 14.203125 C 32.914062 15.199219 35.628906 18.566406 35.628906 22.558594 C 35.628906 26.546875 32.914062 29.917969 29.230469 30.910156 Z M 2.828125 6.601562 L 6.601562 6.601562 L 6.601562 2.828125 Z M 28.378906 31.097656 C 27.921875 31.171875 27.453125 31.210938 26.976562 31.210938 C 24.652344 31.210938 22.539062 30.289062 20.980469 28.792969 L 13.808594 28.792969 C 13.574219 28.792969 13.382812 28.601562 13.382812 28.367188 C 13.382812 28.132812 13.574219 27.941406 13.808594 27.941406 L 20.203125 27.941406 C 19.089844 26.539062 18.398438 24.789062 18.328125 22.882812 L 13.808594 22.882812 C 13.574219 22.882812 13.382812 22.691406 13.382812 22.453125 C 13.382812 22.21875 13.574219 22.027344 13.808594 22.027344 L 18.339844 22.027344 C 18.371094 21.511719 18.449219 21.003906 18.566406 20.515625 L 13.808594 20.515625 C 13.574219 20.515625 13.382812 20.324219 13.382812 20.085938 C 13.382812 19.851562 13.574219 19.660156 13.808594 19.660156 L 18.820312 19.660156 C 20.015625 16.308594 23.21875 13.902344 26.976562 13.902344 C 27.453125 13.902344 27.921875 13.945312 28.378906 14.019531 L 28.378906 2.226562 L 7.457031 2.226562 L 7.457031 7.027344 C 7.457031 7.265625 7.265625 7.457031 7.027344 7.457031 L 2.226562 7.457031 L 2.226562 34.777344 L 28.378906 34.777344 Z M 34.777344 22.558594 C 34.777344 18.257812 31.277344 14.757812 26.976562 14.757812 C 22.675781 14.757812 19.175781 18.257812 19.175781 22.558594 C 19.175781 26.859375 22.675781 30.355469 26.976562 30.355469 C 31.277344 30.355469 34.777344 26.859375 34.777344 22.558594 Z M 33.175781 22.925781 L 32.238281 23.464844 L 33.175781 24.003906 C 33.308594 24.078125 33.390625 24.222656 33.390625 24.375 C 33.390625 24.527344 33.308594 24.667969 33.175781 24.742188 L 27.1875 28.183594 C 27.121094 28.222656 27.046875 28.242188 26.976562 28.242188 C 26.902344 28.242188 26.828125 28.222656 26.761719 28.183594 L 20.773438 24.742188 C 20.640625 24.667969 20.558594 24.527344 20.558594 24.375 C 20.558594 24.222656 20.640625 24.078125 20.773438 24.003906 L 21.710938 23.464844 L 20.773438 22.925781 C 20.640625 22.851562 20.558594 22.710938 20.558594 22.558594 C 20.558594 22.40625 20.640625 22.261719 20.773438 22.1875 L 21.710938 21.648438 L 20.773438 21.109375 C 20.640625 21.035156 20.558594 20.894531 20.558594 20.742188 C 20.558594 20.585938 20.640625 20.445312 20.773438 20.371094 L 26.761719 16.929688 C 26.894531 16.855469 27.054688 16.855469 27.1875 16.929688 L 33.175781 20.371094 C 33.308594 20.445312 33.390625 20.585938 33.390625 20.742188 C 33.390625 20.894531 33.308594 21.035156 33.175781 21.109375 L 32.238281 21.648438 L 33.175781 22.1875 C 33.308594 22.261719 33.390625 22.40625 33.390625 22.558594 C 33.390625 22.710938 33.308594 22.851562 33.175781 22.925781 Z M 21.84375 20.742188 L 26.976562 23.691406 L 32.109375 20.742188 L 26.976562 17.792969 Z M 22.566406 22.140625 L 21.84375 22.558594 L 26.976562 25.507812 L 32.109375 22.558594 L 31.382812 22.140625 L 27.1875 24.550781 C 27.121094 24.589844 27.046875 24.609375 26.976562 24.609375 C 26.902344 24.609375 26.828125 24.589844 26.761719 24.550781 Z M 31.382812 23.957031 L 27.1875 26.367188 C 27.121094 26.40625 27.046875 26.425781 26.976562 26.425781 C 26.902344 26.425781 26.828125 26.40625 26.761719 26.367188 L 22.566406 23.957031 L 21.84375 24.375 L 26.976562 27.324219 L 32.109375 24.375 Z M 31.382812 23.957031 " fill-opacity="1" fill-rule="nonzero"/></g></svg>