<svg xmlns="http://www.w3.org/2000/svg" xmlns:xlink="http://www.w3.org/1999/xlink" width="50" zoomAndPan="magnify" viewBox="0 0 37.5 37.499999" height="50" preserveAspectRatio="xMidYMid meet" version="1.0"><defs><clipPath id="8d39f99a95"><path d="M 4.519531 0.519531 L 32.644531 0.519531 L 32.644531 36.785156 L 4.519531 36.785156 Z M 4.519531 0.519531 " clip-rule="nonzero"/></clipPath></defs><g clip-path="url(#8d39f99a95)"><path fill="#183d79" d="M 19.082031 36.484375 C 18.996094 36.484375 18.910156 36.460938 18.832031 36.414062 L 16.058594 34.667969 L 14.632812 36.023438 C 14.445312 36.203125 14.148438 36.195312 13.96875 36.007812 L 12.246094 34.214844 L 9.867188 35.695312 C 9.695312 35.796875 9.484375 35.789062 9.328125 35.664062 L 7.824219 34.464844 L 5.214844 35.71875 C 5.066406 35.789062 4.902344 35.78125 4.761719 35.695312 C 4.628906 35.605469 4.542969 35.457031 4.542969 35.292969 L 4.542969 2.460938 C 4.542969 1.386719 5.410156 0.519531 6.484375 0.519531 L 30.519531 0.519531 C 31.589844 0.519531 32.460938 1.386719 32.460938 2.460938 L 32.460938 35.285156 C 32.460938 35.527344 32.273438 35.734375 32.03125 35.757812 L 29.964844 35.9375 C 29.828125 35.945312 29.695312 35.90625 29.601562 35.8125 L 28.171875 34.488281 C 26.425781 35.929688 26.316406 35.96875 26.230469 36 C 25.765625 36.15625 25.546875 35.71875 25.109375 34.855469 C 25.03125 34.707031 24.960938 34.558594 24.898438 34.425781 C 23.167969 35.765625 22.988281 35.84375 22.925781 35.867188 C 22.550781 36.015625 22.226562 35.757812 21.476562 34.886719 C 21.328125 34.714844 21.1875 34.542969 21.0625 34.394531 L 19.441406 36.320312 C 19.347656 36.421875 19.214844 36.484375 19.082031 36.484375 Z M 15.996094 33.601562 C 16.082031 33.601562 16.167969 33.625 16.246094 33.671875 L 18.980469 35.394531 L 20.703125 33.34375 C 20.789062 33.234375 20.921875 33.179688 21.0625 33.179688 C 21.0625 33.179688 21.070312 33.179688 21.070312 33.179688 C 21.210938 33.179688 21.34375 33.25 21.429688 33.359375 C 21.882812 33.933594 22.457031 34.589844 22.746094 34.871094 C 23.144531 34.589844 24.003906 33.933594 24.78125 33.328125 C 24.890625 33.242188 25.039062 33.210938 25.179688 33.242188 C 25.320312 33.273438 25.4375 33.367188 25.492188 33.5 C 25.71875 33.988281 25.992188 34.550781 26.191406 34.894531 C 26.589844 34.582031 27.269531 34.027344 27.894531 33.507812 C 28.078125 33.359375 28.34375 33.367188 28.515625 33.523438 L 30.097656 34.988281 L 31.527344 34.863281 L 31.527344 2.460938 C 31.527344 1.902344 31.082031 1.457031 30.527344 1.457031 L 6.492188 1.457031 C 5.9375 1.457031 5.488281 1.902344 5.488281 2.460938 L 5.488281 34.535156 L 7.691406 33.476562 C 7.855469 33.398438 8.042969 33.421875 8.183594 33.53125 L 9.65625 34.707031 L 12.074219 33.203125 C 12.261719 33.085938 12.503906 33.117188 12.660156 33.273438 L 14.320312 35.003906 L 15.667969 33.71875 C 15.761719 33.640625 15.878906 33.601562 15.996094 33.601562 Z M 32 35.285156 Z M 25.867188 35.136719 Z M 25.867188 35.136719 " fill-opacity="1" fill-rule="nonzero"/></g><path fill="#183d79" d="M 29.296875 30.238281 L 12.746094 30.238281 C 12.488281 30.238281 12.277344 30.023438 12.277344 29.765625 C 12.277344 29.507812 12.488281 29.296875 12.746094 29.296875 L 29.296875 29.296875 C 29.554688 29.296875 29.765625 29.507812 29.765625 29.765625 C 29.765625 30.023438 29.554688 30.238281 29.296875 30.238281 Z M 29.296875 30.238281 " fill-opacity="1" fill-rule="nonzero"/><path fill="#183d79" d="M 29.296875 25.929688 L 12.746094 25.929688 C 12.488281 25.929688 12.277344 25.71875 12.277344 25.460938 C 12.277344 25.203125 12.488281 24.992188 12.746094 24.992188 L 29.296875 24.992188 C 29.554688 24.992188 29.765625 25.203125 29.765625 25.460938 C 29.765625 25.71875 29.554688 25.929688 29.296875 25.929688 Z M 29.296875 25.929688 " fill-opacity="1" fill-rule="nonzero"/><path fill="#183d79" d="M 29.296875 21.617188 L 12.746094 21.617188 C 12.488281 21.617188 12.277344 21.40625 12.277344 21.148438 C 12.277344 20.890625 12.488281 20.675781 12.746094 20.675781 L 29.296875 20.675781 C 29.554688 20.675781 29.765625 20.890625 29.765625 21.148438 C 29.765625 21.40625 29.554688 21.617188 29.296875 21.617188 Z M 29.296875 21.617188 " fill-opacity="1" fill-rule="nonzero"/><path fill="#183d79" d="M 10.296875 23.097656 L 7.761719 23.097656 C 7.503906 23.097656 7.289062 22.886719 7.289062 22.628906 L 7.289062 20.089844 C 7.289062 19.832031 7.503906 19.621094 7.761719 19.621094 L 10.296875 19.621094 C 10.554688 19.621094 10.765625 19.832031 10.765625 20.089844 L 10.765625 22.628906 C 10.765625 22.886719 10.554688 23.097656 10.296875 23.097656 Z M 8.230469 22.15625 L 9.828125 22.15625 L 9.828125 20.558594 L 8.230469 20.558594 Z M 8.230469 22.15625 " fill-opacity="1" fill-rule="nonzero"/><path fill="#183d79" d="M 10.296875 27.191406 L 7.761719 27.191406 C 7.503906 27.191406 7.289062 26.980469 7.289062 26.722656 L 7.289062 24.183594 C 7.289062 23.925781 7.503906 23.714844 7.761719 23.714844 L 10.296875 23.714844 C 10.554688 23.714844 10.765625 23.925781 10.765625 24.183594 L 10.765625 26.722656 C 10.765625 26.980469 10.554688 27.191406 10.296875 27.191406 Z M 8.230469 26.25 L 9.828125 26.25 L 9.828125 24.65625 L 8.230469 24.65625 Z M 8.230469 26.25 " fill-opacity="1" fill-rule="nonzero"/><path fill="#183d79" d="M 10.296875 31.285156 L 7.761719 31.285156 C 7.503906 31.285156 7.289062 31.074219 7.289062 30.816406 L 7.289062 28.289062 C 7.289062 28.027344 7.503906 27.816406 7.761719 27.816406 L 10.296875 27.816406 C 10.554688 27.816406 10.765625 28.027344 10.765625 28.289062 L 10.765625 30.824219 C 10.765625 31.082031 10.554688 31.285156 10.296875 31.285156 Z M 8.230469 30.347656 L 9.828125 30.347656 L 9.828125 28.757812 L 8.230469 28.757812 Z M 8.230469 30.347656 " fill-opacity="1" fill-rule="nonzero"/><path fill="#183d79" d="M 15.746094 18.453125 L 8.191406 18.453125 C 7.933594 18.453125 7.722656 18.242188 7.722656 17.984375 C 7.722656 17.726562 7.933594 17.515625 8.191406 17.515625 L 15.746094 17.515625 C 16.003906 17.515625 16.214844 17.726562 16.214844 17.984375 C 16.214844 18.242188 16.003906 18.453125 15.746094 18.453125 Z M 15.746094 18.453125 " fill-opacity="1" fill-rule="nonzero"/><path fill="#183d79" d="M 27.394531 16.253906 L 8.144531 16.253906 C 7.886719 16.253906 7.675781 16.042969 7.675781 15.785156 C 7.675781 15.527344 7.886719 15.316406 8.144531 15.316406 L 27.394531 15.316406 C 27.652344 15.316406 27.863281 15.527344 27.863281 15.785156 C 27.863281 16.042969 27.652344 16.253906 27.394531 16.253906 Z M 27.394531 16.253906 " fill-opacity="1" fill-rule="nonzero"/><path fill="#183d79" d="M 18.375 13.890625 C 15.402344 13.890625 12.988281 11.472656 12.988281 8.503906 C 12.988281 5.535156 15.410156 3.117188 18.375 3.117188 C 21.34375 3.117188 23.761719 5.535156 23.761719 8.503906 C 23.761719 11.472656 21.34375 13.890625 18.375 13.890625 Z M 18.375 4.058594 C 15.925781 4.058594 13.929688 6.054688 13.929688 8.503906 C 13.929688 10.953125 15.925781 12.949219 18.375 12.949219 C 20.828125 12.949219 22.824219 10.953125 22.824219 8.503906 C 22.824219 6.054688 20.828125 4.058594 18.375 4.058594 Z M 18.375 4.058594 " fill-opacity="1" fill-rule="nonzero"/><path fill="#183d79" d="M 18.375 8.972656 C 17.382812 8.972656 16.566406 8.238281 16.566406 7.335938 C 16.566406 6.4375 17.382812 5.699219 18.375 5.699219 C 19.371094 5.699219 20.183594 6.4375 20.183594 7.335938 C 20.183594 7.59375 19.972656 7.808594 19.714844 7.808594 C 19.457031 7.808594 19.246094 7.59375 19.246094 7.335938 C 19.246094 6.953125 18.855469 6.640625 18.375 6.640625 C 17.898438 6.640625 17.507812 6.953125 17.507812 7.335938 C 17.507812 7.722656 17.898438 8.035156 18.375 8.035156 C 18.632812 8.035156 18.847656 8.246094 18.847656 8.503906 C 18.847656 8.761719 18.632812 8.972656 18.375 8.972656 Z M 18.375 8.972656 " fill-opacity="1" fill-rule="nonzero"/><path fill="#183d79" d="M 18.375 6.640625 C 18.117188 6.640625 17.90625 6.429688 17.90625 6.171875 L 17.90625 5.511719 C 17.90625 5.253906 18.117188 5.042969 18.375 5.042969 C 18.632812 5.042969 18.847656 5.253906 18.847656 5.511719 L 18.847656 6.171875 C 18.847656 6.429688 18.632812 6.640625 18.375 6.640625 Z M 18.375 6.640625 " fill-opacity="1" fill-rule="nonzero"/><path fill="#183d79" d="M 18.375 11.304688 C 17.382812 11.304688 16.566406 10.570312 16.566406 9.671875 C 16.566406 9.410156 16.777344 9.199219 17.039062 9.199219 C 17.296875 9.199219 17.507812 9.410156 17.507812 9.671875 C 17.507812 10.054688 17.898438 10.367188 18.375 10.367188 C 18.855469 10.367188 19.246094 10.054688 19.246094 9.671875 C 19.246094 9.285156 18.855469 8.972656 18.375 8.972656 C 18.117188 8.972656 17.90625 8.761719 17.90625 8.503906 C 17.90625 8.246094 18.117188 8.035156 18.375 8.035156 C 19.371094 8.035156 20.183594 8.769531 20.183594 9.671875 C 20.183594 10.570312 19.371094 11.304688 18.375 11.304688 Z M 18.375 11.304688 " fill-opacity="1" fill-rule="nonzero"/><path fill="#183d79" d="M 18.375 11.964844 C 18.117188 11.964844 17.90625 11.753906 17.90625 11.496094 L 17.90625 10.835938 C 17.90625 10.578125 18.117188 10.367188 18.375 10.367188 C 18.632812 10.367188 18.847656 10.578125 18.847656 10.835938 L 18.847656 11.496094 C 18.847656 11.753906 18.632812 11.964844 18.375 11.964844 Z M 18.375 11.964844 " fill-opacity="1" fill-rule="nonzero"/></svg>