<svg xmlns="http://www.w3.org/2000/svg" xmlns:xlink="http://www.w3.org/1999/xlink" width="50" zoomAndPan="magnify" viewBox="0 0 37.5 37.499999" height="50" preserveAspectRatio="xMidYMid meet" version="1.0"><defs><clipPath id="bd77ec40ed"><path d="M 4.144531 0.832031 L 33 0.832031 L 33 36.359375 L 4.144531 36.359375 Z M 4.144531 0.832031 " clip-rule="nonzero"/></clipPath></defs><g clip-path="url(#bd77ec40ed)"><path fill="#183d79" d="M 6.726562 15.957031 L 6.726562 24.855469 C 6.726562 25.503906 6.570312 26.15625 6.28125 26.738281 L 4.292969 30.71875 C 4.160156 30.976562 4.175781 31.289062 4.328125 31.535156 C 4.480469 31.78125 4.753906 31.933594 5.042969 31.933594 L 13.527344 31.933594 C 13.929688 34.316406 16.003906 36.136719 18.496094 36.136719 C 19.839844 36.136719 21.105469 35.617188 22.070312 34.660156 C 22.820312 33.90625 23.296875 32.957031 23.46875 31.933594 L 31.949219 31.933594 C 32.242188 31.933594 32.515625 31.78125 32.667969 31.535156 C 32.820312 31.289062 32.832031 30.976562 32.703125 30.71875 L 30.714844 26.738281 C 30.425781 26.15625 30.269531 25.503906 30.269531 24.855469 L 30.269531 15.957031 C 30.269531 12.816406 29.046875 9.859375 26.820312 7.636719 C 25.421875 6.234375 23.703125 5.21875 21.808594 4.660156 C 21.832031 4.503906 21.859375 4.347656 21.859375 4.183594 C 21.859375 2.332031 20.351562 0.820312 18.496094 0.820312 C 16.640625 0.820312 15.136719 2.332031 15.136719 4.183594 C 15.136719 4.347656 15.164062 4.503906 15.1875 4.660156 C 10.234375 6.117188 6.726562 10.730469 6.726562 15.957031 Z M 20.882812 33.472656 C 20.242188 34.105469 19.394531 34.457031 18.496094 34.457031 C 16.933594 34.457031 15.617188 33.382812 15.242188 31.933594 L 21.757812 31.933594 C 21.609375 32.511719 21.308594 33.039062 20.882812 33.472656 Z M 18.496094 2.503906 C 19.425781 2.503906 20.179688 3.257812 20.179688 4.183594 C 20.179688 4.226562 20.179688 4.265625 20.175781 4.304688 C 20.074219 4.289062 19.972656 4.285156 19.871094 4.273438 C 19.777344 4.261719 19.6875 4.25 19.59375 4.242188 C 19.226562 4.207031 18.863281 4.183594 18.496094 4.183594 C 18.132812 4.183594 17.765625 4.207031 17.398438 4.242188 C 17.308594 4.25 17.21875 4.261719 17.128906 4.273438 C 17.027344 4.28125 16.921875 4.289062 16.820312 4.304688 C 16.816406 4.265625 16.816406 4.226562 16.816406 4.183594 C 16.816406 3.257812 17.570312 2.503906 18.496094 2.503906 Z M 16.386719 6.085938 C 17.4375 5.867188 18.503906 5.816406 19.554688 5.921875 C 19.90625 5.960938 20.253906 6.011719 20.605469 6.085938 C 22.515625 6.496094 24.25 7.445312 25.628906 8.824219 C 27.539062 10.730469 28.589844 13.265625 28.589844 15.957031 L 28.589844 24.855469 C 28.589844 25.765625 28.804688 26.675781 29.207031 27.488281 L 30.589844 30.253906 L 6.402344 30.253906 L 7.785156 27.488281 C 8.191406 26.675781 8.40625 25.765625 8.40625 24.855469 L 8.40625 15.957031 C 8.40625 11.21875 11.765625 7.066406 16.386719 6.085938 " fill-opacity="1" fill-rule="nonzero"/></g></svg>