<svg xmlns="http://www.w3.org/2000/svg" xmlns:xlink="http://www.w3.org/1999/xlink" width="50" zoomAndPan="magnify" viewBox="0 0 37.5 37.499999" height="50" preserveAspectRatio="xMidYMid meet" version="1.0"><defs><clipPath id="b71f4ef3fc"><path d="M 0 0 L 37.007812 0 L 37.007812 37.007812 L 0 37.007812 Z M 0 0 " clip-rule="nonzero"/></clipPath><clipPath id="fa701439f9"><path d="M 2 1.035156 L 35.824219 1.035156 L 35.824219 18 L 2 18 Z M 2 1.035156 " clip-rule="nonzero"/></clipPath><clipPath id="9ede106b9a"><path d="M 1.035156 19 L 35 19 L 35 35.824219 L 1.035156 35.824219 Z M 1.035156 19 " clip-rule="nonzero"/></clipPath></defs><g clip-path="url(#b71f4ef3fc)"><path fill="#ffffff" d="M 0 0 L 37.007812 0 L 37.007812 37.007812 L 0 37.007812 Z M 0 0 " fill-opacity="1" fill-rule="nonzero"/><path fill="#ffffff" d="M 0 0 L 37.007812 0 L 37.007812 37.007812 L 0 37.007812 Z M 0 0 " fill-opacity="1" fill-rule="nonzero"/></g><g clip-path="url(#fa701439f9)"><path fill="#183d79" d="M 32.578125 17.941406 C 32.453125 17.941406 32.347656 17.898438 32.285156 17.816406 L 29.347656 14.601562 C 29.21875 14.476562 29.199219 14.308594 29.261719 14.160156 C 29.324219 14.015625 29.472656 13.910156 29.640625 13.910156 L 30.816406 13.910156 C 29.136719 8.574219 24.160156 4.902344 18.488281 4.941406 C 12.648438 4.964844 7.527344 8.933594 6.035156 14.5625 C 5.972656 14.75 5.824219 14.875 5.636719 14.875 L 3.199219 14.875 C 3.074219 14.875 2.949219 14.832031 2.863281 14.730469 C 2.800781 14.644531 2.757812 14.519531 2.800781 14.394531 C 3.578125 10.84375 5.59375 7.628906 8.429688 5.339844 C 11.265625 3.050781 14.855469 1.769531 18.488281 1.75 C 22.140625 1.730469 25.710938 2.96875 28.570312 5.238281 C 31.320312 7.421875 33.273438 10.488281 34.113281 13.890625 L 35.519531 13.890625 C 35.6875 13.890625 35.835938 13.972656 35.898438 14.121094 C 35.960938 14.265625 35.941406 14.457031 35.8125 14.5625 L 32.875 17.816406 C 32.8125 17.898438 32.683594 17.941406 32.578125 17.941406 Z M 32.578125 17.941406 " fill-opacity="1" fill-rule="evenodd"/></g><path fill="#183d79" d="M 24.789062 22.917969 L 12.207031 22.980469 C 9.75 23.003906 7.757812 21.007812 7.757812 18.570312 C 7.757812 16.113281 9.75 14.097656 12.207031 14.097656 L 24.789062 14.035156 C 27.246094 14.015625 29.21875 15.988281 29.21875 18.445312 C 29.21875 20.902344 27.246094 22.898438 24.789062 22.917969 Z M 16.472656 20.566406 L 15.066406 20.566406 C 14.832031 20.566406 14.644531 20.398438 14.644531 20.167969 L 14.644531 16.890625 C 14.644531 16.660156 14.832031 16.472656 15.066406 16.472656 L 16.472656 16.472656 C 16.703125 16.449219 16.871094 16.640625 16.871094 16.871094 C 16.871094 17.101562 16.703125 17.292969 16.472656 17.292969 L 15.484375 17.292969 L 15.484375 18.109375 L 16.472656 18.109375 C 16.703125 18.109375 16.871094 18.277344 16.871094 18.507812 C 16.871094 18.738281 16.703125 18.929688 16.472656 18.929688 L 15.484375 18.929688 L 15.484375 19.75 L 16.472656 19.75 C 16.703125 19.75 16.871094 19.9375 16.871094 20.148438 C 16.871094 20.378906 16.703125 20.566406 16.472656 20.566406 Z M 21.828125 20.546875 L 20.421875 20.546875 C 20.1875 20.546875 20.019531 20.355469 20.019531 20.148438 L 20.019531 16.851562 C 20.019531 16.617188 20.1875 16.449219 20.421875 16.429688 L 21.828125 16.429688 C 22.058594 16.429688 22.226562 16.617188 22.226562 16.851562 C 22.226562 17.058594 22.058594 17.25 21.828125 17.25 L 20.839844 17.25 L 20.839844 18.089844 L 21.828125 18.066406 C 22.058594 18.066406 22.226562 18.257812 22.226562 18.488281 C 22.226562 18.71875 22.058594 18.886719 21.828125 18.886719 L 20.839844 18.90625 L 20.839844 19.726562 L 21.828125 19.726562 C 22.058594 19.707031 22.226562 19.894531 22.226562 20.125 C 22.226562 20.355469 22.058594 20.546875 21.828125 20.546875 Z M 23.863281 20.523438 C 23.65625 20.523438 23.464844 20.335938 23.464844 20.125 L 23.464844 17.25 L 22.917969 17.25 C 22.6875 17.25 22.5 17.058594 22.5 16.851562 C 22.5 16.617188 22.6875 16.429688 22.917969 16.429688 L 24.832031 16.410156 C 25.0625 16.410156 25.25 16.597656 25.25 16.828125 C 25.25 17.058594 25.0625 17.226562 24.832031 17.226562 L 24.285156 17.25 L 24.285156 20.105469 C 24.285156 20.335938 24.09375 20.523438 23.863281 20.523438 Z M 18.425781 20.546875 C 17.753906 20.566406 17.207031 20 17.207031 19.328125 C 17.207031 19.097656 17.375 18.929688 17.605469 18.90625 C 17.835938 18.90625 18.027344 19.097656 18.027344 19.328125 C 18.027344 19.558594 18.214844 19.726562 18.425781 19.726562 C 18.65625 19.726562 18.84375 19.539062 18.84375 19.328125 C 18.84375 19.097656 18.65625 18.90625 18.425781 18.90625 C 17.753906 18.90625 17.207031 18.363281 17.207031 17.691406 C 17.207031 17.019531 17.753906 16.449219 18.425781 16.449219 C 19.117188 16.449219 19.664062 16.996094 19.664062 17.667969 C 19.664062 17.898438 19.476562 18.089844 19.246094 18.089844 C 19.035156 18.089844 18.84375 17.898438 18.84375 17.691406 C 18.84375 17.460938 18.65625 17.269531 18.425781 17.269531 C 18.214844 17.269531 18.027344 17.460938 18.027344 17.691406 C 18.027344 17.921875 18.214844 18.089844 18.425781 18.089844 C 19.117188 18.089844 19.664062 18.636719 19.664062 19.308594 C 19.664062 20 19.117188 20.546875 18.425781 20.546875 Z M 13.742188 20.589844 C 13.742188 20.589844 13.722656 20.589844 13.722656 20.589844 C 13.488281 20.566406 13.320312 20.355469 13.34375 20.125 C 13.40625 19.558594 12.945312 19.222656 12.566406 19.054688 L 12.566406 20.167969 C 12.566406 20.398438 12.375 20.589844 12.167969 20.589844 C 11.9375 20.589844 11.746094 20.398438 11.746094 20.1875 L 11.746094 16.890625 C 11.746094 16.683594 11.9375 16.492188 12.167969 16.492188 L 12.964844 16.472656 C 13.617188 16.472656 14.160156 17.019531 14.160156 17.691406 C 14.160156 18.132812 13.910156 18.507812 13.554688 18.71875 C 13.953125 19.078125 14.226562 19.558594 14.160156 20.210938 C 14.140625 20.421875 13.953125 20.589844 13.742188 20.589844 Z M 12.566406 18.066406 L 12.964844 18.066406 C 13.175781 18.066406 13.34375 17.898438 13.34375 17.691406 C 13.34375 17.480469 13.175781 17.292969 12.964844 17.3125 L 12.566406 17.3125 Z M 12.566406 18.066406 " fill-opacity="1" fill-rule="evenodd"/><g clip-path="url(#9ede106b9a)"><path fill="#183d79" d="M 18.488281 35.269531 C 14.855469 35.269531 11.265625 34.050781 8.429688 31.78125 C 5.675781 29.578125 3.703125 26.511719 2.863281 23.109375 L 1.476562 23.128906 C 1.308594 23.128906 1.164062 23.023438 1.097656 22.878906 C 1.035156 22.730469 1.058594 22.5625 1.164062 22.4375 L 4.101562 19.203125 C 4.1875 19.117188 4.292969 19.078125 4.417969 19.054688 C 4.523438 19.054688 4.628906 19.117188 4.710938 19.203125 L 7.652344 22.394531 C 7.757812 22.519531 7.796875 22.6875 7.734375 22.835938 C 7.652344 22.980469 7.503906 23.085938 7.359375 23.085938 L 6.179688 23.085938 C 7.839844 28.441406 12.839844 32.097656 18.488281 32.074219 C 24.328125 32.035156 29.449219 28.085938 30.960938 22.4375 C 31.003906 22.269531 31.171875 22.140625 31.363281 22.140625 L 33.796875 22.121094 C 33.925781 22.121094 34.050781 22.183594 34.113281 22.269531 C 34.195312 22.375 34.21875 22.5 34.195312 22.625 C 33.398438 26.152344 31.402344 29.367188 28.570312 31.65625 C 25.710938 33.964844 22.140625 35.246094 18.488281 35.269531 Z M 18.488281 35.269531 " fill-opacity="1" fill-rule="evenodd"/></g></svg>