<svg xmlns="http://www.w3.org/2000/svg" xmlns:xlink="http://www.w3.org/1999/xlink" width="50" zoomAndPan="magnify" viewBox="0 0 37.5 37.499999" height="50" preserveAspectRatio="xMidYMid meet" version="1.0"><defs><clipPath id="22f4b82e46"><path d="M 2 2 L 36.082031 2 L 36.082031 36.128906 L 2 36.128906 Z M 2 2 " clip-rule="nonzero"/></clipPath></defs><g clip-path="url(#22f4b82e46)"><path fill="#183d79" d="M 35.988281 34.433594 L 28.660156 27.105469 C 33.777344 21.160156 33.519531 12.15625 27.886719 6.523438 C 21.980469 0.617188 12.367188 0.617188 6.460938 6.523438 C 0.554688 12.429688 0.554688 22.042969 6.460938 27.949219 C 9.320312 30.808594 13.125 32.386719 17.171875 32.386719 C 20.835938 32.386719 24.296875 31.089844 27.042969 28.722656 L 34.371094 36.050781 C 34.59375 36.273438 34.886719 36.386719 35.179688 36.386719 C 35.472656 36.386719 35.765625 36.273438 35.988281 36.050781 C 36.433594 35.605469 36.433594 34.882812 35.988281 34.433594 Z M 26.269531 26.332031 C 23.839844 28.761719 20.609375 30.097656 17.171875 30.097656 C 13.738281 30.097656 10.507812 28.761719 8.078125 26.332031 C 3.0625 21.316406 3.0625 13.15625 8.078125 8.140625 C 10.585938 5.632812 13.878906 4.378906 17.171875 4.378906 C 20.46875 4.378906 23.761719 5.632812 26.269531 8.140625 C 31.285156 13.15625 31.285156 21.316406 26.269531 26.332031 Z M 26.269531 26.332031 " fill-opacity="1" fill-rule="nonzero"/></g></svg>