<svg xmlns="http://www.w3.org/2000/svg" xmlns:xlink="http://www.w3.org/1999/xlink" width="50" zoomAndPan="magnify" viewBox="0 0 37.5 37.499999" height="50" preserveAspectRatio="xMidYMid meet" version="1.0"><defs><clipPath id="67352f6a22"><path d="M 0.523438 0.523438 L 36.789062 0.523438 L 36.789062 36.789062 L 0.523438 36.789062 Z M 0.523438 0.523438 " clip-rule="nonzero"/></clipPath></defs><g clip-path="url(#67352f6a22)"><path fill="#183d79" d="M 20.945312 36.476562 L 16.054688 36.476562 C 15.820312 36.476562 15.597656 36.429688 15.382812 36.34375 C 15.171875 36.253906 14.980469 36.125 14.816406 35.960938 C 14.652344 35.796875 14.527344 35.609375 14.4375 35.394531 C 14.351562 35.179688 14.304688 34.957031 14.304688 34.726562 L 14.304688 31.3125 C 13.652344 31.097656 13.019531 30.835938 12.410156 30.523438 L 9.992188 32.945312 C 9.828125 33.109375 9.640625 33.234375 9.425781 33.324219 C 9.210938 33.410156 8.988281 33.457031 8.757812 33.457031 C 8.523438 33.457031 8.300781 33.410156 8.085938 33.324219 C 7.871094 33.234375 7.683594 33.109375 7.519531 32.945312 L 4.054688 29.480469 C 3.890625 29.316406 3.765625 29.128906 3.675781 28.914062 C 3.589844 28.699219 3.542969 28.476562 3.542969 28.242188 C 3.542969 28.011719 3.589844 27.789062 3.675781 27.574219 C 3.765625 27.359375 3.890625 27.171875 4.054688 27.007812 L 6.476562 24.589844 C 6.167969 23.980469 5.90625 23.347656 5.691406 22.695312 L 2.273438 22.695312 C 2.042969 22.695312 1.816406 22.648438 1.605469 22.5625 C 1.390625 22.472656 1.203125 22.34375 1.039062 22.183594 C 0.875 22.019531 0.746094 21.828125 0.660156 21.613281 C 0.570312 21.402344 0.523438 21.179688 0.523438 20.945312 L 0.523438 16.054688 C 0.523438 15.820312 0.570312 15.597656 0.660156 15.382812 C 0.746094 15.171875 0.875 14.980469 1.039062 14.816406 C 1.203125 14.652344 1.390625 14.527344 1.605469 14.4375 C 1.816406 14.351562 2.042969 14.304688 2.273438 14.304688 L 5.6875 14.304688 C 5.902344 13.652344 6.160156 13.019531 6.472656 12.410156 L 4.054688 9.992188 C 3.890625 9.828125 3.765625 9.640625 3.675781 9.425781 C 3.589844 9.210938 3.542969 8.988281 3.542969 8.757812 C 3.542969 8.523438 3.589844 8.300781 3.675781 8.085938 C 3.765625 7.871094 3.890625 7.683594 4.054688 7.519531 L 7.519531 4.054688 C 7.683594 3.890625 7.871094 3.765625 8.085938 3.675781 C 8.300781 3.589844 8.523438 3.542969 8.757812 3.542969 C 8.988281 3.542969 9.210938 3.589844 9.425781 3.675781 C 9.640625 3.765625 9.828125 3.890625 9.992188 4.054688 L 12.410156 6.476562 C 13.019531 6.167969 13.652344 5.90625 14.304688 5.691406 L 14.304688 2.273438 C 14.304688 2.042969 14.351562 1.816406 14.441406 1.605469 C 14.527344 1.390625 14.65625 1.203125 14.820312 1.039062 C 14.984375 0.875 15.171875 0.746094 15.386719 0.660156 C 15.597656 0.570312 15.824219 0.523438 16.054688 0.523438 L 20.949219 0.523438 C 21.179688 0.523438 21.402344 0.570312 21.617188 0.660156 C 21.832031 0.746094 22.019531 0.875 22.183594 1.039062 C 22.347656 1.203125 22.472656 1.390625 22.5625 1.605469 C 22.652344 1.816406 22.695312 2.042969 22.695312 2.273438 L 22.695312 5.6875 C 23.347656 5.902344 23.980469 6.160156 24.59375 6.472656 L 27.007812 4.054688 C 27.171875 3.890625 27.359375 3.765625 27.574219 3.675781 C 27.789062 3.589844 28.011719 3.542969 28.242188 3.542969 C 28.476562 3.542969 28.699219 3.589844 28.914062 3.675781 C 29.128906 3.765625 29.316406 3.890625 29.480469 4.054688 L 32.945312 7.519531 C 33.109375 7.683594 33.234375 7.875 33.324219 8.085938 C 33.410156 8.300781 33.457031 8.523438 33.457031 8.757812 C 33.457031 8.988281 33.410156 9.210938 33.324219 9.425781 C 33.234375 9.640625 33.109375 9.828125 32.945312 9.992188 L 30.523438 12.410156 C 30.835938 13.019531 31.097656 13.652344 31.3125 14.304688 L 34.726562 14.304688 C 34.957031 14.304688 35.179688 14.351562 35.394531 14.4375 C 35.609375 14.527344 35.796875 14.65625 35.960938 14.816406 C 36.125 14.980469 36.253906 15.171875 36.34375 15.386719 C 36.429688 15.597656 36.476562 15.824219 36.476562 16.054688 L 36.476562 20.949219 C 36.476562 21.179688 36.429688 21.402344 36.34375 21.617188 C 36.253906 21.832031 36.125 22.019531 35.960938 22.183594 C 35.796875 22.347656 35.609375 22.472656 35.394531 22.5625 C 35.179688 22.652344 34.957031 22.695312 34.726562 22.695312 L 31.3125 22.695312 C 31.097656 23.347656 30.835938 23.980469 30.523438 24.59375 L 32.945312 27.007812 C 33.109375 27.171875 33.234375 27.359375 33.324219 27.574219 C 33.410156 27.789062 33.457031 28.011719 33.457031 28.242188 C 33.457031 28.476562 33.410156 28.699219 33.324219 28.914062 C 33.234375 29.128906 33.109375 29.316406 32.945312 29.480469 L 29.480469 32.945312 C 29.316406 33.109375 29.128906 33.234375 28.914062 33.324219 C 28.699219 33.410156 28.476562 33.457031 28.242188 33.457031 C 28.011719 33.457031 27.789062 33.410156 27.574219 33.324219 C 27.359375 33.234375 27.171875 33.109375 27.007812 32.945312 L 24.589844 30.523438 C 23.980469 30.835938 23.347656 31.097656 22.695312 31.3125 L 22.695312 34.726562 C 22.695312 34.960938 22.648438 35.183594 22.5625 35.394531 C 22.472656 35.609375 22.347656 35.800781 22.183594 35.960938 C 22.019531 36.125 21.828125 36.253906 21.617188 36.339844 C 21.402344 36.429688 21.179688 36.476562 20.945312 36.476562 Z M 12.25 28.582031 C 12.40625 28.582031 12.550781 28.617188 12.6875 28.695312 C 13.546875 29.1875 14.453125 29.566406 15.40625 29.828125 C 15.597656 29.878906 15.75 29.984375 15.871094 30.140625 C 15.988281 30.296875 16.050781 30.472656 16.050781 30.667969 L 16.050781 34.730469 C 16.046875 34.734375 16.050781 34.738281 16.058594 34.738281 L 20.949219 34.738281 C 20.957031 34.738281 20.957031 34.734375 20.957031 34.730469 L 20.957031 30.664062 C 20.957031 30.46875 21.019531 30.292969 21.136719 30.136719 C 21.257812 29.980469 21.410156 29.875 21.597656 29.824219 C 22.554688 29.5625 23.460938 29.1875 24.320312 28.695312 C 24.492188 28.597656 24.671875 28.5625 24.867188 28.589844 C 25.058594 28.613281 25.226562 28.695312 25.363281 28.832031 L 28.234375 31.707031 C 28.238281 31.710938 28.246094 31.710938 28.25 31.707031 L 31.707031 28.246094 C 31.710938 28.242188 31.710938 28.238281 31.707031 28.234375 L 28.835938 25.363281 C 28.699219 25.222656 28.617188 25.058594 28.589844 24.863281 C 28.566406 24.667969 28.601562 24.488281 28.695312 24.316406 C 29.1875 23.457031 29.566406 22.550781 29.828125 21.597656 C 29.878906 21.40625 29.984375 21.253906 30.140625 21.132812 C 30.296875 21.015625 30.472656 20.957031 30.667969 20.957031 L 34.730469 20.957031 C 34.734375 20.957031 34.738281 20.953125 34.738281 20.949219 L 34.738281 16.054688 C 34.738281 16.046875 34.734375 16.042969 34.730469 16.046875 L 30.664062 16.046875 C 30.46875 16.046875 30.292969 15.984375 30.136719 15.867188 C 29.980469 15.746094 29.875 15.59375 29.824219 15.402344 C 29.5625 14.449219 29.1875 13.542969 28.695312 12.683594 C 28.597656 12.511719 28.5625 12.332031 28.589844 12.136719 C 28.613281 11.945312 28.695312 11.777344 28.832031 11.640625 L 31.707031 8.769531 C 31.710938 8.765625 31.710938 8.761719 31.707031 8.757812 L 28.25 5.289062 C 28.246094 5.285156 28.242188 5.285156 28.238281 5.289062 L 25.367188 8.160156 C 25.226562 8.300781 25.0625 8.382812 24.867188 8.40625 C 24.675781 8.433594 24.492188 8.398438 24.324219 8.300781 C 23.464844 7.808594 22.554688 7.433594 21.601562 7.171875 C 21.410156 7.121094 21.257812 7.015625 21.136719 6.859375 C 21.019531 6.703125 20.960938 6.527344 20.960938 6.332031 L 20.960938 2.273438 C 20.960938 2.269531 20.957031 2.265625 20.953125 2.265625 L 16.054688 2.265625 C 16.046875 2.265625 16.046875 2.269531 16.046875 2.273438 L 16.046875 6.335938 C 16.046875 6.53125 15.984375 6.707031 15.867188 6.863281 C 15.746094 7.019531 15.59375 7.125 15.402344 7.175781 C 14.449219 7.4375 13.542969 7.8125 12.683594 8.304688 C 12.511719 8.402344 12.332031 8.4375 12.136719 8.414062 C 11.941406 8.386719 11.777344 8.304688 11.636719 8.167969 L 8.765625 5.292969 C 8.761719 5.289062 8.757812 5.289062 8.753906 5.292969 L 5.289062 8.753906 C 5.285156 8.757812 5.285156 8.761719 5.289062 8.765625 L 8.160156 11.636719 C 8.300781 11.777344 8.382812 11.941406 8.40625 12.136719 C 8.433594 12.328125 8.398438 12.511719 8.300781 12.679688 C 7.808594 13.539062 7.433594 14.449219 7.171875 15.402344 C 7.121094 15.59375 7.015625 15.746094 6.859375 15.863281 C 6.703125 15.984375 6.527344 16.042969 6.332031 16.042969 L 2.273438 16.042969 C 2.269531 16.042969 2.265625 16.046875 2.265625 16.050781 L 2.265625 20.945312 C 2.265625 20.949219 2.269531 20.953125 2.273438 20.953125 L 6.335938 20.953125 C 6.53125 20.953125 6.707031 21.011719 6.863281 21.132812 C 7.019531 21.25 7.125 21.40625 7.175781 21.59375 C 7.4375 22.550781 7.8125 23.457031 8.304688 24.316406 C 8.402344 24.484375 8.4375 24.667969 8.414062 24.859375 C 8.386719 25.054688 8.304688 25.222656 8.167969 25.359375 L 5.292969 28.230469 C 5.292969 28.234375 5.292969 28.238281 5.292969 28.242188 L 8.753906 31.710938 C 8.757812 31.714844 8.761719 31.714844 8.765625 31.710938 L 11.636719 28.839844 C 11.808594 28.667969 12.011719 28.582031 12.25 28.582031 Z M 18.511719 27.765625 C 17.28125 27.769531 16.09375 27.539062 14.957031 27.070312 C 13.816406 26.597656 12.8125 25.929688 11.945312 25.058594 C 9.339844 22.453125 8.542969 18.613281 9.863281 15.03125 C 10.300781 13.832031 10.972656 12.78125 11.875 11.878906 C 12.78125 10.976562 13.832031 10.304688 15.027344 9.863281 C 18.609375 8.542969 22.453125 9.339844 25.058594 11.945312 C 27.660156 14.546875 28.457031 18.390625 27.140625 21.972656 C 26.699219 23.167969 26.027344 24.21875 25.121094 25.125 C 24.21875 26.027344 23.167969 26.699219 21.96875 27.140625 C 20.855469 27.554688 19.703125 27.761719 18.511719 27.765625 Z M 18.523438 10.964844 C 17.527344 10.96875 16.5625 11.144531 15.632812 11.496094 C 14.671875 11.847656 13.832031 12.382812 13.109375 13.105469 C 12.386719 13.828125 11.847656 14.667969 11.496094 15.628906 C 10.398438 18.609375 11.023438 21.671875 13.175781 23.824219 C 13.875 24.53125 14.683594 25.078125 15.601562 25.460938 C 16.523438 25.84375 17.480469 26.035156 18.476562 26.03125 C 19.472656 26.027344 20.4375 25.851562 21.367188 25.503906 C 22.328125 25.148438 23.167969 24.613281 23.890625 23.890625 C 24.613281 23.167969 25.152344 22.328125 25.503906 21.371094 C 26.605469 18.390625 25.976562 15.328125 23.828125 13.175781 C 23.128906 12.464844 22.316406 11.917969 21.398438 11.535156 C 20.480469 11.152344 19.519531 10.960938 18.523438 10.964844 Z M 18.523438 10.964844 " fill-opacity="1" fill-rule="nonzero"/></g></svg>