<svg xmlns="http://www.w3.org/2000/svg" xmlns:xlink="http://www.w3.org/1999/xlink" width="50" zoomAndPan="magnify" viewBox="0 0 37.5 37.499999" height="50" preserveAspectRatio="xMidYMid meet" version="1.0"><defs><clipPath id="df06640da8"><path d="M 3.699219 0.753906 L 32.566406 0.753906 L 32.566406 36.28125 L 3.699219 36.28125 Z M 3.699219 0.753906 " clip-rule="nonzero"/></clipPath></defs><g clip-path="url(#df06640da8)"><path fill="#183d79" d="M 18.230469 16.886719 C 18.761719 16.886719 19.285156 16.835938 19.804688 16.730469 C 20.324219 16.628906 20.828125 16.476562 21.316406 16.273438 C 21.808594 16.070312 22.273438 15.820312 22.714844 15.527344 C 23.152344 15.234375 23.5625 14.898438 23.933594 14.523438 C 24.308594 14.148438 24.644531 13.742188 24.9375 13.300781 C 25.234375 12.863281 25.480469 12.398438 25.683594 11.90625 C 25.886719 11.417969 26.039062 10.914062 26.144531 10.394531 C 26.246094 9.875 26.296875 9.351562 26.296875 8.820312 C 26.296875 8.289062 26.246094 7.765625 26.144531 7.246094 C 26.039062 6.726562 25.886719 6.222656 25.683594 5.734375 C 25.480469 5.246094 25.234375 4.78125 24.9375 4.339844 C 24.644531 3.898438 24.308594 3.492188 23.933594 3.117188 C 23.5625 2.742188 23.152344 2.40625 22.714844 2.113281 C 22.273438 1.820312 21.808594 1.570312 21.316406 1.367188 C 20.828125 1.164062 20.324219 1.011719 19.804688 0.910156 C 19.285156 0.804688 18.761719 0.753906 18.230469 0.753906 C 17.703125 0.753906 17.175781 0.804688 16.65625 0.910156 C 16.136719 1.011719 15.632812 1.164062 15.144531 1.367188 C 14.65625 1.570312 14.191406 1.820312 13.75 2.113281 C 13.308594 2.40625 12.902344 2.742188 12.527344 3.117188 C 12.152344 3.492188 11.820312 3.898438 11.523438 4.339844 C 11.230469 4.78125 10.980469 5.246094 10.777344 5.734375 C 10.578125 6.222656 10.421875 6.726562 10.320312 7.246094 C 10.21875 7.765625 10.164062 8.289062 10.164062 8.820312 C 10.164062 9.351562 10.21875 9.875 10.320312 10.394531 C 10.425781 10.914062 10.578125 11.417969 10.78125 11.90625 C 10.984375 12.394531 11.234375 12.859375 11.527344 13.300781 C 11.820312 13.738281 12.15625 14.148438 12.53125 14.519531 C 12.90625 14.894531 13.3125 15.230469 13.753906 15.523438 C 14.191406 15.820312 14.65625 16.066406 15.144531 16.269531 C 15.636719 16.472656 16.140625 16.625 16.660156 16.730469 C 17.179688 16.832031 17.703125 16.886719 18.230469 16.886719 Z M 18.230469 3.980469 C 18.550781 3.980469 18.863281 4.011719 19.175781 4.074219 C 19.488281 4.136719 19.789062 4.226562 20.082031 4.347656 C 20.378906 4.472656 20.65625 4.621094 20.921875 4.796875 C 21.183594 4.972656 21.429688 5.171875 21.652344 5.398438 C 21.878906 5.621094 22.078125 5.867188 22.253906 6.132812 C 22.433594 6.394531 22.582031 6.675781 22.703125 6.96875 C 22.824219 7.261719 22.917969 7.566406 22.976562 7.875 C 23.039062 8.1875 23.070312 8.503906 23.070312 8.820312 C 23.070312 9.136719 23.039062 9.453125 22.976562 9.765625 C 22.917969 10.078125 22.824219 10.378906 22.703125 10.671875 C 22.582031 10.964844 22.433594 11.246094 22.253906 11.507812 C 22.078125 11.773438 21.878906 12.019531 21.652344 12.242188 C 21.429688 12.46875 21.183594 12.667969 20.921875 12.84375 C 20.65625 13.019531 20.378906 13.171875 20.082031 13.292969 C 19.789062 13.414062 19.488281 13.503906 19.175781 13.566406 C 18.863281 13.628906 18.550781 13.660156 18.230469 13.660156 C 17.914062 13.660156 17.597656 13.628906 17.289062 13.566406 C 16.976562 13.503906 16.671875 13.414062 16.378906 13.292969 C 16.085938 13.171875 15.808594 13.019531 15.542969 12.84375 C 15.277344 12.667969 15.035156 12.46875 14.808594 12.242188 C 14.585938 12.019531 14.382812 11.773438 14.207031 11.507812 C 14.03125 11.246094 13.882812 10.964844 13.761719 10.671875 C 13.636719 10.378906 13.546875 10.078125 13.484375 9.765625 C 13.421875 9.453125 13.390625 9.136719 13.390625 8.820312 C 13.390625 8.503906 13.421875 8.1875 13.484375 7.875 C 13.546875 7.566406 13.636719 7.261719 13.761719 6.96875 C 13.882812 6.675781 14.03125 6.394531 14.207031 6.132812 C 14.382812 5.867188 14.585938 5.621094 14.808594 5.398438 C 15.035156 5.171875 15.277344 4.972656 15.542969 4.796875 C 15.808594 4.621094 16.085938 4.472656 16.378906 4.347656 C 16.671875 4.226562 16.976562 4.136719 17.289062 4.074219 C 17.597656 4.011719 17.914062 3.980469 18.230469 3.980469 Z M 3.710938 34.632812 C 3.710938 33.679688 3.804688 32.734375 3.992188 31.800781 C 4.179688 30.867188 4.453125 29.957031 4.820312 29.078125 C 5.183594 28.199219 5.632812 27.359375 6.160156 26.570312 C 6.691406 25.777344 7.292969 25.042969 7.964844 24.367188 C 8.640625 23.695312 9.375 23.09375 10.167969 22.5625 C 10.960938 22.035156 11.796875 21.585938 12.675781 21.222656 C 13.558594 20.859375 14.464844 20.582031 15.398438 20.398438 C 16.335938 20.210938 17.277344 20.117188 18.230469 20.117188 C 19.183594 20.117188 20.128906 20.210938 21.0625 20.398438 C 22 20.582031 22.90625 20.859375 23.785156 21.222656 C 24.667969 21.585938 25.503906 22.035156 26.296875 22.5625 C 27.089844 23.09375 27.824219 23.695312 28.496094 24.367188 C 29.171875 25.042969 29.773438 25.777344 30.300781 26.570312 C 30.832031 27.359375 31.277344 28.199219 31.644531 29.078125 C 32.007812 29.957031 32.285156 30.867188 32.472656 31.800781 C 32.65625 32.734375 32.75 33.679688 32.75 34.632812 C 32.75 34.847656 32.710938 35.050781 32.628906 35.25 C 32.546875 35.449219 32.429688 35.621094 32.277344 35.773438 C 32.128906 35.925781 31.953125 36.042969 31.753906 36.121094 C 31.558594 36.203125 31.351562 36.246094 31.136719 36.246094 C 30.921875 36.246094 30.71875 36.203125 30.519531 36.121094 C 30.324219 36.042969 30.148438 35.925781 29.996094 35.773438 C 29.84375 35.621094 29.730469 35.449219 29.648438 35.25 C 29.566406 35.050781 29.523438 34.847656 29.523438 34.632812 C 29.523438 33.890625 29.453125 33.15625 29.308594 32.429688 C 29.164062 31.703125 28.949219 30.996094 28.664062 30.3125 C 28.382812 29.625 28.03125 28.976562 27.621094 28.359375 C 27.210938 27.742188 26.742188 27.171875 26.214844 26.648438 C 25.691406 26.125 25.121094 25.65625 24.503906 25.242188 C 23.890625 24.832031 23.238281 24.484375 22.554688 24.199219 C 21.867188 23.914062 21.160156 23.703125 20.433594 23.558594 C 19.707031 23.414062 18.972656 23.339844 18.230469 23.339844 C 17.488281 23.339844 16.753906 23.414062 16.027344 23.558594 C 15.300781 23.703125 14.59375 23.914062 13.910156 24.199219 C 13.226562 24.484375 12.574219 24.832031 11.957031 25.242188 C 11.339844 25.65625 10.769531 26.125 10.246094 26.648438 C 9.722656 27.171875 9.253906 27.742188 8.84375 28.359375 C 8.429688 28.976562 8.082031 29.625 7.796875 30.3125 C 7.515625 30.996094 7.300781 31.703125 7.15625 32.429688 C 7.011719 33.15625 6.9375 33.890625 6.9375 34.632812 C 6.9375 34.847656 6.898438 35.050781 6.816406 35.25 C 6.734375 35.449219 6.617188 35.621094 6.464844 35.773438 C 6.316406 35.925781 6.140625 36.042969 5.941406 36.121094 C 5.746094 36.203125 5.539062 36.246094 5.324219 36.246094 C 5.113281 36.246094 4.90625 36.203125 4.707031 36.121094 C 4.511719 36.042969 4.335938 35.925781 4.183594 35.773438 C 4.035156 35.621094 3.917969 35.449219 3.835938 35.25 C 3.753906 35.050781 3.710938 34.847656 3.710938 34.632812 Z M 3.710938 34.632812 " fill-opacity="1" fill-rule="nonzero"/></g></svg>