<svg xmlns="http://www.w3.org/2000/svg" xmlns:xlink="http://www.w3.org/1999/xlink" width="50" zoomAndPan="magnify" viewBox="0 0 37.5 37.499999" height="50" preserveAspectRatio="xMidYMid meet" version="1.0"><defs><clipPath id="2e6a0331b5"><path d="M 0.742188 0.742188 L 36.269531 0.742188 L 36.269531 36.269531 L 0.742188 36.269531 Z M 0.742188 0.742188 " clip-rule="nonzero"/></clipPath></defs><g clip-path="url(#2e6a0331b5)"><path fill="#183d79" d="M 35.816406 32.675781 L 34.605469 32.675781 L 34.605469 12.828125 C 34.605469 12.585938 34.40625 12.386719 34.160156 12.386719 L 30.699219 12.386719 C 30.453125 12.386719 30.257812 12.585938 30.257812 12.828125 L 30.257812 32.675781 L 29.53125 32.675781 L 29.53125 16.019531 C 29.53125 15.777344 29.332031 15.578125 29.085938 15.578125 L 25.625 15.578125 C 25.382812 15.578125 25.183594 15.777344 25.183594 16.019531 L 25.183594 32.675781 L 24.457031 32.675781 L 24.457031 19.214844 C 24.457031 18.96875 24.257812 18.769531 24.015625 18.769531 L 20.550781 18.769531 C 20.308594 18.769531 20.109375 18.96875 20.109375 19.214844 L 20.109375 32.675781 L 19.382812 32.675781 L 19.382812 22.40625 C 19.382812 22.160156 19.183594 21.960938 18.941406 21.960938 L 15.476562 21.960938 C 15.234375 21.960938 15.035156 22.160156 15.035156 22.40625 L 15.035156 32.675781 L 14.308594 32.675781 L 14.308594 25.597656 C 14.308594 25.351562 14.109375 25.15625 13.867188 25.15625 L 10.402344 25.15625 C 10.160156 25.15625 9.960938 25.351562 9.960938 25.597656 L 9.960938 32.675781 L 9.234375 32.675781 L 9.234375 28.789062 C 9.234375 28.542969 9.035156 28.347656 8.792969 28.347656 L 5.328125 28.347656 C 5.085938 28.347656 4.886719 28.542969 4.886719 28.789062 L 4.886719 32.675781 L 4.324219 32.675781 L 4.324219 9.855469 C 4.324219 9.609375 4.125 9.410156 3.882812 9.410156 L 1.183594 9.410156 C 0.941406 9.410156 0.742188 9.609375 0.742188 9.855469 L 0.742188 35.816406 C 0.742188 36.058594 0.941406 36.257812 1.183594 36.257812 L 35.816406 36.257812 C 36.058594 36.257812 36.257812 36.058594 36.257812 35.816406 L 36.257812 33.117188 C 36.257812 32.875 36.058594 32.675781 35.816406 32.675781 Z M 31.140625 13.269531 L 33.71875 13.269531 L 33.71875 32.675781 L 31.140625 32.675781 Z M 26.066406 16.464844 L 28.644531 16.464844 L 28.644531 32.675781 L 26.066406 32.675781 Z M 20.992188 19.65625 L 23.570312 19.65625 L 23.570312 32.675781 L 20.992188 32.675781 Z M 15.917969 22.847656 L 18.5 22.847656 L 18.5 32.675781 L 15.917969 32.675781 Z M 10.84375 26.039062 L 13.421875 26.039062 L 13.421875 32.675781 L 10.84375 32.675781 Z M 5.769531 29.230469 L 8.351562 29.230469 L 8.351562 32.675781 L 5.769531 32.675781 Z M 35.375 35.375 L 1.628906 35.375 L 1.628906 10.296875 L 3.441406 10.296875 L 3.441406 33.117188 C 3.441406 33.363281 3.636719 33.5625 3.882812 33.5625 L 35.375 33.5625 Z M 6.859375 23.089844 C 6.917969 23.191406 7.015625 23.265625 7.128906 23.296875 C 7.164062 23.304688 7.203125 23.308594 7.242188 23.308594 C 7.320312 23.308594 7.394531 23.289062 7.464844 23.25 L 30.5625 9.914062 L 31.242188 11.089844 C 31.332031 11.246094 31.507812 11.332031 31.683594 11.308594 C 31.863281 11.285156 32.007812 11.15625 32.054688 10.980469 L 33.097656 6.957031 C 33.160156 6.722656 33.023438 6.484375 32.789062 6.417969 L 28.78125 5.3125 C 28.605469 5.265625 28.421875 5.324219 28.3125 5.46875 C 28.203125 5.609375 28.191406 5.804688 28.28125 5.960938 L 28.957031 7.136719 L 5.859375 20.472656 C 5.648438 20.59375 5.574219 20.863281 5.695312 21.074219 Z M 29.785156 7.679688 C 29.886719 7.621094 29.957031 7.523438 29.988281 7.410156 C 30.019531 7.296875 30.003906 7.175781 29.945312 7.074219 L 29.585938 6.449219 L 32.132812 7.152344 L 31.46875 9.714844 L 31.109375 9.089844 C 30.988281 8.878906 30.714844 8.804688 30.503906 8.925781 L 7.40625 22.265625 L 6.683594 21.015625 Z M 9.480469 4.484375 C 9.480469 3.652344 10.054688 2.949219 10.828125 2.75 L 10.828125 2.351562 C 10.828125 2.105469 11.027344 1.910156 11.269531 1.910156 C 11.515625 1.910156 11.710938 2.105469 11.710938 2.351562 L 11.710938 2.75 C 12.203125 2.875 12.625 3.203125 12.863281 3.667969 C 12.976562 3.886719 12.890625 4.152344 12.671875 4.261719 C 12.453125 4.375 12.1875 4.289062 12.078125 4.070312 C 11.921875 3.769531 11.613281 3.578125 11.269531 3.578125 C 10.769531 3.578125 10.363281 3.984375 10.363281 4.484375 C 10.363281 4.984375 10.769531 5.390625 11.269531 5.390625 C 12.257812 5.390625 13.058594 6.191406 13.058594 7.179688 C 13.058594 8.015625 12.488281 8.71875 11.710938 8.914062 L 11.710938 9.3125 C 11.710938 9.558594 11.515625 9.757812 11.269531 9.757812 C 11.027344 9.757812 10.828125 9.558594 10.828125 9.3125 L 10.828125 8.914062 C 10.335938 8.789062 9.917969 8.460938 9.679688 7.996094 C 9.566406 7.777344 9.652344 7.511719 9.871094 7.402344 C 10.085938 7.289062 10.351562 7.375 10.464844 7.59375 C 10.621094 7.898438 10.929688 8.085938 11.269531 8.085938 C 11.769531 8.085938 12.175781 7.679688 12.175781 7.179688 C 12.175781 6.679688 11.769531 6.273438 11.269531 6.273438 C 10.285156 6.273438 9.480469 5.472656 9.480469 4.484375 Z M 11.269531 10.921875 C 14.078125 10.921875 16.359375 8.636719 16.359375 5.832031 C 16.359375 3.023438 14.078125 0.742188 11.269531 0.742188 C 8.464844 0.742188 6.179688 3.027344 6.179688 5.832031 C 6.179688 8.640625 8.464844 10.921875 11.269531 10.921875 Z M 11.269531 1.628906 C 13.589844 1.628906 15.476562 3.511719 15.476562 5.832031 C 15.476562 8.152344 13.589844 10.039062 11.269531 10.039062 C 8.953125 10.039062 7.066406 8.152344 7.066406 5.832031 C 7.066406 3.511719 8.953125 1.628906 11.269531 1.628906 Z M 11.269531 1.628906 " fill-opacity="1" fill-rule="nonzero"/></g></svg>