<svg xmlns="http://www.w3.org/2000/svg" xmlns:xlink="http://www.w3.org/1999/xlink" width="50" zoomAndPan="magnify" viewBox="0 0 37.5 37.499999" height="50" preserveAspectRatio="xMidYMid meet" version="1.0"><defs><clipPath id="6a915725be"><path d="M 30 20 L 37.007812 20 L 37.007812 27 L 30 27 Z M 30 20 " clip-rule="nonzero"/></clipPath><clipPath id="a8ae68b9d9"><path d="M 0.898438 3.699219 L 30 3.699219 L 30 32.566406 L 0.898438 32.566406 Z M 0.898438 3.699219 " clip-rule="nonzero"/></clipPath></defs><path fill="#ffffff" d="M 26.464844 22.179688 C 26.027344 22.175781 25.59375 22.125 25.164062 22.027344 C 24.738281 21.925781 24.328125 21.777344 23.9375 21.585938 C 23.542969 21.390625 23.175781 21.152344 22.839844 20.875 C 22.5 20.59375 22.195312 20.28125 21.929688 19.933594 C 21.664062 19.585938 21.441406 19.210938 21.261719 18.8125 C 21.078125 18.410156 20.945312 17.996094 20.863281 17.566406 C 20.777344 17.136719 20.742188 16.699219 20.757812 16.261719 C 20.773438 15.824219 20.835938 15.394531 20.953125 14.96875 C 21.066406 14.546875 21.226562 14.140625 21.433594 13.753906 C 21.640625 13.367188 21.890625 13.011719 22.179688 12.679688 C 22.46875 12.351562 22.792969 12.058594 23.148438 11.804688 C 23.507812 11.550781 23.886719 11.339844 24.292969 11.171875 C 24.699219 11.003906 25.117188 10.886719 25.550781 10.816406 C 25.984375 10.742188 26.417969 10.722656 26.855469 10.753906 C 27.292969 10.78125 27.722656 10.859375 28.140625 10.988281 C 28.5625 11.117188 28.960938 11.289062 29.339844 11.511719 C 29.71875 11.730469 30.070312 11.992188 30.390625 12.289062 C 30.710938 12.589844 30.992188 12.921875 31.234375 13.289062 C 31.476562 13.652344 31.675781 14.042969 31.828125 14.453125 C 31.984375 14.863281 32.089844 15.285156 32.144531 15.722656 C 32.199219 16.15625 32.207031 16.589844 32.164062 17.027344 C 32.121094 17.464844 32.027344 17.890625 31.886719 18.304688 C 31.746094 18.71875 31.558594 19.113281 31.324219 19.488281 C 31.09375 19.859375 30.820312 20.199219 30.511719 20.507812 C 29.972656 21.046875 29.355469 21.457031 28.652344 21.746094 C 27.953125 22.035156 27.222656 22.179688 26.464844 22.179688 Z M 26.464844 11.949219 C 26.117188 11.949219 25.777344 11.992188 25.441406 12.070312 C 25.105469 12.148438 24.78125 12.261719 24.472656 12.417969 C 24.164062 12.570312 23.875 12.753906 23.605469 12.972656 C 23.339844 13.195312 23.101562 13.441406 22.890625 13.714844 C 22.679688 13.988281 22.503906 14.28125 22.363281 14.597656 C 22.21875 14.914062 22.113281 15.238281 22.046875 15.578125 C 21.980469 15.917969 21.953125 16.257812 21.964844 16.605469 C 21.976562 16.949219 22.027344 17.289062 22.113281 17.621094 C 22.203125 17.957031 22.332031 18.277344 22.492188 18.582031 C 22.65625 18.886719 22.851562 19.167969 23.078125 19.425781 C 23.308594 19.6875 23.5625 19.917969 23.84375 20.117188 C 24.125 20.320312 24.425781 20.484375 24.742188 20.617188 C 25.0625 20.75 25.394531 20.84375 25.734375 20.902344 C 26.074219 20.957031 26.417969 20.972656 26.761719 20.949219 C 27.105469 20.929688 27.445312 20.867188 27.773438 20.765625 C 28.105469 20.664062 28.421875 20.527344 28.71875 20.355469 C 29.019531 20.183594 29.292969 19.980469 29.546875 19.742188 C 29.796875 19.507812 30.019531 19.246094 30.210938 18.957031 C 30.402344 18.667969 30.5625 18.363281 30.683594 18.039062 C 30.804688 17.71875 30.886719 17.382812 30.933594 17.042969 C 30.976562 16.699219 30.984375 16.355469 30.949219 16.011719 C 30.914062 15.667969 30.84375 15.332031 30.730469 15.007812 C 30.621094 14.679688 30.472656 14.367188 30.289062 14.074219 C 30.109375 13.78125 29.894531 13.511719 29.648438 13.269531 C 28.769531 12.390625 27.707031 11.949219 26.464844 11.953125 Z M 26.464844 11.949219 " fill-opacity="1" fill-rule="nonzero"/><path fill="#ffffff" d="M 31.402344 22.003906 C 31.234375 22.003906 31.089844 21.945312 30.972656 21.824219 L 29.652344 20.507812 C 29.53125 20.390625 29.464844 20.246094 29.464844 20.078125 C 29.460938 19.90625 29.519531 19.761719 29.640625 19.640625 C 29.761719 19.519531 29.90625 19.460938 30.078125 19.460938 C 30.25 19.464844 30.394531 19.527344 30.511719 19.652344 L 31.832031 20.972656 C 32.023438 21.160156 32.066406 21.382812 31.960938 21.632812 C 31.859375 21.882812 31.671875 22.007812 31.402344 22.007812 Z M 31.402344 22.003906 " fill-opacity="1" fill-rule="nonzero"/><g clip-path="url(#6a915725be)"><path fill="#ffffff" d="M 35.183594 26.996094 C 34.679688 27 34.25 26.820312 33.890625 26.464844 L 30.488281 23.058594 C 30.378906 22.953125 30.296875 22.832031 30.242188 22.691406 C 30.183594 22.550781 30.152344 22.40625 30.152344 22.257812 C 30.152344 22.105469 30.183594 21.960938 30.242188 21.820312 C 30.296875 21.679688 30.378906 21.558594 30.488281 21.453125 L 31.453125 20.484375 C 31.558594 20.378906 31.683594 20.296875 31.820312 20.238281 C 31.960938 20.183594 32.105469 20.152344 32.257812 20.152344 C 32.40625 20.152344 32.550781 20.183594 32.691406 20.238281 C 32.832031 20.296875 32.953125 20.378906 33.058594 20.484375 L 36.472656 23.890625 C 36.640625 24.0625 36.773438 24.257812 36.863281 24.480469 C 36.957031 24.703125 37.003906 24.9375 37.003906 25.175781 C 37.003906 25.417969 36.957031 25.648438 36.863281 25.871094 C 36.773438 26.097656 36.640625 26.292969 36.472656 26.464844 C 36.117188 26.820312 35.6875 26.996094 35.183594 26.996094 Z M 31.402344 22.253906 L 34.753906 25.605469 C 34.871094 25.722656 35.015625 25.78125 35.183594 25.78125 C 35.351562 25.78125 35.492188 25.722656 35.609375 25.605469 C 35.730469 25.488281 35.789062 25.34375 35.789062 25.175781 C 35.789062 25.007812 35.730469 24.867188 35.609375 24.75 L 32.261719 21.398438 Z M 31.402344 22.253906 " fill-opacity="1" fill-rule="nonzero"/></g><path fill="#ffffff" d="M 19.621094 22.074219 C 19.472656 22.074219 19.339844 22.023438 19.226562 21.925781 L 13.9375 17.375 C 13.8125 17.265625 13.742188 17.128906 13.730469 16.960938 C 13.71875 16.792969 13.765625 16.644531 13.875 16.519531 C 13.984375 16.390625 14.121094 16.324219 14.289062 16.308594 C 14.457031 16.296875 14.601562 16.347656 14.730469 16.453125 L 20.015625 21.007812 C 20.230469 21.191406 20.289062 21.414062 20.191406 21.675781 C 20.09375 21.941406 19.902344 22.070312 19.621094 22.074219 Z M 19.621094 22.074219 " fill-opacity="1" fill-rule="nonzero"/><path fill="#ffffff" d="M 21.363281 21.929688 C 21.105469 21.929688 20.921875 21.8125 20.8125 21.582031 C 20.703125 21.347656 20.730469 21.132812 20.898438 20.933594 L 27.273438 13.316406 C 27.378906 13.1875 27.519531 13.117188 27.683594 13.101562 C 27.851562 13.085938 28 13.132812 28.128906 13.242188 C 28.257812 13.347656 28.328125 13.484375 28.34375 13.652344 C 28.359375 13.820312 28.3125 13.96875 28.203125 14.097656 L 21.832031 21.710938 C 21.710938 21.859375 21.554688 21.933594 21.363281 21.929688 Z M 21.363281 21.929688 " fill-opacity="1" fill-rule="nonzero"/><path fill="#ffffff" d="M 6.21875 22.984375 C 5.9375 22.980469 5.75 22.851562 5.652344 22.589844 C 5.554688 22.328125 5.609375 22.105469 5.820312 21.921875 L 12.054688 16.46875 C 12.183594 16.371094 12.324219 16.332031 12.484375 16.347656 C 12.644531 16.363281 12.773438 16.429688 12.878906 16.550781 C 12.984375 16.671875 13.035156 16.808594 13.03125 16.96875 C 13.027344 17.128906 12.964844 17.265625 12.855469 17.378906 L 6.617188 22.832031 C 6.503906 22.933594 6.371094 22.984375 6.21875 22.984375 Z M 6.21875 22.984375 " fill-opacity="1" fill-rule="nonzero"/><path fill="#ffffff" d="M 13.390625 17.957031 C 13.144531 17.957031 12.910156 17.910156 12.683594 17.816406 C 12.453125 17.722656 12.253906 17.585938 12.082031 17.414062 C 11.90625 17.238281 11.773438 17.039062 11.679688 16.8125 C 11.585938 16.585938 11.539062 16.347656 11.539062 16.101562 C 11.539062 15.859375 11.585938 15.621094 11.679688 15.394531 C 11.773438 15.167969 11.90625 14.96875 12.082031 14.792969 C 12.253906 14.621094 12.457031 14.484375 12.683594 14.390625 C 12.910156 14.296875 13.144531 14.25 13.390625 14.25 C 13.636719 14.25 13.875 14.296875 14.101562 14.394531 C 14.328125 14.488281 14.527344 14.621094 14.699219 14.792969 C 14.875 14.96875 15.007812 15.167969 15.101562 15.394531 C 15.195312 15.621094 15.242188 15.859375 15.242188 16.105469 C 15.242188 16.351562 15.195312 16.585938 15.101562 16.8125 C 15.007812 17.039062 14.875 17.238281 14.699219 17.414062 C 14.527344 17.585938 14.324219 17.71875 14.097656 17.816406 C 13.871094 17.910156 13.636719 17.957031 13.390625 17.957031 Z M 13.390625 15.464844 C 13.214844 15.464844 13.0625 15.527344 12.9375 15.652344 C 12.816406 15.777344 12.753906 15.929688 12.753906 16.105469 C 12.753906 16.28125 12.816406 16.429688 12.9375 16.554688 C 13.0625 16.679688 13.214844 16.742188 13.390625 16.742188 C 13.566406 16.742188 13.71875 16.679688 13.84375 16.554688 C 13.96875 16.429688 14.03125 16.28125 14.03125 16.105469 C 14.03125 15.929688 13.96875 15.777344 13.84375 15.652344 C 13.71875 15.527344 13.566406 15.464844 13.390625 15.464844 Z M 13.390625 15.464844 " fill-opacity="1" fill-rule="nonzero"/><path fill="#ffffff" d="M 20.566406 24.128906 C 20.320312 24.128906 20.082031 24.082031 19.855469 23.988281 C 19.628906 23.894531 19.429688 23.761719 19.253906 23.585938 C 19.082031 23.414062 18.949219 23.214844 18.851562 22.988281 C 18.757812 22.761719 18.710938 22.523438 18.710938 22.277344 C 18.710938 22.03125 18.757812 21.796875 18.851562 21.570312 C 18.949219 21.34375 19.082031 21.140625 19.253906 20.96875 C 19.429688 20.792969 19.628906 20.660156 19.855469 20.566406 C 20.082031 20.472656 20.320312 20.425781 20.566406 20.425781 C 20.808594 20.425781 21.046875 20.472656 21.273438 20.566406 C 21.5 20.660156 21.699219 20.792969 21.875 20.96875 C 22.046875 21.140625 22.183594 21.34375 22.277344 21.570312 C 22.371094 21.796875 22.417969 22.03125 22.417969 22.277344 C 22.417969 22.523438 22.371094 22.757812 22.273438 22.988281 C 22.179688 23.214844 22.046875 23.414062 21.875 23.585938 C 21.699219 23.761719 21.5 23.894531 21.273438 23.988281 C 21.046875 24.082031 20.808594 24.128906 20.566406 24.128906 Z M 20.566406 21.640625 C 20.386719 21.640625 20.238281 21.703125 20.113281 21.828125 C 19.988281 21.953125 19.925781 22.101562 19.925781 22.277344 C 19.925781 22.457031 19.988281 22.605469 20.113281 22.730469 C 20.238281 22.855469 20.390625 22.917969 20.566406 22.917969 C 20.742188 22.917969 20.890625 22.855469 21.015625 22.730469 C 21.140625 22.605469 21.203125 22.453125 21.203125 22.277344 C 21.203125 22.101562 21.140625 21.953125 21.015625 21.828125 C 20.890625 21.703125 20.742188 21.640625 20.566406 21.640625 Z M 20.566406 21.640625 " fill-opacity="1" fill-rule="nonzero"/><path fill="#ffffff" d="M 27.0625 16.839844 C 27.007812 16.839844 26.957031 16.835938 26.902344 16.820312 C 26.742188 16.777344 26.621094 16.683594 26.535156 16.539062 C 26.453125 16.394531 26.433594 16.238281 26.476562 16.078125 L 26.878906 14.5625 L 25.367188 14.972656 C 25.203125 15.019531 25.046875 15.003906 24.898438 14.917969 C 24.75 14.835938 24.652344 14.710938 24.609375 14.546875 C 24.566406 14.382812 24.585938 14.226562 24.671875 14.082031 C 24.761719 13.933594 24.886719 13.839844 25.050781 13.800781 L 27.582031 13.121094 C 27.804688 13.0625 28 13.113281 28.167969 13.277344 C 28.332031 13.445312 28.382812 13.640625 28.324219 13.867188 L 27.648438 16.394531 C 27.609375 16.527344 27.539062 16.632812 27.429688 16.71875 C 27.320312 16.800781 27.199219 16.839844 27.0625 16.839844 Z M 27.0625 16.839844 " fill-opacity="1" fill-rule="nonzero"/><g clip-path="url(#a8ae68b9d9)"><path fill="#ffffff" d="M 27.558594 32.296875 L 2.90625 32.296875 C 2.640625 32.296875 2.386719 32.246094 2.140625 32.144531 C 1.894531 32.042969 1.675781 31.898438 1.488281 31.710938 C 1.300781 31.523438 1.15625 31.304688 1.050781 31.0625 C 0.949219 30.816406 0.898438 30.558594 0.898438 30.292969 L 0.898438 5.640625 C 0.898438 5.386719 0.945312 5.144531 1.042969 4.90625 C 1.140625 4.671875 1.28125 4.464844 1.460938 4.285156 C 1.640625 4.105469 1.847656 3.964844 2.082031 3.867188 C 2.316406 3.769531 2.5625 3.722656 2.816406 3.722656 C 3.070312 3.722656 3.316406 3.769531 3.550781 3.867188 C 3.789062 3.964844 3.996094 4.105469 4.175781 4.285156 C 4.355469 4.464844 4.492188 4.671875 4.589844 4.90625 C 4.6875 5.144531 4.738281 5.386719 4.738281 5.640625 L 4.738281 28.457031 L 27.558594 28.457031 C 27.808594 28.460938 28.050781 28.515625 28.28125 28.613281 C 28.511719 28.714844 28.714844 28.851562 28.890625 29.03125 C 29.066406 29.210938 29.203125 29.417969 29.296875 29.652344 C 29.394531 29.882812 29.441406 30.125 29.441406 30.375 C 29.441406 30.628906 29.394531 30.871094 29.296875 31.101562 C 29.203125 31.335938 29.066406 31.542969 28.890625 31.722656 C 28.714844 31.902344 28.511719 32.039062 28.28125 32.140625 C 28.050781 32.238281 27.808594 32.292969 27.558594 32.296875 Z M 2.816406 4.929688 C 2.621094 4.929688 2.457031 5 2.316406 5.136719 C 2.179688 5.273438 2.113281 5.441406 2.109375 5.636719 L 2.109375 30.292969 C 2.113281 30.511719 2.1875 30.699219 2.34375 30.855469 C 2.5 31.007812 2.683594 31.085938 2.902344 31.085938 L 27.558594 31.085938 C 27.75 31.082031 27.910156 31.007812 28.042969 30.871094 C 28.175781 30.734375 28.242188 30.570312 28.242188 30.378906 C 28.242188 30.1875 28.175781 30.023438 28.042969 29.886719 C 27.910156 29.75 27.75 29.679688 27.558594 29.671875 L 4.128906 29.671875 C 3.960938 29.671875 3.820312 29.613281 3.703125 29.496094 C 3.582031 29.378906 3.523438 29.234375 3.523438 29.066406 L 3.523438 5.636719 C 3.523438 5.441406 3.453125 5.273438 3.316406 5.136719 C 3.179688 5 3.011719 4.929688 2.816406 4.929688 Z M 2.816406 4.929688 " fill-opacity="1" fill-rule="nonzero"/></g></svg>